<svg width="64" height="64" viewBox="0 0 64 64" fill="none" xmlns="http://www.w3.org/2000/svg">
<path d="M55 35C55 30.58 51.42 27 47 27H9V31H10V39H9V43H17C12.58 43 9 46.58 9 51C9 55.42 12.58 59 17 59H55V55H54V47H55V43H47C51.42 43 55 39.42 55 35ZM48 31.14C49.72 31.59 51 33.14 51 35C51 36.86 49.72 38.41 48 38.86V31.14ZM16 54.86C14.28 54.41 13 52.86 13 51C13 49.14 14.28 47.59 16 47.14V54.86ZM12 39V36H21C21.55 36 22 35.55 22 35C22 34.45 21.55 34 21 34H12V31H46V34H39C38.45 34 38 34.45 38 35C38 35.55 38.45 36 39 36H46V39H12ZM52 47V50H43C42.45 50 42 50.45 42 51C42 51.55 42.45 52 43 52H52V55H18V52H25C25.55 52 26 51.55 26 51C26 50.45 25.55 50 25 50H18V47H52Z" fill="#6A0DAD"/>
<path d="M33 34H29C28.45 34 28 34.45 28 35C28 35.55 28.45 36 29 36H33C33.55 36 34 35.55 34 35C34 34.45 33.55 34 33 34Z" fill="#6A0DAD"/>
<path d="M31 52H35C35.55 52 36 51.55 36 51C36 50.45 35.55 50 35 50H31C30.45 50 30 50.45 30 51C30 51.55 30.45 52 31 52Z" fill="#6A0DAD"/>
<path d="M48.29 13H50V19C50 19.09 50.03 19.17 50.05 19.25C49.43 19.59 49 20.24 49 21V24H53V21C53 20.24 52.57 19.59 51.95 19.25C51.97 19.17 52 19.09 52 19V12C52 11.45 51.55 11 51 11H48.29L32 5L13 12L32 19L48.29 13Z" fill="#6A0DAD"/>
<path d="M21 17.0801V25.0001H43V17.0801L32 21.1301L21 17.0801Z" fill="#6A0DAD"/>
</svg>
