<svg width="76" height="76" viewBox="0 0 76 76" fill="none" xmlns="http://www.w3.org/2000/svg">
<path fill-rule="evenodd" clip-rule="evenodd" d="M37.6466 19.9544C37.6466 27.8787 33.1738 34.3025 27.6563 34.3025C22.1388 34.3025 17.666 27.8787 17.666 19.9544C17.666 10.9079 28.0399 14.2982 32.6131 16.4745C34.3722 17.3117 35.3429 13.0192 36.9072 16.4673C37.3795 17.4777 37.6466 18.64 37.6466 19.9544ZM35.2623 17.7749C34.2285 18.5488 33.0309 18.91 31.7452 18.2981C30.1331 17.5309 28.3718 16.8753 26.6366 16.4561C25.058 16.0748 22.3726 15.6462 20.9271 16.6231C19.8745 17.3345 19.6856 18.787 19.6856 19.9544C19.6856 22.8 20.3358 25.7982 21.8055 28.2578C22.8494 30.0048 24.4517 31.6704 26.4988 32.149C26.8786 32.2377 27.2662 32.2829 27.6563 32.2829C28.0464 32.2829 28.434 32.2377 28.8138 32.149C30.8609 31.6704 32.4632 30.0048 33.5071 28.2578C34.9768 25.7982 35.627 22.8 35.627 19.9544C35.627 19.2048 35.5136 18.4731 35.2623 17.7749Z" fill="#6A0DAD"/>
<path fill-rule="evenodd" clip-rule="evenodd" d="M35.323 10.234C36.915 3.48324 12.3717 1.94024 16.1816 17.9344C16.6419 17.9173 17.1927 18.0159 17.8397 18.2636C19.2148 11.5866 28.3886 14.6328 32.6128 16.6431C34.3719 17.4802 35.3426 13.1876 36.9069 16.6358C37.1437 17.1424 37.3289 17.6872 37.4547 18.2701C38.1338 18.0025 38.7084 17.8974 39.185 17.9174C40.3726 12.9815 39.1886 10.245 35.323 10.234Z" fill="#6A0DAD"/>
<path fill-rule="evenodd" clip-rule="evenodd" d="M17.8348 19.9541C17.8348 19.264 17.8952 18.6462 18.0088 18.0947C17.3619 17.847 16.811 17.7484 16.3507 17.7656C13.0873 17.8871 14.3724 23.8287 18.189 23.7545C17.9581 22.5441 17.8348 21.2698 17.8348 19.9541Z" fill="#6A0DAD"/>
<path fill-rule="evenodd" clip-rule="evenodd" d="M37.149 23.7558C40.962 23.83 42.2653 17.8848 39.0182 17.7485C38.5416 17.7284 37.967 17.8336 37.2879 18.1012C37.413 18.681 37.4795 19.2986 37.4795 19.954C37.4795 21.2702 37.356 22.545 37.125 23.7558H37.149Z" fill="#6A0DAD"/>
<path fill-rule="evenodd" clip-rule="evenodd" d="M22.9303 41.7203L26.4323 37.4597L19.6269 35.0234L17.4141 38.1849L22.9303 41.7203Z" fill="#6A0DAD"/>
<path fill-rule="evenodd" clip-rule="evenodd" d="M32.3412 59.9815L30.1895 45.0972L31.1455 42.5063L32.1116 43.6817L39.0719 39.2207C40.3747 39.7286 41.6808 40.246 42.9879 40.7602V50.0692H33.3159V57.9746H35.7003V59.9815H32.3412Z" fill="#6A0DAD"/>
<path fill-rule="evenodd" clip-rule="evenodd" d="M32.4199 41.7203L28.918 37.4597L35.7234 35.0234L37.9362 38.1849L32.4199 41.7203Z" fill="#6A0DAD"/>
<path fill-rule="evenodd" clip-rule="evenodd" d="M27.6764 38.2773L30.0579 41.1748L28.9138 44.2753H26.439L25.2949 41.1748L27.6764 38.2773Z" fill="#6A0DAD"/>
<path fill-rule="evenodd" clip-rule="evenodd" d="M28.7883 45.7598L30.8444 59.9822H24.5078L26.5639 45.7598H28.7883Z" fill="#6A0DAD"/>
<path fill-rule="evenodd" clip-rule="evenodd" d="M23.01 59.9815L25.1618 45.0972L24.2058 42.5063L23.2397 43.6817L16.2794 39.2207C13.3567 40.3601 10.4171 41.5473 7.48698 42.6399C7.01006 42.8402 6.62848 43.1598 6.35511 43.5609C5.9883 44.0989 5.91983 44.533 5.8441 45.1546L4.59766 59.9815H23.01Z" fill="#6A0DAD"/>
<path fill-rule="evenodd" clip-rule="evenodd" d="M61.7325 50.0692V38.1758H44.4727V50.0692H61.7325Z" fill="#6A0DAD"/>
<path fill-rule="evenodd" clip-rule="evenodd" d="M37.1836 57.9746V70.6061H69.0184V57.9746H37.1836ZM47.451 61.9485C47.9956 61.3113 48.756 60.917 49.6031 60.917C50.4502 60.917 51.2107 61.3113 51.7552 61.9485C52.2731 62.5547 52.5935 63.3832 52.5935 64.2903C52.5935 65.1974 52.2731 66.0258 51.7552 66.632C51.2107 67.2693 50.4502 67.6636 49.6031 67.6636C48.756 67.6636 47.9956 67.2693 47.451 66.632C46.9332 66.0259 46.6128 65.1974 46.6128 64.2903C46.6128 63.3831 46.9331 62.5547 47.451 61.9485ZM49.6031 62.4014C49.2086 62.4014 48.8449 62.5962 48.5759 62.9111C48.2801 63.2571 48.0972 63.7443 48.0972 64.2903C48.0972 64.8362 48.2801 65.3234 48.5759 65.6695C48.8449 65.9843 49.2086 66.1792 49.6031 66.1792C49.9976 66.1792 50.3613 65.9843 50.6304 65.6695C50.9261 65.3234 51.109 64.8362 51.109 64.2903C51.109 63.7443 50.9261 63.2571 50.6304 62.9111C50.3613 62.5962 49.9976 62.4014 49.6031 62.4014ZM45.944 61.9491C46.1041 61.5728 45.9289 61.138 45.5526 60.9778C45.1764 60.8177 44.7415 60.993 44.5814 61.3692L43.0177 65.0346L41.4539 61.3692C41.2938 60.993 40.8589 60.8177 40.4827 60.9778C40.1064 61.138 39.9312 61.5728 40.0913 61.9491L42.3168 67.1653C42.3831 67.3558 42.5263 67.5187 42.7264 67.6041C43.1034 67.7649 43.5395 67.5897 43.7003 67.2127L45.944 61.9491ZM55.4463 62.4014V66.9214C55.4463 67.3313 55.7786 67.6636 56.1885 67.6636C56.5984 67.6636 56.9307 67.3313 56.9307 66.9214V62.4014H58.4335C58.8434 62.4014 59.1758 62.069 59.1758 61.6591C59.1758 61.2492 58.8434 60.9169 58.4335 60.9169H56.1885H53.9435C53.5336 60.9169 53.2013 61.2492 53.2013 61.6591C53.2013 62.069 53.5336 62.4014 53.9435 62.4014H55.4463ZM61.6815 65.0325H65.4293C65.8392 65.0325 66.1716 64.7002 66.1716 64.2903C66.1716 63.8804 65.8392 63.5481 65.4293 63.5481H61.6815V62.4014H65.4293C65.8392 62.4014 66.1716 62.069 66.1716 61.6591C66.1716 61.2492 65.8392 60.9169 65.4293 60.9169H60.9393C60.5294 60.9169 60.1971 61.2492 60.1971 61.6591V64.2903V66.9213C60.1971 67.3312 60.5294 67.6635 60.9393 67.6635H65.4293C65.8392 67.6635 66.1716 67.3312 66.1716 66.9213C66.1716 66.5114 65.8392 66.1791 65.4293 66.1791H61.6815V65.0325Z" fill="#6A0DAD"/>
<path fill-rule="evenodd" clip-rule="evenodd" d="M34.8008 51.5547H71.4046V56.4913H34.8008V51.5547Z" fill="#6A0DAD"/>
</svg>
