<svg width="71" height="71" viewBox="0 0 71 71" fill="none" xmlns="http://www.w3.org/2000/svg">
<path d="M49.9219 6.00195V13.3127H57.2327L49.9219 6.00195Z" fill="#6A0DAD"/>
<path d="M48.8125 59.9062H64.3438V62.125H48.8125V59.9062Z" fill="#6A0DAD"/>
<path d="M57.6876 32.1719V31.0625H55.4688V32.1719C55.4688 32.4661 55.3519 32.7483 55.1439 32.9563C54.9359 33.1644 54.6537 33.2812 54.3595 33.2812H49.922C49.6277 33.2812 49.3456 33.1644 49.1375 32.9563C48.9295 32.7483 48.8126 32.4661 48.8126 32.1719V31.0625H46.8379L47.7254 35.5H51.0313V37.7188H48.1691L48.6129 39.9375H64.5435L64.9873 37.7188H53.2501V35.5H65.431L66.3185 31.0625H64.3438V32.1719C64.3438 32.4661 64.2269 32.7483 64.0189 32.9563C63.8109 33.1644 63.5287 33.2812 63.2345 33.2812H58.797C58.5027 33.2812 58.2206 33.1644 58.0125 32.9563C57.8045 32.7483 57.6876 32.4661 57.6876 32.1719Z" fill="#6A0DAD"/>
<path d="M46.5938 64.3438H66.5625V66.5625H46.5938V64.3438Z" fill="#6A0DAD"/>
<path d="M52.0739 42.1562L51.0977 57.6875H62.0583L61.082 42.1562H52.0739Z" fill="#6A0DAD"/>
<path d="M39.9375 16.6406H4.4375V21.0781H39.9375V16.6406ZM8.875 19.9688H6.65625V17.75H8.875V19.9688ZM13.3125 19.9688H11.0938V17.75H13.3125V19.9688ZM17.75 19.9688H15.5312V17.75H17.75V19.9688Z" fill="#6A0DAD"/>
<path d="M21.0781 33.2812H23.2969V42.1562H21.0781V33.2812Z" fill="#6A0DAD"/>
<path d="M13.3125 36.6094H15.5312V42.1562H13.3125V36.6094Z" fill="#6A0DAD"/>
<path d="M28.8438 28.8438H31.0625V42.1562H28.8438V28.8438Z" fill="#6A0DAD"/>
<path d="M39.9375 23.2969H4.4375V47.7031H39.9375V23.2969ZM35.5 44.375H8.875V42.1562H11.0938V35.5C11.0938 35.2058 11.2106 34.9236 11.4187 34.7156C11.6267 34.5075 11.9089 34.3906 12.2031 34.3906H16.6406C16.9348 34.3906 17.217 34.5075 17.4251 34.7156C17.6331 34.9236 17.75 35.2058 17.75 35.5V42.1562H18.8594V32.1719C18.8594 31.8777 18.9763 31.5955 19.1843 31.3874C19.3924 31.1794 19.6745 31.0625 19.9688 31.0625H24.4062C24.7005 31.0625 24.9826 31.1794 25.1907 31.3874C25.3987 31.5955 25.5156 31.8777 25.5156 32.1719V42.1562H26.625V27.7344C26.625 27.4402 26.7419 27.158 26.9499 26.9499C27.158 26.7419 27.4402 26.625 27.7344 26.625H32.1719C32.4661 26.625 32.7483 26.7419 32.9563 26.9499C33.1644 27.158 33.2812 27.4402 33.2812 27.7344V42.1562H35.5V44.375Z" fill="#6A0DAD"/>
<path d="M46.5938 58.7969C46.5938 58.5027 46.7106 58.2205 46.9187 58.0124C47.1267 57.8044 47.4089 57.6875 47.7031 57.6875H48.8791L49.8553 42.1562H47.7031C47.4474 42.1563 47.1995 42.068 47.0014 41.9063C46.8032 41.7445 46.6671 41.5193 46.6159 41.2687L44.3972 30.175C44.3646 30.0139 44.3687 29.8475 44.409 29.6881C44.4493 29.5288 44.5249 29.3805 44.6302 29.2542C44.7318 29.1252 44.8616 29.0211 45.0097 28.95C45.1578 28.8789 45.3201 28.8425 45.4844 28.8438H49.9219C50.2161 28.8438 50.4983 28.9606 50.7063 29.1687C50.9144 29.3767 51.0312 29.6589 51.0312 29.9531V31.0625H53.25V29.9531C53.25 29.6589 53.3669 29.3767 53.5749 29.1687C53.783 28.9606 54.0652 28.8438 54.3594 28.8438H58.7969V15.5312H48.8125C48.5183 15.5312 48.2361 15.4144 48.0281 15.2063C47.82 14.9983 47.7031 14.7161 47.7031 14.4219V4.4375H12.2031V14.4219H41.0469C41.3411 14.4219 41.6233 14.5388 41.8313 14.7468C42.0394 14.9549 42.1562 15.237 42.1562 15.5312V48.8125C42.1562 49.1067 42.0394 49.3889 41.8313 49.5969C41.6233 49.805 41.3411 49.9219 41.0469 49.9219H12.2031V61.0156H46.5938V58.7969Z" fill="#6A0DAD"/>
</svg>
