<svg width="68" height="68" viewBox="0 0 68 68" fill="none" xmlns="http://www.w3.org/2000/svg">
<path d="M48.532 8.46076C48.6938 8.47945 48.8577 8.46385 49.0131 8.41498C49.1684 8.36611 49.3118 8.28507 49.4338 8.17712C49.5557 8.06918 49.6536 7.93676 49.721 7.78848C49.7884 7.6402 49.8238 7.47939 49.8249 7.31651V5.39423C49.824 5.09104 49.7032 4.80052 49.4888 4.58612C49.2744 4.37173 48.9839 4.25089 48.6807 4.25H9.28487C8.98167 4.25088 8.69114 4.37171 8.47675 4.58611C8.26235 4.8005 8.14151 5.09103 8.14063 5.39423V7.31653C8.14011 7.46694 8.16934 7.61597 8.22666 7.75504C8.28398 7.8941 8.36824 8.02045 8.4746 8.1268C8.58096 8.23316 8.7073 8.31742 8.84637 8.37474C8.98543 8.43205 9.13446 8.46129 9.28487 8.46076H48.532Z" fill="#6A0DAD"/>
<path d="M40.8203 27.9012C40.8298 29.0662 41.1125 30.2127 41.6458 31.2485C42.179 32.2843 42.948 33.1805 43.8907 33.865C44.8334 34.5494 45.9236 35.0031 47.0736 35.1895C48.2236 35.3759 49.4013 35.2898 50.512 34.9382C58.4173 32.2872 56.6713 20.6282 48.2348 20.498C46.2705 20.4989 44.3868 21.2788 42.9969 22.6666C41.6069 24.0545 40.8241 25.937 40.8203 27.9012Z" fill="#6A0DAD"/>
<path d="M47.2051 37.5938H49.7912V40.9916H47.2051V37.5938Z" fill="#6A0DAD"/>
<path d="M49.2292 43.2793H47.6387L48.3484 45.4415L49.2292 43.2793Z" fill="#6A0DAD"/>
<path d="M52.2042 37.5927H52.0784V42.1352C52.0806 42.2889 52.0494 42.4412 51.9868 42.5815L49.2979 49.1951C49.205 49.4081 49.0501 49.5881 48.8533 49.7118C48.6566 49.8354 48.4272 49.8969 48.195 49.8883C47.9628 49.8796 47.7386 49.8012 47.5516 49.6633C47.3646 49.5253 47.2235 49.3342 47.1467 49.115L45.007 42.5815L44.9727 42.4899C44.8566 42.6163 44.9389 37.669 44.9155 37.5927C43.9001 37.5775 42.8918 37.7641 41.9491 38.1419C41.0065 38.5196 40.1483 39.0809 39.4244 39.7931C38.7005 40.5053 38.1253 41.3542 37.7323 42.2906C37.3392 43.2269 37.1361 44.232 37.1348 45.2475V63.7498H59.8591V45.2475C59.8573 43.2179 59.0502 41.2719 57.615 39.8368C56.1798 38.4016 54.2339 37.5945 52.2042 37.5927Z" fill="#6A0DAD"/>
<path d="M42.3528 35.6141C35.4692 30.4839 38.519 19.2074 47.0901 18.2791L47.0899 10.75H10.875V63.7508H34.8466V45.2485C34.8499 43.037 35.5895 40.8895 36.9486 39.145C38.3078 37.4004 40.2092 36.1581 42.3528 35.6141ZM14.8112 52.3657H19.6284C19.9284 52.371 20.2142 52.4939 20.4244 52.7079C20.6347 52.9219 20.7525 53.2099 20.7525 53.5099C20.7525 53.8099 20.6346 54.0979 20.4244 54.3119C20.2142 54.5259 19.9283 54.6488 19.6284 54.6541H14.8112C14.5101 54.6504 14.2227 54.5283 14.0111 54.3141C13.7995 54.0999 13.6808 53.811 13.6808 53.5099C13.6808 53.2088 13.7995 52.9199 14.0111 52.7057C14.2227 52.4915 14.5101 52.3693 14.8112 52.3657ZM24.4457 59.54H14.8112C14.5101 59.5363 14.2227 59.4142 14.0111 59.2C13.7995 58.9858 13.6808 58.6969 13.6808 58.3958C13.6808 58.0947 13.7995 57.8058 14.0111 57.5916C14.2227 57.3774 14.5101 57.2552 14.8112 57.2516H24.4456C24.7454 57.257 25.0312 57.38 25.2413 57.594C25.4514 57.808 25.5691 58.0959 25.5691 58.3958C25.5691 58.6957 25.4514 58.9836 25.2413 59.1976C25.0312 59.4116 24.7455 59.5345 24.4457 59.54ZM29.6404 35.9002V38.9095C29.6223 40.2753 29.067 41.5791 28.0948 42.5385C27.1225 43.498 25.8116 44.0359 24.4456 44.0359C23.0797 44.0359 21.7687 43.498 20.7964 42.5385C19.8242 41.5791 19.2689 40.2753 19.2508 38.9095V35.9002C11.2456 30.8021 14.9346 18.1985 24.4459 18.2105C33.9742 18.1998 37.6617 30.808 29.6404 35.9002ZM32.9244 15.6015C32.6245 15.596 32.3388 15.4731 32.1287 15.2591C31.9186 15.0451 31.8009 14.7572 31.8009 14.4573C31.8009 14.1574 31.9186 13.8695 32.1288 13.6555C32.3389 13.4415 32.6246 13.3185 32.9244 13.3131H41.9981C42.2992 13.3166 42.5868 13.4387 42.7985 13.6529C43.0102 13.8671 43.1289 14.1561 43.1289 14.4573C43.1289 14.7585 43.0102 15.0475 42.7985 15.2617C42.5868 15.4759 42.2992 15.598 41.9981 15.6015L32.9244 15.6015Z" fill="#6A0DAD"/>
<path d="M21.5391 38.908C21.6259 42.6632 27.2704 42.6724 27.3518 38.9079V36.3906H21.5391V38.908Z" fill="#6A0DAD"/>
<path d="M24.4449 20.4981C17.0706 20.4929 14.3556 30.3636 20.7034 34.1029H23.3007V29.7777C23.306 29.4778 23.429 29.1919 23.643 28.9817C23.857 28.7715 24.145 28.6537 24.445 28.6537C24.745 28.6537 25.033 28.7715 25.247 28.9818C25.461 29.192 25.5838 29.4779 25.5892 29.7778V34.1029H28.1865C34.5584 30.3665 31.8225 20.4913 24.4449 20.4981Z" fill="#6A0DAD"/>
</svg>
