<svg width="76" height="76" viewBox="0 0 76 76" fill="none" xmlns="http://www.w3.org/2000/svg">
<path d="M27.2422 33.0362C27.2418 33.3411 27.3587 33.6345 27.5688 33.8556C27.7788 34.0767 28.0658 34.2085 28.3703 34.2237C31.9328 34.2237 33.8447 32.8343 34.8066 31.5281C37.9059 34.4375 44.4372 34.4375 47.9403 34.1881C48.23 34.1531 48.4966 34.0127 48.6893 33.7937C48.8821 33.5746 48.9874 33.2923 48.9853 33.0006V29.9131C48.72 27.3562 47.5738 24.9712 45.7432 23.1665C43.9125 21.3619 41.5113 20.2499 38.9509 20.0212C33.0134 19.6531 31.0541 23.1325 30.4484 24.7712C29.5384 24.9739 28.7247 25.4809 28.1418 26.2085C27.5588 26.9361 27.2415 27.8408 27.2422 28.7731V33.0362Z" fill="#6A0DAD"/>
<path d="M47.2854 38.226V35.3879C46.7866 35.3879 46.0979 35.4473 45.231 35.4473C42.2029 35.4473 37.8685 35.0673 34.9473 33.0723C33.2264 34.5821 31.0017 35.3915 28.7129 35.3404V39.1166C29.7808 41.5579 31.4722 43.6752 33.6173 45.256C35.0304 46.4435 37.6429 46.1823 39.4004 46.206C40.5902 46.2217 41.7441 45.799 42.6423 45.0185C47.0241 41.1591 47.3329 38.9385 47.2854 38.226ZM35.7073 38.226C36.0222 38.226 36.3243 38.3511 36.547 38.5738C36.7697 38.7965 36.8948 39.0986 36.8948 39.4135C37.2032 39.7041 37.611 39.8659 38.0348 39.8659C38.4585 39.8659 38.8663 39.7041 39.1748 39.4135C39.2431 39.162 39.3924 38.9399 39.5995 38.7815C39.8066 38.6232 40.06 38.5374 40.3207 38.5374C40.5814 38.5374 40.8348 38.6232 41.0419 38.7815C41.249 38.9399 41.3983 39.162 41.4666 39.4135C41.4666 42.976 34.6623 42.976 34.6029 39.4135C34.5866 39.1023 34.6932 38.7972 34.8998 38.564C35.1064 38.3307 35.3964 38.188 35.7073 38.1666V38.226Z" fill="#6A0DAD"/>
<path d="M26.2548 33.8789C25.8998 34.7023 25.837 35.6222 26.0767 36.4862C26.3165 37.3502 26.8444 38.1062 27.5729 38.6289V35.197C27.272 35.0839 26.9987 34.9078 26.7714 34.6805C26.5441 34.4531 26.3679 34.1798 26.2548 33.8789Z" fill="#6A0DAD"/>
<path d="M48.4258 38.202C48.4371 38.3681 48.4371 38.5347 48.4258 38.7008C49.1379 38.2054 49.6662 37.4884 49.9282 36.6614C50.1903 35.8344 50.1714 34.944 49.8745 34.1289C49.7336 34.4136 49.5353 34.666 49.2921 34.8704C49.0489 35.0747 48.7661 35.2266 48.4614 35.3164L48.4258 38.202Z" fill="#6A0DAD"/>
<path d="M29.0335 58.306C28.755 57.9547 28.5947 57.5244 28.5755 57.0765C28.5563 56.6286 28.6792 56.1861 28.9266 55.8123L29.6272 54.8385C29.9835 54.3991 29.5679 53.8529 29.2947 53.4966C29.0693 53.1645 28.942 52.7756 28.9273 52.3745C28.9126 51.9734 29.0111 51.5762 29.2116 51.2285C29.4016 50.9079 31.2304 47.9391 31.361 47.666C31.1933 47.7095 31.0303 47.7692 30.8741 47.8441L23.286 51.8816C22.8953 52.0829 22.5541 52.3684 22.2872 52.7175C22.0202 53.0666 21.8341 53.4706 21.7422 53.9004L19.961 61.7498C19.857 62.187 19.8968 62.6461 20.0743 63.0589C20.2519 63.4717 20.5577 63.8164 20.9466 64.0416C25.6085 66.5448 30.797 67.9081 36.0872 68.0198L36.5029 67.5448L34.9947 65.6923L29.0335 58.306Z" fill="#6A0DAD"/>
<path d="M54.257 53.9C54.1629 53.4711 53.9758 53.0681 53.7091 52.7194C53.4424 52.3706 53.1025 52.0845 52.7133 51.8812L45.1252 47.8319C44.4245 47.4994 44.8045 47.8319 44.9945 48.2119L46.8114 51.1925C47.0399 51.6344 47.1238 52.1369 47.0514 52.6291C46.9789 53.1213 46.7538 53.5783 46.4077 53.9356C45.9327 54.5412 46.7877 55.2894 47.0845 55.7644C47.3492 56.1371 47.4843 56.5862 47.4693 57.0431C47.4543 57.4999 47.2899 57.9392 47.0014 58.2937C45.8852 59.6831 40.4939 66.3687 39.4727 67.6156L39.8052 68.0312C45.1183 67.9588 50.3374 66.6194 55.0289 64.1244C55.438 63.8973 55.7601 63.541 55.945 63.1112C56.1298 62.6814 56.1668 62.2024 56.0502 61.7494L54.257 53.9Z" fill="#6A0DAD"/>
<path d="M45.125 57L44.5312 56.1687C44.1208 55.5853 43.9208 54.8798 43.964 54.1678C44.0071 53.4558 44.2909 52.7796 44.7688 52.25C44.1038 51.1337 43.0588 49.5187 42.4769 48.3906C42.2564 48.675 42.1095 49.0095 42.0494 49.3644C41.6694 51.8937 40.5175 57.8906 38 62.0469C35.8506 58.5912 34.4375 52.5469 33.9506 49.3525C33.8907 49.0163 33.7524 48.699 33.5469 48.4262C33.4637 48.545 33.0837 49.2219 33.0244 49.3406C32.6325 50.0294 31.6587 51.5731 31.255 52.25C31.7165 52.7761 31.9903 53.4406 32.0333 54.1391C32.0763 54.8376 31.886 55.5307 31.4925 56.1094L30.875 57C32.205 58.6269 36.7413 64.2556 38 65.7875L45.125 57Z" fill="#6A0DAD"/>
<path d="M39.4021 47.3453H36.5403C36.089 47.4284 35.5071 47.0365 35.2459 47.4997C35.0538 47.7345 34.9347 48.0204 34.903 48.3221C34.8714 48.6238 34.9286 48.9282 35.0678 49.1978C35.5361 52.2143 36.2997 55.1775 37.3478 58.0447C37.5496 58.6028 37.7753 59.1253 38.0009 59.624C38.5669 58.3893 39.0431 57.1154 39.4259 55.8122C40.0857 53.6421 40.5897 51.4277 40.934 49.1859C41.1121 48.509 41.2665 48.1053 40.744 47.4878C40.4709 47.0128 39.8771 47.4284 39.4021 47.3453Z" fill="#6A0DAD"/>
<path d="M68.2689 15.3314H67.9839C67.8615 14.9221 67.7025 14.5247 67.5089 14.1439C67.7305 13.9695 67.9104 13.7479 68.0357 13.4952C68.161 13.2426 68.2285 12.9652 68.2333 12.6833C68.3164 11.7214 67.1645 10.9258 66.6064 10.3083C66.4398 10.141 66.2418 10.0082 66.0237 9.91761C65.8057 9.82702 65.5719 9.78039 65.3358 9.78039C65.0997 9.78039 64.8659 9.82702 64.6478 9.91761C64.4298 10.0082 64.2318 10.141 64.0652 10.3083L63.8633 10.5102C63.4819 10.3115 63.0847 10.1446 62.6758 10.0114C62.7076 9.75599 62.6851 9.49673 62.6097 9.25061C62.5344 9.00448 62.408 8.77702 62.2388 8.58311C62.0695 8.38919 61.8612 8.23319 61.6276 8.1253C61.3939 8.01742 61.14 7.96008 60.8827 7.95703H59.3745C59.116 7.95988 58.8611 8.0175 58.6264 8.1261C58.3918 8.2347 58.1829 8.39181 58.0135 8.58706C57.844 8.78231 57.7179 9.01127 57.6434 9.25884C57.569 9.50641 57.5478 9.76695 57.5814 10.0233C57.1717 10.1495 56.7743 10.3125 56.3939 10.5102L56.192 10.3083C56.0254 10.141 55.8274 10.0082 55.6094 9.91761C55.3913 9.82702 55.1575 9.78039 54.9214 9.78039C54.6853 9.78039 54.4515 9.82702 54.2334 9.91761C54.0154 10.0082 53.8174 10.141 53.6508 10.3083L52.5702 11.4127C52.4028 11.5793 52.2701 11.7773 52.1795 11.9953C52.0889 12.2134 52.0423 12.4472 52.0423 12.6833C52.0423 12.9194 52.0889 13.1532 52.1795 13.3712C52.2701 13.5893 52.4028 13.7873 52.5702 13.9539L52.7602 14.1439C52.5665 14.5247 52.4076 14.9221 52.2852 15.3314C52.0279 15.296 51.7661 15.3157 51.5171 15.3894C51.2681 15.463 51.0376 15.5889 50.841 15.7585C50.6444 15.9281 50.4862 16.1377 50.3769 16.3732C50.2676 16.6088 50.2097 16.8649 50.207 17.1245V18.6802C50.2122 18.9363 50.2705 19.1885 50.3782 19.4209C50.4858 19.6534 50.6405 19.861 50.8324 20.0306C51.0244 20.2002 51.2494 20.3282 51.4933 20.4064C51.7372 20.4847 51.9947 20.5115 52.2495 20.4852C52.3791 20.8919 52.5378 21.2888 52.7245 21.6727L52.5464 21.8627C52.3791 22.0293 52.2463 22.2273 52.1557 22.4453C52.0651 22.6634 52.0185 22.8972 52.0185 23.1333C52.0185 23.3694 52.0651 23.6032 52.1557 23.8212C52.2463 24.0393 52.3791 24.2373 52.5464 24.4039L53.6389 25.5083C53.8055 25.6756 54.0035 25.8084 54.2216 25.899C54.4396 25.9895 54.6734 26.0362 54.9095 26.0362C55.1457 26.0362 55.3794 25.9895 55.5975 25.899C55.8155 25.8084 56.0136 25.6756 56.1802 25.5083L56.382 25.3183C56.7626 25.5123 57.1601 25.6713 57.5695 25.7933C57.5396 26.0493 57.5637 26.3089 57.6405 26.555C57.7172 26.8011 57.8448 27.0284 58.015 27.2221C58.1851 27.4157 58.3941 27.5715 58.6283 27.6793C58.8625 27.7871 59.1167 27.8444 59.3745 27.8477H60.942C61.198 27.8383 61.4493 27.7755 61.6796 27.6634C61.91 27.5514 62.1144 27.3925 62.2799 27.1969C62.4453 27.0012 62.5681 26.7733 62.6403 26.5275C62.7126 26.2817 62.7328 26.0235 62.6995 25.7695C63.1078 25.6444 63.505 25.4855 63.887 25.2945C64.0459 25.5 64.2464 25.6695 64.4755 25.7919C64.7045 25.9144 64.9569 25.9869 65.216 26.0049C65.4751 26.0228 65.735 25.9857 65.9788 25.8961C66.2225 25.8064 66.4445 25.6661 66.6302 25.4845L67.7108 24.3802C67.8781 24.2136 68.0109 24.0155 68.1015 23.7975C68.192 23.5794 68.2387 23.3456 68.2387 23.1095C68.2387 22.8734 68.192 22.6396 68.1015 22.4216C68.0109 22.2035 67.8781 22.0055 67.7108 21.8389L67.5208 21.6489C67.7127 21.2673 67.8716 20.8701 67.9958 20.4614H68.2808C68.7513 20.4553 69.2008 20.2656 69.5335 19.9329C69.8662 19.6002 70.0559 19.1507 70.062 18.6802V17.1245C70.0589 16.6499 69.869 16.1956 69.5334 15.86C69.1978 15.5244 68.7435 15.3345 68.2689 15.3314ZM56.1208 17.9083C56.1208 16.8469 56.5424 15.829 57.2929 15.0785C58.0434 14.328 59.0613 13.9064 60.1227 13.9064C61.184 13.9064 62.2019 14.328 62.9524 15.0785C63.7029 15.829 64.1245 16.8469 64.1245 17.9083C64.1245 18.9696 63.7029 19.9875 62.9524 20.738C62.2019 21.4885 61.184 21.9102 60.1227 21.9102C59.0613 21.9102 58.0434 21.4885 57.2929 20.738C56.5424 19.9875 56.1208 18.9696 56.1208 17.9083Z" fill="#6A0DAD"/>
<path d="M60.1223 16.1973C59.6949 16.233 59.2966 16.428 59.0062 16.7436C58.7158 17.0592 58.5547 17.4725 58.5547 17.9013C58.5547 18.3302 58.7158 18.7434 59.0062 19.059C59.2966 19.3747 59.6949 19.5697 60.1223 19.6054C60.5497 19.5697 60.9481 19.3747 61.2384 19.059C61.5288 18.7434 61.6899 18.3302 61.6899 17.9013C61.6899 17.4725 61.5288 17.0592 61.2384 16.7436C60.9481 16.428 60.5497 16.233 60.1223 16.1973Z" fill="#6A0DAD"/>
<path d="M27.3125 23.0378V9.17969C27.3125 8.86474 27.1874 8.5627 26.9647 8.34C26.742 8.1173 26.4399 7.99219 26.125 7.99219H17.8125V24.1422H26.2438C26.5239 24.1146 26.7851 23.9885 26.9809 23.7862C27.1766 23.5839 27.2941 23.3187 27.3125 23.0378ZM19.1306 16.9222V15.2953H23.4531V16.9222H19.1306ZM23.4531 18.4303V20.0572H19.1781V18.4303H23.4531ZM19.1306 13.7872V12.1722H23.4531V13.7872H19.1306Z" fill="#6A0DAD"/>
<path d="M15.4969 21.8855V8.02734H7.125C6.81006 8.02734 6.50801 8.15245 6.28531 8.37515C6.06261 8.59785 5.9375 8.8999 5.9375 9.21484V23.0373C5.9375 23.3523 6.06261 23.6543 6.28531 23.877C6.50801 24.0997 6.81006 24.2248 7.125 24.2248H15.5444L15.4969 21.8855ZM14.0125 15.2948V16.9217H9.67812V15.2948H14.0125ZM9.67812 13.7867V12.1717H14.0125V13.7867H9.67812ZM14.0125 18.4298V20.0567H9.67812V18.4298H14.0125Z" fill="#6A0DAD"/>
<path d="M21.9924 50.2673C22.2168 50.247 22.4308 50.1632 22.6094 50.0259C22.788 49.8885 22.9238 49.7031 23.001 49.4915C23.0782 49.2798 23.0936 49.0505 23.0454 48.8304C22.9971 48.6103 22.8873 48.4085 22.7287 48.2485C20.3686 46.232 18.4415 43.7581 17.0639 40.9763C15.6862 38.1945 14.8865 35.1623 14.713 32.0629H16.2212L13.5374 27.4316L10.8418 32.0629H12.433C12.433 32.0629 12.433 32.0629 12.433 32.1341C12.6226 35.5468 13.5035 38.8853 15.0222 41.9472C16.5409 45.0092 18.6658 47.7307 21.268 49.9466C21.4609 50.1404 21.7194 50.2548 21.9924 50.2673Z" fill="#6A0DAD"/>
<path d="M66.1667 29.0821C66.0728 28.8388 65.9013 28.6331 65.6789 28.497C65.4564 28.3608 65.1953 28.3016 64.9359 28.3287C64.6764 28.3557 64.4331 28.4674 64.2435 28.6465C64.0539 28.8256 63.9285 29.0621 63.8867 29.3196C64.2026 32.4026 63.891 35.5176 62.9705 38.4769C62.0501 41.4362 60.5399 44.1785 58.5311 46.5384L57.4386 45.5052L56.168 50.7302L61.3336 49.2221L60.1461 48.1177C62.3887 45.5193 64.079 42.4917 65.114 39.2191C66.1491 35.9465 66.5072 32.4975 66.1667 29.0821Z" fill="#6A0DAD"/>
<path d="M30.5541 18.1575C33.8197 16.6969 37.1091 15.2481 40.7785 15.1412V16.6256L45.4453 13.93L40.7785 11.2344V12.8612H40.7072C36.9486 13.084 33.2917 14.1689 30.0197 16.0319C29.832 16.1721 29.69 16.3648 29.6115 16.5856C29.5331 16.8064 29.5217 17.0454 29.5788 17.2727C29.6359 17.4999 29.759 17.7052 29.9326 17.8627C30.1061 18.0201 30.3224 18.1227 30.5541 18.1575Z" fill="#6A0DAD"/>
</svg>
