<svg width="64" height="64" viewBox="0 0 64 64" fill="none" xmlns="http://www.w3.org/2000/svg">
<path fill-rule="evenodd" clip-rule="evenodd" d="M26.6966 34.9697C28.1857 35.1075 29.3616 36.3692 29.3616 37.8928C29.3616 39.5075 28.0399 40.8285 26.426 40.8285H26.3359C27.6822 41.1192 28.6981 42.3225 28.6981 43.7525C28.6981 45.3742 27.3874 46.7107 25.7656 46.7415C26.667 47.1847 27.2906 48.1125 27.2906 49.1797C27.2906 50.6726 26.0698 51.8935 24.5774 51.8935H24.1369C24.7841 52.3782 25.2051 53.151 25.2051 54.0167C25.2051 55.4755 24.0124 56.6678 22.5545 56.6678C15.8505 56.6678 14.8689 56.668 10.2583 56.668C8.58875 56.668 8.05362 56.3045 6.62425 55.67V36.5195C7.959 36.0036 8.71587 34.4876 9.45562 33.2177C10.4372 31.5328 11.9364 30.3151 13.879 30.1425L15.6061 29.9891V35.011L26.6966 34.9697ZM34.1264 24.073H55.3628V28.3362C55.3628 29.6461 56.4269 30.7101 57.7366 30.7101H62V60.421C62 60.8328 61.664 61.1688 61.2521 61.1688H34.1264C33.7145 61.1688 33.3785 60.8328 33.3785 60.421V24.8208C33.3785 24.409 33.7145 24.073 34.1264 24.073ZM57.3628 24.1377V28.3361C57.3628 28.5421 57.5308 28.71 57.7366 28.71H61.9351C61.8989 28.6306 61.8475 28.5575 61.7809 28.491L57.5817 24.2918C57.5152 24.2255 57.4421 24.1741 57.3628 24.1377ZM37.5047 28.816C37.0922 28.816 36.7547 29.1535 36.7547 29.566V34.362C36.7547 34.7745 37.0921 35.112 37.5047 35.112H49.0199C49.4324 35.112 49.7699 34.7746 49.7699 34.362V29.5658C49.7699 29.1533 49.4324 28.8158 49.0199 28.8158L37.5047 28.816ZM37.7547 56.9421H57.6237C58.176 56.9421 58.6237 56.4943 58.6237 55.9421C58.6237 55.3898 58.176 54.9421 57.6237 54.9421H37.7547C37.2025 54.9421 36.7547 55.3898 36.7547 55.9421C36.7547 56.4943 37.2025 56.9421 37.7547 56.9421ZM37.7547 40.9566H57.6237C58.176 40.9566 58.6237 40.5088 58.6237 39.9566C58.6237 39.4043 58.176 38.9566 57.6237 38.9566H37.7547C37.2025 38.9566 36.7547 39.4043 36.7547 39.9566C36.7547 40.5088 37.2025 40.9566 37.7547 40.9566ZM37.7547 46.2851H57.6237C58.176 46.2851 58.6237 45.8373 58.6237 45.2851C58.6237 44.7328 58.176 44.2851 57.6237 44.2851H37.7547C37.2025 44.2851 36.7547 44.7328 36.7547 45.2851C36.7547 45.8373 37.2025 46.2851 37.7547 46.2851ZM37.7547 51.6136H57.6237C58.176 51.6136 58.6237 51.1658 58.6237 50.6136C58.6237 50.0613 58.176 49.6136 57.6237 49.6136H37.7547C37.2025 49.6136 36.7547 50.0613 36.7547 50.6136C36.7547 51.1658 37.2025 51.6136 37.7547 51.6136ZM14.3597 25.0763H27.943C28.7429 25.0763 29.3974 24.4218 29.3974 23.622V14.5728C29.3974 13.773 28.7429 13.1186 27.943 13.1186H14.3597C13.5599 13.1186 12.9054 13.7731 12.9054 14.5728V23.622C12.9054 24.422 13.5599 25.0763 14.3597 25.0763ZM17.1866 16.8998H25.1161C25.3911 16.8998 25.6161 17.1248 25.6161 17.3998V20.7951C25.6161 21.0701 25.3911 21.2951 25.1161 21.2951H17.1866C16.9116 21.2951 16.6866 21.0701 16.6866 20.7951V17.3998C16.6866 17.1248 16.9116 16.8998 17.1866 16.8998ZM27.9947 11.1192V9.67345C27.9947 5.90958 24.9152 2.83008 21.1514 2.83008C17.3876 2.83008 14.3081 5.90958 14.3081 9.67345V11.1193L27.9947 11.1192ZM24.6966 32.9772V27.0763H17.6061V33.0036L24.6966 32.9772ZM4.62437 55.4633H2V36.7017H4.62437V55.4633Z" fill="#6A0DAD"/>
</svg>
