<svg width="75" height="75" viewBox="0 0 75 75" fill="none" xmlns="http://www.w3.org/2000/svg">
<path d="M37.4995 25.9003H37.5995C38.4995 25.9003 39.3495 25.6003 40.0495 25.1003C40.7495 24.6003 41.2995 23.9003 41.5995 23.0503C42.2995 21.1003 41.4495 18.8503 39.6495 17.8503C38.0995 16.9503 36.0495 17.1503 34.6995 18.3503C33.3495 19.5503 32.8495 21.5003 33.4995 23.2003C34.1495 24.8003 35.7495 25.9003 37.4995 25.9003Z" fill="#6A0DAD"/>
<path d="M58.9492 46.0492C57.7492 41.9992 49.5492 38.7492 45.4992 37.1492L40.5992 59.7992L39.6992 41.6492L43.4492 36.1992C41.5992 36.8992 39.5992 37.2992 37.4992 37.2992C35.3992 37.2992 33.3992 36.8992 31.5492 36.1992L35.2992 41.6492L34.3992 59.7992L29.4992 37.1492C25.4492 38.7492 17.2992 41.9992 16.0492 46.0992C15.6492 47.4492 15.4492 48.7992 15.4492 50.1992V67.4992H33.9992H35.9992H38.9992H40.9992H59.5492V50.1992C59.5992 48.7992 59.3492 47.3992 58.9492 46.0492Z" fill="#6A0DAD"/>
<path d="M37.4988 35.7C45.4988 35.7 51.9988 29.4 51.9988 21.6C51.9988 13.8 45.4988 7.5 37.4988 7.5C29.4988 7.5 23.0488 13.8 23.0488 21.6C23.0488 29.4 29.4988 35.7 37.4988 35.7ZM29.0488 20.3C29.0488 20.25 29.0988 20.2 29.1488 20.2H29.8988C30.2488 20.2 30.5488 19.95 30.6488 19.65C30.7988 19.15 30.9988 18.65 31.2488 18.15C31.3988 17.85 31.3488 17.5 31.1488 17.25L30.5988 16.7C30.5488 16.65 30.5488 16.6 30.5988 16.55L32.4488 14.7C32.4988 14.65 32.5488 14.65 32.5988 14.7L33.1488 15.25C33.3988 15.5 33.7488 15.55 34.0488 15.35C34.5488 15.1 35.0488 14.9 35.5488 14.75C35.8488 14.65 36.0988 14.35 36.0988 14V13.25C36.0988 13.2 36.1488 13.15 36.1988 13.15H38.7988C38.8488 13.15 38.8988 13.2 38.8988 13.25V14C38.8988 14.35 39.1488 14.65 39.4488 14.75C39.9488 14.9 40.4488 15.1 40.9488 15.35C41.2488 15.5 41.5988 15.45 41.8488 15.25L42.3988 14.7C42.4488 14.65 42.4988 14.65 42.5488 14.7L44.3988 16.55C44.4488 16.6 44.4488 16.65 44.3988 16.7L43.8488 17.25C43.5988 17.5 43.5488 17.85 43.7488 18.15C43.9988 18.65 44.1988 19.15 44.3488 19.65C44.4488 20 44.7488 20.2 45.0988 20.2H45.8488C45.8988 20.2 45.9488 20.25 45.9488 20.3V22.9C45.9488 22.95 45.8988 23 45.8488 23H45.0988C44.7488 23 44.4488 23.25 44.3488 23.55C44.1988 24.05 43.9988 24.6 43.7488 25.05C43.5988 25.35 43.6488 25.7 43.8488 25.95L44.3988 26.5C44.4488 26.55 44.4488 26.6 44.3988 26.65L42.5488 28.5C42.4988 28.55 42.4488 28.55 42.3988 28.5L41.8488 27.95C41.5988 27.7 41.2488 27.65 40.9488 27.85C40.4988 28.1 39.9488 28.35 39.4488 28.45C39.0988 28.55 38.8988 28.85 38.8988 29.2V29.95C38.8988 30 38.8488 30.05 38.7988 30.05H36.1988C36.1488 30.05 36.0988 30 36.0988 29.95V29.2C36.0988 28.85 35.8488 28.55 35.5488 28.45C35.0488 28.3 34.5488 28.1 34.0488 27.85C33.9488 27.8 33.7988 27.75 33.6488 27.75C33.4488 27.75 33.2488 27.85 33.0988 27.95L32.5488 28.5C32.4988 28.55 32.4488 28.55 32.3988 28.5L30.5488 26.65C30.4988 26.6 30.4988 26.55 30.5488 26.5L31.0988 25.95C31.3488 25.7 31.3988 25.35 31.1988 25.05C30.9488 24.6 30.7488 24.05 30.5988 23.55C30.4988 23.25 30.1988 23 29.8488 23H29.0988C29.0488 23 28.9988 22.95 28.9988 22.9V20.3H29.0488Z" fill="#6A0DAD"/>
</svg>
