<svg width="87" height="87" viewBox="0 0 87 87" fill="none" xmlns="http://www.w3.org/2000/svg">
<path fill-rule="evenodd" clip-rule="evenodd" d="M31.7772 45.823C31.7772 43.9123 29.4565 42.9508 28.1054 44.3021C26.7543 45.6532 27.7157 47.9738 29.6264 47.9738C30.8143 47.974 31.7772 47.0112 31.7772 45.823ZM40.7615 13.5444L40.7613 8.29849C40.7613 7.80816 41.0462 7.42849 41.4667 7.23518C42.6588 6.70448 43.7543 6.47602 45.0308 6.64028C48.1765 7.04465 49.2617 9.43941 52.2239 9.78115C54.859 10.0853 56.3237 10.0879 58.0004 8.11667C58.8048 7.1708 60.3151 8.01053 59.977 9.17963L59.9784 9.17998C58.8721 13.0102 56.7721 15.8675 52.4628 16.2754C48.3996 16.6599 47.0744 14.5496 43.1877 15.4386C43.1169 15.4548 43.0682 15.516 43.0682 15.5886V19.2758C43.0682 19.3576 43.1319 19.4248 43.2135 19.4293C51.1616 19.866 58.1921 24.2997 62.1577 30.907C62.2193 31.0097 62.1456 31.14 62.0257 31.14H21.8038C21.684 31.14 21.6102 31.0097 21.6718 30.907C25.6376 24.2997 32.6677 19.866 40.616 19.4293C40.6976 19.4248 40.7613 19.3576 40.7613 19.2758L40.7615 13.5444ZM63.3189 33.0923C64.7215 36.1044 65.5055 39.457 65.5055 42.9842V57.8241C65.5055 57.8803 65.4778 57.9287 65.4291 57.9569L63.4295 59.1232C63.3267 59.1832 63.1983 59.1095 63.1983 58.9904V42.984C63.1983 40.3006 62.6944 37.7289 61.777 35.3586C61.7537 35.2982 61.6984 35.2603 61.6337 35.2603H22.196C22.1313 35.2603 22.076 35.2982 22.0527 35.3586C21.1353 37.729 20.6314 40.3006 20.6314 42.984V60.0997C20.6314 60.1844 20.5624 60.2535 20.4776 60.2535H18.478C18.3933 60.2535 18.3242 60.1844 18.3242 60.0997V42.984C18.3242 39.4568 19.1084 36.1042 20.5109 33.0921C20.5368 33.0366 20.589 33.0032 20.6502 33.0032H63.1793C63.2407 33.0034 63.2931 33.0368 63.3189 33.0923ZM21.543 80.2498V62.9549C21.543 62.8673 21.4673 62.7916 21.3798 62.7916H17.3138C17.2263 62.7916 17.1504 62.8673 17.1504 62.9549V80.2498C17.1504 80.3373 17.2263 80.413 17.3138 80.413H21.3798C21.4673 80.413 21.543 80.3371 21.543 80.2498ZM44.463 61.3756C43.8538 61.2451 43.665 61.2039 43.4769 61.1628C39.7333 60.3464 39.2487 60.2408 35.0437 62.2585C32.9724 63.2524 30.7878 64.3154 29.6405 64.5671C27.8079 64.9691 25.8831 65.1481 23.9971 65.2337C23.915 65.2376 23.8503 65.3051 23.8503 65.3874V77.1263C23.8503 77.2222 23.9357 77.294 24.0302 77.2778C30.6149 76.1446 37.2865 77.3986 44.0087 77.7852C47.6388 77.994 62.1118 68.8721 68.4564 65.1419C70.6406 63.8577 70.1649 60.668 67.6788 60.055C66.9518 59.8757 66.1563 59.9643 65.4681 60.3638L52.4741 67.9081L52.3154 67.9984C51.2923 68.9492 49.893 69.4461 48.4767 69.3323L38.0506 68.4947C37.416 68.4449 36.9418 67.89 36.9916 67.2554C37.0414 66.6209 37.5963 66.1467 38.2308 66.1965L48.6569 67.0341C49.5299 67.1042 50.3586 66.7722 50.9285 66.1347C51.115 65.9261 51.1561 66.0315 51.3233 65.5095C51.4253 65.1911 51.4369 65.008 51.4369 64.6855C51.4366 62.8562 46.155 61.7382 44.463 61.3756ZM54.2037 50.2809C52.368 50.2809 50.734 51.3642 49.9875 52.9982L49.9983 53.7003V60.4524C49.9983 60.5155 50.0341 60.5697 50.0924 60.5942C51.7839 61.3057 53.4979 62.4245 53.7196 64.2757C53.7328 64.3858 53.8536 64.4462 53.9495 64.3904L58.7564 61.5994C58.8051 61.571 58.833 61.5227 58.833 61.4665V54.9101C58.8328 52.3666 56.7474 50.2809 54.2037 50.2809ZM52.6826 44.3021C51.3315 45.653 52.2926 47.9738 54.2035 47.9738C56.1144 47.9738 57.0757 45.653 55.7244 44.3021C54.8847 43.4623 53.5225 43.4622 52.6826 44.3021ZM39.9305 44.7953C41.6896 46.5545 44.7212 45.3079 44.7212 42.8109C44.7212 40.3183 41.6938 39.0634 39.9306 40.8266C38.8346 41.9224 38.8348 43.6995 39.9305 44.7953ZM37.8364 49.6219C36.7889 50.6694 36.1388 52.1133 36.1388 53.7005V58.9936C36.1388 59.1039 36.2504 59.178 36.352 59.1354C39.3112 57.8955 40.3496 58.1218 43.9636 58.9099C45.1252 59.163 46.3145 59.414 47.4976 59.7308C47.5957 59.7571 47.691 59.6838 47.691 59.5822V53.7003C47.691 50.5286 45.1101 47.9334 41.8995 47.924C40.3183 47.9286 38.8804 48.5779 37.8364 49.6219ZM32.2492 51.0985C29.1874 48.9792 24.9971 51.2114 24.9971 54.9101V62.7107C24.9971 62.8005 25.0724 62.8705 25.1619 62.864C26.5024 62.768 27.8128 62.6082 29.1538 62.314C29.998 62.1289 31.8351 61.2498 33.7446 60.3334C33.7992 60.3071 33.8318 60.2552 33.8318 60.1947V53.7001L33.8424 52.9991C33.4919 52.2321 32.9374 51.5749 32.2492 51.0985Z" fill="#6A0DAD"/>
</svg>
