<svg width="64" height="64" viewBox="0 0 64 64" fill="none" xmlns="http://www.w3.org/2000/svg">
<g clip-path="url(#clip0_3758_507)">
<path d="M64.2251 38.3591C64.2251 38.3591 64.813 35.9326 62.7873 33.8404C60.7596 31.7422 58.2224 31.7422 58.2224 31.7422C58.2224 31.7422 57.6042 34.5955 59.5816 36.6374C61.561 38.6772 64.2251 38.3591 64.2251 38.3591Z" fill="#6A0DAD"/>
<path d="M36.1867 40.331V18.0781H30.9431C30.9008 18.9964 30.6833 19.7676 30.2867 20.3958C29.892 21.0241 29.3865 21.5275 28.7704 21.898C28.1502 22.2726 27.4595 22.5364 26.6903 22.6975C25.9231 22.8565 25.1357 22.927 24.3242 22.9069V27.5101H29.5376V40.331H36.1867Z" fill="#6A0DAD"/>
<path d="M15.8087 28.5852C15.6436 27.6791 15.5469 26.7508 15.5469 25.7963C15.5469 17.1819 22.5162 10.1723 31.1125 10.0978V10.1059C39.7269 10.1623 46.7163 17.1819 46.7163 25.8064C46.7163 26.7608 46.6176 27.6891 46.4545 28.5953H50.3952C50.5241 27.6811 50.6147 26.7568 50.6147 25.8064C50.6147 15.0434 41.8936 6.28196 31.1487 6.20544V6.19336C20.3857 6.24974 11.6465 15.0212 11.6465 25.7963C11.6465 26.7467 11.7371 27.671 11.868 28.5852H15.8087Z" fill="#6A0DAD"/>
<path d="M9.67171 37.9015C9.67171 37.9015 12.0257 36.6067 12.4445 33.7997C12.8634 30.9886 10.6987 29.0273 10.6987 29.0273C10.6987 29.0273 8.63871 30.5054 8.20778 33.3889C7.77888 36.2684 9.67171 37.9015 9.67171 37.9015Z" fill="#6A0DAD"/>
<path d="M11.2157 40.6769C11.1673 43.5886 13.2555 44.9599 13.2555 44.9599C13.2555 44.9599 15.4202 43.3691 15.4705 40.5299C15.5168 37.6906 13.1166 36.0273 13.1166 36.0273C13.1166 36.0273 11.264 37.7591 11.2157 40.6769Z" fill="#6A0DAD"/>
<path d="M17.6072 40.1328C17.6072 40.1328 15.9278 42.0337 16.1513 44.9434C16.3769 47.8491 18.5838 49.013 18.5838 49.013C18.5838 49.013 20.5915 47.2289 20.374 44.3957C20.1525 41.5645 17.6072 40.1328 17.6072 40.1328Z" fill="#6A0DAD"/>
<path d="M25.2763 52.5167C25.2763 52.5167 26.6859 50.2272 25.6609 47.5772C24.634 44.9313 21.7826 44.293 21.7826 44.293C21.7826 44.293 20.7214 46.5986 21.7746 49.317C22.8277 52.0355 25.2763 52.5167 25.2763 52.5167Z" fill="#6A0DAD"/>
<path d="M6.17549 32.1425C6.17549 32.1425 8.01396 30.451 7.4884 27.5836C6.96686 24.7182 4.85655 23.3086 4.85655 23.3086C4.85655 23.3086 2.76033 25.3404 3.2718 28.1373C3.78126 30.9303 6.17549 32.1425 6.17549 32.1425Z" fill="#6A0DAD"/>
<path d="M7.68612 43.8512C7.68612 43.8512 7.53308 41.3583 4.97977 39.9527C2.42444 38.5492 0 39.2963 0 39.2963C0 39.2963 0.251707 42.204 2.7426 43.5753C5.22946 44.9446 7.68612 43.8512 7.68612 43.8512Z" fill="#6A0DAD"/>
<path d="M12.0057 48.6766C12.0057 48.6766 11.3029 46.2824 8.50192 45.4789C5.6969 44.6815 3.5 45.9441 3.5 45.9441C3.5 45.9441 4.39205 48.725 7.12257 49.5063C9.8551 50.2855 12.0057 48.6766 12.0057 48.6766Z" fill="#6A0DAD"/>
<path d="M16.8213 52.1051C16.8213 52.1051 15.4258 50.037 12.5121 50.1196C9.59631 50.2022 7.88672 52.0769 7.88672 52.0769C7.88672 52.0769 9.57819 54.459 12.4174 54.3765C15.2567 54.2919 16.8213 52.1051 16.8213 52.1051Z" fill="#6A0DAD"/>
<path d="M18.883 53.5065C15.9994 53.9394 14.5234 55.9994 14.5234 55.9994C14.5234 55.9994 16.4888 58.162 19.2978 57.7412C22.1089 57.3163 23.3976 54.9603 23.3976 54.9603C23.3976 54.9603 21.7605 53.0715 18.883 53.5065Z" fill="#6A0DAD"/>
<path d="M7.13218 33.5619L5.74477 33.5156C5.73873 33.6646 5.46689 48.7368 28.2333 55.4141L28.6239 54.0811C6.94491 47.722 7.11205 34.1399 7.13218 33.5619Z" fill="#6A0DAD"/>
<path d="M57.0364 38.3708C57.0364 38.3708 59.7044 38.6889 61.6798 36.6491C63.6552 34.6073 63.0391 31.7539 63.0391 31.7539C63.0391 31.7539 60.5019 31.7539 58.4741 33.8501C56.4484 35.9403 57.0364 38.3708 57.0364 38.3708Z" fill="#6A0DAD"/>
<path d="M49.8135 33.8075C50.2324 36.6186 52.5863 37.9093 52.5863 37.9093C52.5863 37.9093 54.4771 36.2783 54.0502 33.3967C53.6233 30.5152 51.5614 29.0352 51.5614 29.0352C51.5614 29.0352 49.3947 30.9965 49.8135 33.8075Z" fill="#6A0DAD"/>
<path d="M46.7897 40.5397C46.836 43.3769 49.0047 44.9677 49.0047 44.9677C49.0047 44.9677 51.0929 43.5984 51.0446 40.6847C50.9983 37.7709 49.1477 36.0352 49.1477 36.0352C49.1477 36.0352 46.7434 37.7004 46.7897 40.5397Z" fill="#6A0DAD"/>
<path d="M41.8814 44.4074C41.666 47.2407 43.6736 49.0247 43.6736 49.0247C43.6736 49.0247 45.8825 47.8609 46.1061 44.9552C46.3276 42.0494 44.6482 40.1445 44.6482 40.1445C44.6482 40.1445 42.1049 41.5762 41.8814 44.4074Z" fill="#6A0DAD"/>
<path d="M36.5988 47.5851C35.5759 50.237 36.9855 52.5245 36.9855 52.5245C36.9855 52.5245 39.4361 52.0453 40.4872 49.3249C41.5363 46.6044 40.4792 44.3008 40.4792 44.3008C40.4792 44.3008 37.6278 44.9391 36.5988 47.5851Z" fill="#6A0DAD"/>
<path d="M58.9902 28.1491C59.5017 25.3521 57.4055 23.3203 57.4055 23.3203C57.4055 23.3203 55.2952 24.7299 54.7716 27.5973C54.2481 30.4627 56.0845 32.1562 56.0845 32.1562C56.0845 32.1562 58.4808 30.944 58.9902 28.1491Z" fill="#6A0DAD"/>
<path d="M57.2825 39.9645C54.7272 41.368 54.5762 43.8629 54.5762 43.8629C54.5762 43.8629 57.0308 44.9563 59.5217 43.587C62.0086 42.2177 62.2623 39.308 62.2623 39.308C62.2623 39.308 59.8358 38.5609 57.2825 39.9645Z" fill="#6A0DAD"/>
<path d="M53.7596 45.4887C50.9566 46.2881 50.2559 48.6864 50.2559 48.6864C50.2559 48.6864 52.4064 50.2953 55.139 49.516C57.8695 48.7327 58.7615 45.9519 58.7615 45.9519C58.7615 45.9519 56.5626 44.6873 53.7596 45.4887Z" fill="#6A0DAD"/>
<path d="M49.7467 50.1274C46.835 50.0448 45.4375 52.1169 45.4375 52.1169C45.4375 52.1169 46.9981 54.3037 49.8414 54.3863C52.6806 54.4688 54.3721 52.0847 54.3721 52.0847C54.3721 52.0847 52.6625 50.214 49.7467 50.1274Z" fill="#6A0DAD"/>
<path d="M43.3798 53.5175C40.4983 53.0846 38.8652 54.9754 38.8652 54.9754C38.8652 54.9754 40.156 57.3314 42.965 57.7563C45.7761 58.1731 47.7394 56.0165 47.7394 56.0165C47.7394 56.0165 46.2634 53.9505 43.3798 53.5175Z" fill="#6A0DAD"/>
<path d="M56.5198 33.5234L55.1324 33.5718C55.1505 34.1457 55.3156 47.7278 33.6406 54.0889L34.0313 55.4239C56.7977 48.7447 56.5238 33.6745 56.5198 33.5234Z" fill="#6A0DAD"/>
</g>
<defs>
<clipPath id="clip0_3758_507">
<rect width="64" height="64" fill="white"/>
</clipPath>
</defs>
</svg>
