<svg width="49" height="49" viewBox="0 0 49 49" fill="none" xmlns="http://www.w3.org/2000/svg">
<path fill-rule="evenodd" clip-rule="evenodd" d="M28.455 24.8417L32.415 21.969H27.5208C26.8095 21.969 26.1827 21.5116 25.9598 20.8329L24.4529 16.1828L22.9401 20.8329C22.717 21.5116 22.0963 21.969 21.379 21.969H16.4908L20.4448 24.8417C21.0295 25.2618 21.2645 26.0013 21.0415 26.6776L19.5347 31.326L23.4887 28.4521C24.0673 28.032 24.8448 28.0333 25.4174 28.4521L29.3713 31.326L27.8645 26.6765C27.6413 25.9972 27.8825 25.2607 28.455 24.8417ZM24.5011 37.1877C17.5093 37.1877 11.8195 31.4996 11.8195 24.5109C11.8195 17.5227 17.5094 11.8341 24.5011 11.8341C31.4869 11.8341 37.1766 17.5227 37.1766 24.5109C37.1766 31.4995 31.4869 37.1877 24.5011 37.1877ZM26.8638 39.0037L31.5712 47.1485L32.7526 42.7352C32.843 42.4079 33.1745 42.2163 33.5 42.3043L37.912 43.485L33.6025 36.0225C31.6857 37.542 29.3833 38.5932 26.8638 39.0037ZM11.0842 43.485L15.4963 42.3043C15.8218 42.2175 16.1533 42.4111 16.2437 42.7352L17.4251 47.1485L22.1326 39.0025C19.6131 38.5927 17.3107 37.5415 15.394 36.0214L11.0842 43.485ZM33.1323 10.288L35.4347 11.9588L34.5487 14.6626C34.4643 14.923 34.7717 15.1478 34.9947 14.9839L37.2972 13.3125L39.5996 14.9839C39.8216 15.1471 40.1202 14.9189 40.0396 14.6615L39.1657 11.9588L41.4621 10.288C41.6791 10.1265 41.5706 9.76667 41.2933 9.76667H38.4484L37.5683 7.06343C37.484 6.80128 37.1103 6.79825 37.0259 7.06343L36.146 9.76667H33.301C33.0238 9.76667 32.9153 10.1277 33.1323 10.288ZM47.6643 21.6701C47.6281 21.5526 47.5197 21.4713 47.3991 21.4713H44.5482L43.6682 18.7674C43.5838 18.5022 43.2101 18.5052 43.1257 18.7674L42.2457 21.4713H39.4008C39.1295 21.4713 39.015 21.8293 39.2381 21.9908L41.5345 23.661L40.6605 26.3655C40.5762 26.6253 40.8775 26.8471 41.1006 26.6862L43.403 25.016L45.6994 26.6868C45.9225 26.8495 46.2238 26.6319 46.1394 26.3655L45.2655 23.661L47.5619 21.9908C47.6643 21.9173 47.7065 21.7895 47.6643 21.6701ZM7.5341 10.288L9.83053 11.9588L8.95656 14.6615C8.87219 14.9213 9.17961 15.1455 9.39658 14.9839L11.7051 13.3125L14.0015 14.9839C14.2219 15.1494 14.5264 14.9127 14.4475 14.6626L13.5615 11.9588L15.864 10.288C16.087 10.1235 15.9786 9.76667 15.6952 9.76667H12.8503L11.9704 7.06343C11.886 6.80001 11.5123 6.79942 11.4279 7.06343L10.5479 9.76667H7.70893C7.43159 9.76667 7.31105 10.1247 7.5341 10.288ZM20.3301 5.27386L22.6326 6.94828L21.7586 9.65161C21.6742 9.91082 21.9756 10.1362 22.1986 9.97286L24.5011 8.30147L26.7976 9.97403C27.0206 10.1368 27.322 9.9168 27.2376 9.65161L26.3636 6.94828L28.6601 5.27689C28.8831 5.11539 28.7685 4.75798 28.4973 4.75798H25.6523L24.7723 2.05348C24.6818 1.79005 24.3142 1.78888 24.2238 2.05348L23.3438 4.75798H20.505C20.2277 4.75798 20.1132 5.11539 20.3301 5.27386ZM9.7582 21.9908L7.46177 23.6622L8.34171 26.3667C8.42776 26.6315 8.12405 26.8511 7.89571 26.6868L5.59928 25.016L3.29687 26.6862C3.07382 26.8471 2.77247 26.6253 2.85685 26.3655L3.73081 23.661L1.43438 21.9908C1.21133 21.8274 1.33187 21.4713 1.60921 21.4713H4.4421L5.32811 18.7674C5.41249 18.5052 5.78617 18.5022 5.87054 18.7674L6.75059 21.4713H9.59552C9.86669 21.4712 9.98115 21.8293 9.7582 21.9908Z" fill="#6A0DAD"/>
</svg>
