<svg width="45" height="45" viewBox="0 0 45 45" fill="none" xmlns="http://www.w3.org/2000/svg">
<g clip-path="url(#clip0_3758_542)">
<path fill-rule="evenodd" clip-rule="evenodd" d="M28.4656 36.2517V36.9276H26.1892V26.8154L28.0213 25.7936C28.2993 26.1399 28.6908 26.3767 29.1266 26.4621C29.5624 26.5474 30.0143 26.4759 30.4024 26.26C30.7905 26.0442 31.0896 25.698 31.247 25.2827C31.4043 24.8675 31.4097 24.4099 31.262 23.9911C31.1144 23.5723 30.8234 23.2192 30.4405 22.9944C30.0576 22.7695 29.6074 22.6874 29.1698 22.7626C28.7321 22.8377 28.3352 23.0653 28.0492 23.4051C27.7632 23.7448 27.6067 24.1747 27.6073 24.6188C27.6073 24.664 27.6111 24.7084 27.6138 24.7536L25.5842 25.8858L25.5512 25.9034C25.435 25.9643 25.0826 26.1495 25.0826 26.5868V36.9276H23.0528V23.3832C23.6489 23.2472 24.1741 22.8964 24.5279 22.3977C24.8818 21.899 25.0396 21.2875 24.9711 20.6798C24.9027 20.0722 24.6128 19.5111 24.1569 19.1036C23.701 18.6962 23.1109 18.4709 22.4995 18.4709C21.888 18.4709 21.298 18.6962 20.842 19.1036C20.3861 19.5111 20.0962 20.0722 20.0278 20.6798C19.9594 21.2875 20.1171 21.899 20.471 22.3977C20.8249 22.8964 21.35 23.2472 21.9462 23.3832V36.9276H19.9166V26.5869C19.9166 26.1497 19.5642 25.9644 19.448 25.9035L17.3854 24.7539C17.3881 24.7086 17.3919 24.6642 17.3919 24.6191C17.3931 24.1731 17.2365 23.741 16.9496 23.3995C16.6628 23.058 16.2643 22.829 15.8248 22.7532C15.3852 22.6774 14.9331 22.7596 14.5484 22.9853C14.1637 23.2109 13.8713 23.5655 13.723 23.9861C13.5747 24.4068 13.5802 24.8663 13.7383 25.2833C13.8964 25.7004 14.1971 26.048 14.587 26.2645C14.9769 26.4811 15.4309 26.5526 15.8685 26.4665C16.3061 26.3803 16.699 26.1421 16.9778 25.7939L18.81 26.8154V36.9276H16.5336V36.2517C16.5395 35.8437 16.4424 35.4407 16.2514 35.08C16.0604 34.7194 15.7817 34.4126 15.4408 34.1881C13.7392 33.0351 12.3459 31.4827 11.383 29.6666C10.42 27.8506 9.9166 25.8264 9.91683 23.7708C9.91683 16.8329 15.5611 11.1881 22.4995 11.1881C29.4379 11.1881 35.0821 16.8329 35.0821 23.7708C35.0824 25.8263 34.579 27.8506 33.6161 29.6666C32.6532 31.4826 31.26 33.035 29.5584 34.1881C29.2175 34.4126 28.9386 34.7193 28.7476 35.08C28.5566 35.4406 28.4596 35.8436 28.4656 36.2517ZM28.714 24.6191C28.7141 24.7727 28.7598 24.9229 28.8452 25.0506C28.9307 25.1783 29.052 25.2778 29.194 25.3365C29.336 25.3952 29.4922 25.4104 29.6429 25.3804C29.7936 25.3503 29.932 25.2762 30.0405 25.1675C30.1491 25.0588 30.223 24.9203 30.2529 24.7696C30.2828 24.6189 30.2673 24.4627 30.2084 24.3208C30.1495 24.1789 30.0499 24.0576 29.9221 23.9723C29.7943 23.8871 29.6441 23.8416 29.4904 23.8417C29.2844 23.842 29.087 23.9241 28.9414 24.0698C28.7959 24.2155 28.7141 24.4131 28.714 24.6191ZM22.5001 22.3397C22.7732 22.3397 23.0401 22.2587 23.2672 22.107C23.4942 21.9553 23.6712 21.7397 23.7757 21.4874C23.8802 21.2351 23.9075 20.9575 23.8543 20.6896C23.801 20.4218 23.6695 20.1758 23.4764 19.9827C23.2833 19.7896 23.0373 19.6581 22.7694 19.6049C22.5016 19.5516 22.224 19.579 21.9717 19.6835C21.7194 19.788 21.5038 19.965 21.3521 20.192C21.2004 20.4191 21.1194 20.686 21.1195 20.9591C21.12 21.3251 21.2657 21.6759 21.5245 21.9347C21.7833 22.1935 22.1341 22.3391 22.5001 22.3397ZM16.2849 24.6191C16.285 24.4654 16.2395 24.3152 16.1541 24.1874C16.0688 24.0596 15.9475 23.9601 15.8055 23.9012C15.6636 23.8424 15.5074 23.8271 15.3567 23.857C15.206 23.887 15.0675 23.961 14.9589 24.0697C14.8503 24.1784 14.7764 24.3168 14.7464 24.4676C14.7165 24.6183 14.732 24.7745 14.7908 24.9164C14.8497 25.0583 14.9494 25.1796 15.0772 25.2649C15.205 25.3502 15.3552 25.3956 15.5089 25.3955C15.7146 25.3951 15.9118 25.3131 16.0573 25.1676C16.2028 25.0221 16.2846 24.8248 16.2849 24.6191ZM25.4052 45H19.5938C18.8265 44.9992 18.0875 44.7104 17.5229 44.1908C16.9584 43.6711 16.6094 42.9585 16.545 42.1939H28.4535C28.3893 42.9585 28.0404 43.6711 27.4759 44.1908C26.9114 44.7104 26.1724 44.9992 25.4052 45ZM28.6666 41.0874H16.3323C15.9274 41.0874 15.5392 40.9266 15.2529 40.6403C14.9666 40.354 14.8057 39.9657 14.8057 39.5608C14.8057 39.1559 14.9666 38.7677 15.2529 38.4814C15.5392 38.1951 15.9274 38.0342 16.3323 38.0342H28.6666C29.0715 38.0342 29.4598 38.1951 29.7461 38.4814C30.0324 38.7677 30.1932 39.1559 30.1932 39.5608C30.1932 39.9657 30.0324 40.354 29.7461 40.6403C29.4598 40.9266 29.0715 41.0874 28.6666 41.0874ZM43.5917 24.3185V17.8655C43.592 17.7891 43.5643 17.7153 43.5138 17.658C43.4632 17.6006 43.3935 17.5638 43.3176 17.5545L39.5194 17.0882C39.4097 17.0749 39.3065 17.0291 39.2232 16.9566C39.1398 16.8841 39.0801 16.7883 39.0518 16.6815C38.6633 15.2192 38.0815 13.8152 37.3218 12.5067C37.2663 12.4112 37.2406 12.3013 37.2482 12.1911C37.2557 12.0809 37.2961 11.9755 37.3641 11.8885L39.7204 8.8724C39.7678 8.81258 39.7915 8.73734 39.787 8.66112C39.7824 8.58489 39.7498 8.51304 39.6956 8.45932L35.1318 3.89612C35.0782 3.84156 35.0064 3.80878 34.9301 3.80412C34.8538 3.79946 34.7785 3.82325 34.7187 3.8709L31.7023 6.22716C31.6152 6.29493 31.5098 6.33518 31.3997 6.34277C31.2896 6.35037 31.1797 6.32495 31.0841 6.26978C29.7758 5.51032 28.3721 4.92858 26.9101 4.53992C26.8033 4.51151 26.7074 4.4518 26.6347 4.36847C26.5621 4.28513 26.516 4.18197 26.5025 4.07226L26.0358 0.275381C26.0275 0.199251 25.9913 0.128909 25.934 0.0780216C25.8768 0.0271337 25.8027 -0.000667322 25.7262 1.93954e-05H19.2728C19.1962 -0.000839304 19.1221 0.0268422 19.0648 0.077668C19.0076 0.128494 18.9713 0.198821 18.9631 0.274941L18.4955 4.07226C18.4823 4.18195 18.4364 4.28516 18.3639 4.36853C18.2914 4.4519 18.1956 4.51161 18.0888 4.53992C16.6265 4.92854 15.2226 5.51028 13.914 6.26978C13.8185 6.32495 13.7087 6.35036 13.5986 6.34277C13.4886 6.33518 13.3833 6.29492 13.2963 6.22716L10.2804 3.8709C10.2207 3.82325 10.1453 3.79946 10.069 3.80412C9.99274 3.80878 9.92088 3.84156 9.86734 3.89612L5.30336 8.45949C5.24896 8.51314 5.21634 8.58503 5.21178 8.6613C5.20722 8.73757 5.23104 8.81283 5.27866 8.87258L7.63413 11.8887C7.70227 11.9757 7.74276 12.081 7.75036 12.1912C7.75796 12.3014 7.73232 12.4114 7.67676 12.5069C6.91689 13.8153 6.3351 15.2193 5.94681 16.6817C5.9184 16.7884 5.85867 16.8842 5.77534 16.9567C5.69201 17.0292 5.58887 17.0751 5.47923 17.0884L1.68183 17.5547C1.60592 17.5637 1.53602 17.6005 1.48553 17.6579C1.43504 17.7153 1.40751 17.7893 1.40822 17.8657V24.3186C1.40733 24.395 1.43483 24.469 1.48538 24.5262C1.53594 24.5834 1.60595 24.6198 1.68183 24.6284L5.47923 25.0951C5.58887 25.1088 5.69194 25.1549 5.77524 25.2275C5.85853 25.3001 5.91827 25.3959 5.94681 25.5026C6.33543 26.9649 6.9172 28.3689 7.67676 29.6774C7.73233 29.7728 7.75798 29.8827 7.75038 29.9928C7.74278 30.103 7.70228 30.2083 7.63413 30.2951L5.27866 33.3116C5.23093 33.3713 5.20704 33.4466 5.2116 33.5229C5.21616 33.5992 5.24885 33.6711 5.30336 33.7247L9.86717 38.2876C9.9206 38.3424 9.99244 38.3753 10.0688 38.38C10.1451 38.3848 10.2205 38.361 10.2803 38.3133L13.2964 35.9578C13.3833 35.8898 13.4887 35.8495 13.5988 35.8419C13.7089 35.8344 13.8187 35.8601 13.9141 35.9156C14.4039 36.1993 14.9102 36.4593 15.4265 36.6938V36.2528C15.4314 36.0255 15.3781 35.8008 15.2717 35.5999C15.1654 35.399 15.0095 35.2286 14.8188 35.1049C12.9678 33.8502 11.4524 32.1613 10.4049 30.1857C9.35742 28.2101 8.80984 26.008 8.81002 23.7719C8.81002 16.2241 14.9507 10.0826 22.4993 10.0826C30.048 10.0826 36.1881 16.2241 36.1881 23.7719C36.1883 26.0077 35.6408 28.2096 34.5934 30.185C33.546 32.1603 32.0307 33.8491 30.1799 35.1035C29.9892 35.2272 29.8332 35.3976 29.7269 35.5985C29.6205 35.7994 29.5673 36.0242 29.5722 36.2515V36.6925C30.0886 36.458 30.5949 36.1979 31.084 35.9143C31.1794 35.8588 31.2893 35.8331 31.3995 35.8406C31.5097 35.8481 31.6151 35.8885 31.7021 35.9565L34.7182 38.312C34.778 38.3597 34.8534 38.3834 34.9297 38.3787C35.0061 38.374 35.0779 38.341 35.1313 38.2863L39.6956 33.7236C39.75 33.67 39.7826 33.5981 39.7872 33.5219C39.7917 33.4456 39.768 33.3703 39.7204 33.3106L37.3641 30.2941C37.2961 30.207 37.2557 30.1015 37.2481 29.9913C37.2406 29.881 37.2663 29.771 37.3218 29.6755C38.0816 28.3675 38.6634 26.9638 39.0518 25.5018C39.0803 25.3951 39.14 25.2992 39.2233 25.2266C39.3066 25.154 39.4097 25.1079 39.5194 25.0943L43.3176 24.6276C43.3933 24.6188 43.4631 24.5824 43.5137 24.5254C43.5643 24.4683 43.592 24.3947 43.5917 24.3185Z" fill="#6A0DAD"/>
</g>
<defs>
<clipPath id="clip0_3758_542">
<rect width="45" height="45" fill="white"/>
</clipPath>
</defs>
</svg>
