<svg width="46" height="43" viewBox="0 0 46 43" fill="none" xmlns="http://www.w3.org/2000/svg">
<path d="M46 36.574V43H43.3281V38.4559H42.52V43H34.6729V38.4559H33.8648V43H31.2251V36.574C31.2251 36.4511 31.2197 36.328 31.2143 36.2044C31.3973 33.2984 33.7248 30.9911 36.5695 30.9911H38.0969C38.261 31.0106 38.4281 31.0271 38.5978 31.0271C38.7675 31.0271 38.9346 31.0106 39.0984 30.9911H40.6288C43.5888 30.9911 46 33.4941 46 36.574Z" fill="#6A0DAD"/>
<path d="M41.7951 26.8608C41.7951 28.5381 40.5964 29.924 39.0422 30.151H38.1532C36.599 29.924 35.4005 28.5381 35.4005 26.8608C35.4005 25.0295 36.8336 23.537 38.5978 23.537C40.362 23.537 41.7951 25.0295 41.7951 26.8608Z" fill="#6A0DAD"/>
<path d="M30.4172 36.574V43H27.7448V38.4559H26.9369V43H19.0899V38.4559H18.2822V43H15.6128V36.574C15.6128 33.4941 18.0206 30.9911 20.9835 30.9911H22.5139C22.6782 31.0106 22.845 31.0271 23.015 31.0271C23.1845 31.0271 23.3515 31.0106 23.5159 30.9911H25.0433C27.8851 30.9911 30.215 33.2984 30.3983 36.2044C30.3929 36.328 30.3872 36.4511 30.3872 36.574H30.4172Z" fill="#6A0DAD"/>
<path d="M26.2123 26.8608C26.2123 28.5381 25.0135 29.924 23.4591 30.151H22.5677C21.0164 29.924 19.8172 28.5381 19.8172 26.8608C19.8172 25.0295 21.2503 23.537 23.015 23.537C24.7765 23.537 26.2123 25.0295 26.2123 26.8608Z" fill="#6A0DAD"/>
<path d="M25.9669 18.276C26.2258 18.276 26.4385 18.4968 26.4385 18.766C26.4385 19.0379 26.2258 19.256 25.9669 19.256H20.0624C19.8015 19.256 19.591 19.0379 19.591 18.766C19.591 18.4968 19.8015 18.276 20.0624 18.276H25.9669Z" fill="#6A0DAD"/>
<path d="M21.7516 20.096H24.2781C24.1169 20.6669 23.6131 21.087 23.015 21.087C22.4139 21.087 21.9133 20.6669 21.7516 20.096Z" fill="#6A0DAD"/>
<path d="M22.6701 14.4708L21.28 12.2503V11.8078C21.28 11.7828 21.3289 11.7796 21.3289 11.8078V11.931C21.3289 12.4067 21.7001 12.7961 22.1611 12.7961C22.6188 12.7961 22.9907 12.4067 22.9907 11.931V11.7856C22.9934 11.7575 23.0393 11.7603 23.0393 11.7856V11.9087C23.0393 12.3844 23.4137 12.7737 23.8715 12.7737C24.3292 12.7737 24.7011 12.3844 24.7011 11.8976V11.8078C24.7011 11.7828 24.747 11.7828 24.747 11.8078V12.2503L23.3596 14.4708V17.436H22.6701V14.4708Z" fill="#6A0DAD"/>
<path d="M18.5057 6.30033L19.0764 5.70627L18.2173 4.81347L17.6467 5.40663L18.5057 6.30033ZM16.8248 10.9395V10.0993H15.6128V10.9395H16.8248ZM17.5465 7.77302L16.4529 7.22927L16.1031 7.98572L17.1992 8.53152L17.5465 7.77302ZM20.4021 4.74606L21.1614 4.46595L20.7573 3.27618L19.9953 3.55616L20.4021 4.74606ZM28.4803 7.76766L28.8279 8.52335L29.9239 7.98023L29.5766 7.2239L28.4803 7.76766ZM26.9531 5.70091L27.5242 6.2942L28.3835 5.40395L27.8121 4.80785L26.9531 5.70091ZM24.8652 4.46059L25.6276 4.7407L26.0317 3.55042L25.2695 3.27056L24.8652 4.46059ZM29.2022 10.934H30.4172V10.094H29.2022V10.934ZM22.6109 4.24508H23.4191V2.98177H22.6109V4.24508ZM26.9986 26.441C26.7967 24.3436 25.0865 22.6969 23.015 22.6969C20.9408 22.6969 19.2328 24.3436 19.0282 26.441H11.3863C11.1843 24.3436 9.47369 22.6969 7.40244 22.6969C5.32823 22.6969 3.62053 24.3436 3.41566 26.441H0V0H46V26.441H42.5846C42.3797 24.3436 40.6691 22.6969 38.5978 22.6969C36.5266 22.6969 34.8159 24.3436 34.611 26.441H26.9986ZM23.015 4.55034C19.8553 4.55034 17.2854 7.22135 17.2854 10.5057C17.2854 12.0821 17.8725 13.5689 18.9263 14.6753L20.1513 16.1032V17.436H20.0624C19.3569 17.436 18.7831 18.0321 18.7831 18.766C18.7831 19.4993 19.3569 20.096 20.0624 20.096H20.9165C21.0941 21.1345 21.9668 21.9271 23.015 21.9271C24.0629 21.9271 24.9352 21.1345 25.1103 20.096H25.9669C26.6731 20.096 27.2464 19.4993 27.2464 18.766C27.2464 18.0321 26.6731 17.436 25.9669 17.436H25.878V16.1032L27.0875 14.6917C28.1543 13.5689 28.7441 12.0821 28.7441 10.5057C28.7441 7.22135 26.1717 4.55034 23.015 4.55034Z" fill="#6A0DAD"/>
<path d="M14.8046 36.574V43H12.1323V38.4559H11.3244V43H3.47781V38.4559H2.6694V43H0V36.574C0 33.7821 1.97742 31.464 4.55519 31.0554C4.82172 31.0134 5.09389 30.9911 5.37146 30.9911H6.90133C7.06566 31.0106 7.23245 31.0271 7.40244 31.0271C7.57218 31.0271 7.73897 31.0106 7.90306 30.9911H9.43071C11.653 30.9911 13.5656 32.3992 14.3816 34.4013C14.6533 35.0707 14.8046 35.8041 14.8046 36.574Z" fill="#6A0DAD"/>
<path d="M10.5995 26.8608C10.5995 27.018 10.5889 27.1715 10.5702 27.3258C10.3708 28.7871 9.25581 29.9465 7.8468 30.151H6.95487C5.84015 29.9887 4.90548 29.2267 4.46897 28.1883C4.29653 27.7819 4.20245 27.3314 4.20245 26.8608C4.20245 25.0295 5.63823 23.537 7.40244 23.537C9.16418 23.537 10.5995 25.0295 10.5995 26.8608Z" fill="#6A0DAD"/>
</svg>
