<svg width="37" height="48" viewBox="0 0 37 48" fill="none" xmlns="http://www.w3.org/2000/svg">
<path d="M12.3932 18.4163L16.4958 21.2288C16.6638 21.344 16.8732 21.3939 17.0798 21.3679C17.2864 21.3419 17.4741 21.2421 17.6034 21.0895L23.9572 13.5894C24.0889 13.4333 24.1488 13.2348 24.1237 13.0376C24.0987 12.8403 23.9907 12.6604 23.8236 12.5373C23.6564 12.4142 23.4437 12.3579 23.2321 12.3808C23.0205 12.4037 22.8274 12.504 22.6949 12.6596L16.8226 19.5911L13.346 17.2078C13.1741 17.0903 12.9592 17.0413 12.7486 17.0714C12.538 17.1016 12.3488 17.2084 12.2225 17.3685C12.0963 17.5286 12.0434 17.7289 12.0754 17.9253C12.1074 18.1218 12.2217 18.2984 12.3932 18.4163Z" fill="#6A0DAD"/>
<path d="M1.62076 19.6271C1.60684 19.9851 1.51661 20.3369 1.35533 20.6621C1.11 21.2996 0.8325 22.0234 1.11402 22.7284C1.39554 23.4446 2.11543 23.8346 2.75087 24.1834C3.09239 24.3334 3.39963 24.5435 3.65576 24.8022C3.7742 25.1379 3.81933 25.4924 3.78848 25.8447C3.79652 26.5272 3.80457 27.2959 4.33141 27.8734C4.85424 28.451 5.67065 28.5897 6.39457 28.7135C6.77569 28.7472 7.14601 28.8504 7.48446 29.0172C7.71819 29.294 7.89046 29.6115 7.9912 29.951C8.24859 30.5885 8.54217 31.3123 9.25 31.691C9.94978 32.066 10.7662 31.9423 11.4901 31.8298C11.866 31.7416 12.2566 31.7225 12.6403 31.7735C12.9582 31.958 13.2342 32.1988 13.4527 32.4823C13.9353 33.0035 14.4783 33.5923 15.2907 33.7236C16.0749 33.8511 16.7948 33.4761 17.4262 33.146C17.7505 32.9398 18.1155 32.7957 18.5 32.7223C18.8845 32.7957 19.2495 32.9398 19.5738 33.146C20.1151 33.4877 20.7406 33.6954 21.3916 33.7498C21.4982 33.7502 21.6045 33.7414 21.7093 33.7235C22.5217 33.5923 23.0647 33.0035 23.5473 32.4823C23.7658 32.1987 24.0418 31.9579 24.3597 31.7735C24.7434 31.7225 25.134 31.7416 25.5099 31.8298C26.2338 31.9423 27.0502 32.066 27.75 31.691C28.4578 31.3123 28.7514 30.5885 29.0048 29.951C29.1093 29.6121 29.2827 29.2951 29.5155 29.0172C29.854 28.8504 30.2243 28.7472 30.6054 28.7135C31.3253 28.5897 32.1458 28.451 32.6686 27.8734C33.1954 27.2959 33.2035 26.5272 33.2075 25.8446C33.1797 25.4922 33.2262 25.138 33.3442 24.8021C33.6004 24.5435 33.9076 24.3334 34.2491 24.1834C34.8846 23.8346 35.6045 23.4446 35.89 22.7283C36.1675 22.0233 35.89 21.2996 35.6447 20.6621C35.4834 20.3369 35.3932 19.9851 35.3792 19.6271C35.5243 19.3102 35.7316 19.0215 35.9905 18.7758C36.4651 18.247 37 17.647 37 16.8745C37 16.102 36.4651 15.502 35.9905 14.9732C35.7076 14.7352 35.4956 14.4329 35.3752 14.0957C35.383 13.7449 35.475 13.4002 35.6447 13.087C35.89 12.4495 36.1675 11.7257 35.886 11.0207C35.6045 10.3044 34.8846 9.91444 34.2491 9.56568C33.9076 9.41563 33.6004 9.20554 33.3442 8.94692C33.2258 8.61117 33.1807 8.25669 33.2115 7.90441C33.2035 7.22192 33.1954 6.45314 32.6686 5.87563C32.1458 5.29812 31.3293 5.15937 30.6054 5.03561C30.2243 5.0019 29.854 4.89869 29.5155 4.73186C29.2818 4.45507 29.1095 4.13763 29.0088 3.79809C28.7514 3.16056 28.4578 2.4368 27.75 2.05805C27.0502 1.68304 26.2338 1.80679 25.5099 1.9193C25.134 2.00748 24.7434 2.02659 24.3597 1.97555C24.0418 1.79111 23.7658 1.55031 23.5473 1.26679C23.0647 0.745528 22.5217 0.156768 21.7093 0.0255165C20.9251 -0.101986 20.2052 0.27302 19.5738 0.603025C19.2495 0.809269 18.8845 0.953316 18.5 1.02678C18.1155 0.953316 17.7505 0.809269 17.4262 0.603025C16.7948 0.27302 16.0749 -0.101986 15.2907 0.0255165C14.4783 0.156768 13.9353 0.745528 13.4527 1.26679C13.2342 1.55031 12.9582 1.79111 12.6403 1.97555C12.2566 2.02659 11.866 2.00748 11.4901 1.9193C10.7662 1.80679 9.94978 1.68304 9.25 2.05805C8.54217 2.4368 8.24859 3.16057 7.99522 3.79807C7.89072 4.13698 7.71732 4.45399 7.48446 4.73184C7.146 4.89868 6.77569 5.00188 6.39457 5.03559C5.67467 5.15935 4.85424 5.2981 4.33141 5.87561C3.80457 6.45312 3.79652 7.22188 3.7925 7.90439C3.82029 8.25688 3.77384 8.61104 3.65576 8.9469C3.39963 9.20552 3.09238 9.41561 2.75087 9.56566C2.11543 9.91442 1.39552 10.3044 1.11 11.0207C0.8325 11.7257 1.11 12.4495 1.35533 13.0869C1.51661 13.4121 1.60684 13.764 1.62076 14.122C1.47569 14.4388 1.26836 14.7275 1.00946 14.9732C0.534891 15.502 0 16.102 0 16.8745C0 17.647 0.534891 18.247 1.00946 18.7758C1.26836 19.0215 1.47569 19.3103 1.62076 19.6271ZM18.5 7.49938C20.4886 7.49938 22.4325 8.04922 24.0859 9.07938C25.7393 10.1095 27.028 11.5737 27.789 13.2868C28.55 14.9999 28.7491 16.8849 28.3612 18.7035C27.9732 20.5221 27.0156 22.1926 25.6095 23.5038C24.2034 24.8149 22.4119 25.7078 20.4615 26.0695C18.5112 26.4313 16.4896 26.2456 14.6524 25.536C12.8152 24.8264 11.2449 23.6248 10.1401 22.0831C9.03533 20.5413 8.44565 18.7288 8.44565 16.8745C8.44565 14.3881 9.50495 12.0035 11.3905 10.2453C13.2761 8.48712 15.8334 7.49938 18.5 7.49938Z" fill="#6A0DAD"/>
<path d="M27.0136 47.9993C27.1734 48.0042 27.3311 47.9653 27.4674 47.8874C27.6037 47.8095 27.7125 47.6961 27.7802 47.5611L29.9675 43.0865C29.9675 43.0865 34.6366 45.1635 34.6427 45.1662C34.7864 45.227 34.9461 45.2475 35.1021 45.2249C35.258 45.2024 35.4036 45.1379 35.5208 45.0394C35.6381 44.9409 35.7219 44.8126 35.7621 44.6703C35.8023 44.528 35.7971 44.3778 35.7471 44.2382L30.5086 30.4901C30.5074 30.4932 30.5045 30.4945 30.5031 30.4974C30.2163 31.2198 29.7693 32.3399 28.5508 32.9919C27.9615 33.2986 27.2956 33.4543 26.6208 33.4433C26.159 33.4346 25.6988 33.3898 25.245 33.3092C25.1547 33.2957 25.0483 33.2796 24.9481 33.266C24.8873 33.3303 24.8256 33.3969 24.7777 33.4487C24.2019 34.0702 23.3603 34.9792 21.9845 35.2016C21.8637 35.2213 21.7418 35.2343 21.6194 35.2407L26.2902 47.501C26.3438 47.6418 26.4414 47.7644 26.5703 47.8532C26.6991 47.942 26.8535 47.9928 27.0136 47.9993Z" fill="#6A0DAD"/>
<path d="M12.2408 33.4687C12.1842 33.4072 12.1167 33.3341 12.0519 33.266C11.9545 33.2792 11.8527 33.2946 11.7703 33.307C11.3115 33.3887 10.8461 33.4343 10.3791 33.4433C9.70407 33.4543 9.03791 33.2985 8.4484 32.9915C7.24485 32.3474 6.79034 31.2345 6.49065 30.492C6.47831 30.5244 1.2609 44.2172 1.25287 44.2382C1.2035 44.3777 1.19873 44.5277 1.23914 44.6697C1.27955 44.8117 1.3634 44.9397 1.48047 45.0381C1.59753 45.1364 1.74276 45.2009 1.89844 45.2237C2.05413 45.2464 2.21355 45.2265 2.35727 45.1662L7.03255 43.0865L9.21976 47.5611C9.28624 47.697 9.39474 47.8113 9.53134 47.8894C9.66794 47.9675 9.82644 48.0058 9.98651 47.9993C10.1466 47.9928 10.3009 47.942 10.4298 47.8532C10.5587 47.7644 10.6562 47.6418 10.7098 47.501L15.3817 35.2399C15.2586 35.2332 15.136 35.2203 15.0144 35.2013C13.6397 34.9792 12.7981 34.0702 12.2408 33.4687Z" fill="#6A0DAD"/>
</svg>
