<svg width="48" height="48" viewBox="0 0 48 48" fill="none" xmlns="http://www.w3.org/2000/svg">
<path d="M34.3996 44.8C34.3996 44.5878 34.3153 44.3843 34.1653 44.2343C34.0153 44.0843 33.8118 44 33.5996 44H14.3996C14.1874 44 13.984 44.0843 13.8339 44.2343C13.6839 44.3843 13.5996 44.5878 13.5996 44.8V46.4H34.3996V44.8Z" fill="#E8E8E8"/>
<path d="M19.9945 24.8008C19.8897 32.5608 18.2705 37.1632 17.3281 39.2008H30.6721C29.7297 37.1632 28.1121 32.5608 28.0057 24.8008H19.9945Z" fill="#E8E8E8"/>
<path d="M18.4004 22.3996C18.4004 22.6118 18.4847 22.8153 18.6347 22.9653C18.7847 23.1153 18.9882 23.1996 19.2004 23.1996H28.8004C29.0126 23.1996 29.216 23.1153 29.3661 22.9653C29.5161 22.8153 29.6004 22.6118 29.6004 22.3996V21.5996H18.4004V22.3996Z" fill="#E8E8E8"/>
<path d="M15.9992 40.8008C15.787 40.8008 15.5836 40.8851 15.4335 41.0351C15.2835 41.1851 15.1992 41.3886 15.1992 41.6008V42.4008H32.7992V41.6008C32.7992 41.3886 32.7149 41.1851 32.5649 41.0351C32.4149 40.8851 32.2114 40.8008 31.9992 40.8008H15.9992Z" fill="#E8E8E8"/>
<path d="M1.59961 13.5996C1.59961 14.2361 1.85247 14.8466 2.30255 15.2967C2.75264 15.7468 3.36309 15.9996 3.99961 15.9996H5.37561C5.56263 15.9995 5.74379 16.0649 5.88761 16.1844L9.48761 19.1844L9.59961 19.1276V16.7996C9.59961 16.5874 9.6839 16.384 9.83392 16.2339C9.98395 16.0839 10.1874 15.9996 10.3996 15.9996H15.1996V13.5996C15.1996 13.1753 15.3682 12.7683 15.6682 12.4682C15.9683 12.1682 16.3753 11.9996 16.7996 11.9996H17.5996V3.99961C17.5996 3.36309 17.3468 2.75264 16.8967 2.30255C16.4466 1.85247 15.8361 1.59961 15.1996 1.59961H3.99961C3.36309 1.59961 2.75264 1.85247 2.30255 2.30255C1.85247 2.75264 1.59961 3.36309 1.59961 3.99961V13.5996ZM5.83401 6.16521C5.7576 6.09141 5.69666 6.00314 5.65473 5.90553C5.6128 5.80793 5.59073 5.70295 5.58981 5.59673C5.58889 5.49051 5.60913 5.38516 5.64935 5.28685C5.68958 5.18853 5.74898 5.09921 5.82409 5.02409C5.89921 4.94898 5.98853 4.88958 6.08685 4.84935C6.18516 4.80913 6.29051 4.78889 6.39673 4.78981C6.50295 4.79073 6.60793 4.8128 6.70553 4.85473C6.80314 4.89666 6.89141 4.9576 6.96521 5.03401L9.59961 7.66841L12.234 5.03401C12.3078 4.9576 12.3961 4.89666 12.4937 4.85473C12.5913 4.8128 12.6963 4.79073 12.8025 4.78981C12.9087 4.78889 13.0141 4.80913 13.1124 4.84935C13.2107 4.88958 13.3 4.94898 13.3751 5.02409C13.4502 5.09921 13.5096 5.18853 13.5499 5.28685C13.5901 5.38516 13.6103 5.49051 13.6094 5.59673C13.6085 5.70295 13.5864 5.80793 13.5445 5.90553C13.5026 6.00314 13.4416 6.09141 13.3652 6.16521L10.7308 8.79961L13.3652 11.434C13.4416 11.5078 13.5026 11.5961 13.5445 11.6937C13.5864 11.7913 13.6085 11.8963 13.6094 12.0025C13.6103 12.1087 13.5901 12.2141 13.5499 12.3124C13.5096 12.4107 13.4502 12.5 13.3751 12.5751C13.3 12.6502 13.2107 12.7096 13.1124 12.7499C13.0141 12.7901 12.9087 12.8103 12.8025 12.8094C12.6963 12.8085 12.5913 12.7864 12.4937 12.7445C12.3961 12.7026 12.3078 12.6416 12.234 12.5652L9.59961 9.93081L6.96521 12.5652C6.89141 12.6416 6.80314 12.7026 6.70553 12.7445C6.60793 12.7864 6.50295 12.8085 6.39673 12.8094C6.29051 12.8103 6.18516 12.7901 6.08685 12.7499C5.98853 12.7096 5.89921 12.6502 5.82409 12.5751C5.74898 12.5 5.68958 12.4107 5.64935 12.3124C5.60913 12.2141 5.58889 12.1087 5.58981 12.0025C5.59073 11.8963 5.6128 11.7913 5.65473 11.6937C5.69666 11.5961 5.7576 11.5078 5.83401 11.434L8.46841 8.79961L5.83401 6.16521Z" fill="#E8E8E8"/>
<path d="M46.4004 3.99961C46.4004 3.36309 46.1475 2.75264 45.6974 2.30255C45.2474 1.85247 44.6369 1.59961 44.0004 1.59961H32.8004C32.1639 1.59961 31.5534 1.85247 31.1033 2.30255C30.6532 2.75264 30.4004 3.36309 30.4004 3.99961V11.9996H31.2004C31.6247 11.9996 32.0317 12.1682 32.3318 12.4682C32.6318 12.7683 32.8004 13.1753 32.8004 13.5996V15.9996H37.6004C37.8126 15.9996 38.016 16.0839 38.1661 16.2339C38.3161 16.384 38.4004 16.5874 38.4004 16.7996V19.1276L38.5124 19.1844L42.1124 16.1844C42.2562 16.0649 42.4374 15.9995 42.6244 15.9996H44.0004C44.6369 15.9996 45.2474 15.7468 45.6974 15.2967C46.1475 14.8466 46.4004 14.2361 46.4004 13.5996V3.99961ZM42.2404 6.07961L37.4404 12.4796C37.3718 12.5717 37.2843 12.6479 37.1836 12.7031C37.083 12.7583 36.9717 12.7912 36.8572 12.7996H36.8004C36.5882 12.7996 36.3848 12.7152 36.2348 12.5652L34.6348 10.9652C34.4891 10.8143 34.4084 10.6122 34.4103 10.4025C34.4121 10.1927 34.4962 9.99208 34.6445 9.84375C34.7929 9.69543 34.9935 9.61129 35.2033 9.60947C35.413 9.60765 35.6151 9.68828 35.766 9.83401L36.714 10.782L40.9604 5.11961C41.0234 5.03556 41.1024 4.96476 41.1928 4.91123C41.2832 4.8577 41.3833 4.82251 41.4873 4.80765C41.5913 4.79279 41.6972 4.79857 41.7989 4.82464C41.9007 4.85071 41.9963 4.89657 42.0804 4.95961C42.1644 5.02264 42.2352 5.10162 42.2888 5.19201C42.3423 5.28241 42.3775 5.38247 42.3923 5.48647C42.4072 5.59047 42.4014 5.69638 42.3754 5.79815C42.3493 5.89992 42.3034 5.99556 42.2404 6.07961Z" fill="#E8E8E8"/>
<path d="M28.0008 15.1996C28.0008 15.4118 27.9165 15.6153 27.7665 15.7653C27.6164 15.9153 27.413 15.9996 27.2008 15.9996H26.4008C26.1886 15.9996 25.9851 15.9153 25.8351 15.7653C25.6851 15.6153 25.6008 15.4118 25.6008 15.1996V13.9996C25.6008 13.8935 25.5586 13.7918 25.4836 13.7168C25.4086 13.6418 25.3069 13.5996 25.2008 13.5996H22.8008C22.6947 13.5996 22.593 13.6418 22.5179 13.7168C22.4429 13.7918 22.4008 13.8935 22.4008 13.9996V15.1996C22.4008 15.4118 22.3165 15.6153 22.1665 15.7653C22.0164 15.9153 21.813 15.9996 21.6008 15.9996H20.8008C20.5886 15.9996 20.3851 15.9153 20.2351 15.7653C20.0851 15.6153 20.0008 15.4118 20.0008 15.1996V13.9996C20.0008 13.8935 19.9586 13.7918 19.8836 13.7168C19.8086 13.6418 19.7069 13.5996 19.6008 13.5996H17.2008C17.0947 13.5996 16.993 13.6418 16.9179 13.7168C16.8429 13.7918 16.8008 13.8935 16.8008 13.9996V19.1996C16.8008 19.4118 16.8851 19.6153 17.0351 19.7653C17.1851 19.9153 17.3886 19.9996 17.6008 19.9996H30.4008C30.613 19.9996 30.8164 19.9153 30.9665 19.7653C31.1165 19.6153 31.2008 19.4118 31.2008 19.1996V13.9996C31.2008 13.8935 31.1586 13.7918 31.0836 13.7168C31.0086 13.6418 30.9069 13.5996 30.8008 13.5996H28.4008C28.2947 13.5996 28.193 13.6418 28.1179 13.7168C28.0429 13.7918 28.0008 13.8935 28.0008 13.9996V15.1996Z" fill="#E8E8E8"/>
</svg>
