<svg width="53" height="53" viewBox="0 0 53 53" fill="none" xmlns="http://www.w3.org/2000/svg">
<path d="M49.6875 29.8123C49.6809 29.0805 49.4321 28.3715 48.98 27.796C48.5279 27.2205 47.898 26.8109 47.1886 26.6312C46.4792 26.4515 45.7302 26.5118 45.0587 26.8026C44.3871 27.0935 43.8308 27.5985 43.4766 28.2389C43.1901 27.7211 42.7702 27.2896 42.2605 26.989C41.7507 26.6885 41.1698 26.53 40.5781 26.53C39.9864 26.53 39.4055 26.6885 38.8958 26.989C38.3861 27.2896 37.9661 27.7211 37.6797 28.2389C37.3972 27.7155 36.979 27.2778 36.469 26.9718C35.959 26.6658 35.376 26.5028 34.7812 26.4998H34.7316C35.8514 24.1746 36.4344 21.6275 36.4375 19.0467C36.4336 15.6433 35.4312 12.3158 33.5544 9.47657C31.6776 6.63737 29.009 4.41128 25.8792 3.07415C22.7495 1.73702 19.2962 1.34764 15.9472 1.95426C12.5983 2.56087 9.50096 4.13682 7.03907 6.48681C4.57718 8.8368 2.85895 11.8575 2.09731 15.1746C1.33567 18.4917 1.5641 21.9594 2.75429 25.148C3.94448 28.3365 6.04412 31.1057 8.793 33.1125C11.5419 35.1192 14.8192 36.2752 18.2187 36.4373V39.7498H16.5625V48.8592C16.5625 49.5181 16.8242 50.15 17.2901 50.6159C17.7561 51.0818 18.388 51.3436 19.0469 51.3436C19.7058 51.3436 20.3377 51.0818 20.8036 50.6159C21.2695 50.15 21.5312 49.5181 21.5312 48.8592V39.7498H19.875V36.4373C24.3684 36.2257 28.6034 34.2745 31.6841 30.9965C31.908 31.5875 32.2962 32.102 32.803 32.4794C33.3098 32.8569 33.914 33.0815 34.5443 33.1268C35.1746 33.1721 35.8047 33.0361 36.3603 32.7349C36.9158 32.4338 37.3736 31.98 37.6797 31.4272C37.9661 31.9449 38.3861 32.3765 38.8958 32.677C39.4055 32.9775 39.9864 33.136 40.5781 33.136C41.1698 33.136 41.7507 32.9775 42.2605 32.677C42.7702 32.3765 43.1901 31.9449 43.4766 31.4272C43.8325 32.0706 44.3925 32.5773 45.0682 32.8674C45.7439 33.1575 46.4969 33.2145 47.2085 33.0294C47.9202 32.8444 48.5501 32.4278 48.9989 31.8454C49.4477 31.2629 49.69 30.5476 49.6875 29.8123ZM28.1562 27.4604V12.4217H23.1875V30.7398C22.6486 30.9423 22.0949 31.1029 21.5312 31.2201V15.7342H16.5625V31.2201C15.9989 31.1029 15.4451 30.9423 14.9062 30.7398V19.0467H9.93749V27.4604C8.29437 25.6881 7.20395 23.4749 6.79986 21.0921C6.39576 18.7093 6.69555 16.2604 7.66247 14.0454C8.6294 11.8305 10.2215 9.94565 12.2436 8.622C14.2657 7.29834 16.63 6.59331 19.0469 6.59331C21.4637 6.59331 23.828 7.29834 25.8501 8.622C27.8723 9.94565 29.4643 11.8305 30.4313 14.0454C31.3982 16.2604 31.698 18.7093 31.2939 21.0921C30.8898 23.4749 29.7994 25.6881 28.1562 27.4604ZM34.7812 31.4686C34.4537 31.4686 34.1334 31.3714 33.8611 31.1894C33.5887 31.0074 33.3764 30.7488 33.2511 30.4461C33.1257 30.1435 33.0929 29.8105 33.1568 29.4892C33.2207 29.1679 33.3785 28.8728 33.6101 28.6412C33.8417 28.4095 34.1368 28.2518 34.4581 28.1879C34.7794 28.124 35.1124 28.1568 35.4151 28.2821C35.7177 28.4075 35.9764 28.6198 36.1584 28.8921C36.3404 29.1645 36.4375 29.4847 36.4375 29.8123C36.4375 30.2516 36.263 30.6729 35.9524 30.9835C35.6418 31.2941 35.2205 31.4686 34.7812 31.4686ZM40.5781 31.4686C40.2505 31.4686 39.9303 31.3714 39.658 31.1894C39.3856 31.0074 39.1733 30.7488 39.0479 30.4461C38.9226 30.1435 38.8898 29.8105 38.9537 29.4892C39.0176 29.1679 39.1753 28.8728 39.407 28.6412C39.6386 28.4095 39.9337 28.2518 40.255 28.1879C40.5763 28.124 40.9093 28.1568 41.2119 28.2821C41.5146 28.4075 41.7733 28.6198 41.9552 28.8921C42.1372 29.1645 42.2344 29.4847 42.2344 29.8123C42.2344 30.2516 42.0599 30.6729 41.7493 30.9835C41.4387 31.2941 41.0174 31.4686 40.5781 31.4686Z" fill="#E8E8E8"/>
<path d="M23.1875 42.2344V50.5156C23.1875 50.7353 23.2747 50.9459 23.4301 51.1012C23.5854 51.2565 23.796 51.3438 24.0156 51.3438H32.2969C32.5165 51.3438 32.7271 51.2565 32.8824 51.1012C33.0378 50.9459 33.125 50.7353 33.125 50.5156V42.2344C33.125 42.0147 33.0378 41.8041 32.8824 41.6488C32.7271 41.4935 32.5165 41.4062 32.2969 41.4062H24.0156C23.796 41.4062 23.5854 41.4935 23.4301 41.6488C23.2747 41.8041 23.1875 42.0147 23.1875 42.2344ZM24.8438 43.0625H30.5247L28.0983 45.9775L27.088 44.9589L25.912 46.1348L27.5683 47.7911C27.6457 47.8678 27.7374 47.9286 27.8383 47.9698C27.9392 48.011 28.0473 48.0319 28.1562 48.0312C28.2723 48.0267 28.3861 47.9978 28.4902 47.9465C28.5944 47.8951 28.6865 47.8224 28.7608 47.7331L31.4688 44.52V49.6875H24.8438V43.0625Z" fill="#E8E8E8"/>
<path d="M46.375 33.125H41.4062V43.0625H43.2033L43.8906 51.3438H48.8594L49.5467 43.0625H51.3438V33.125H46.375ZM48.8594 38.9219H47.2031V40.5781H45.5469V38.9219H43.8906V37.2656H45.5469V35.6094H47.2031V37.2656H48.8594V38.9219Z" fill="#E8E8E8"/>
<path d="M32.2969 34.7812H33.9531V33.125H31.4688C31.2491 33.125 31.0385 33.2122 30.8832 33.3676C30.7279 33.5229 30.6406 33.7335 30.6406 33.9531V39.75H32.2969V34.7812Z" fill="#E8E8E8"/>
<path d="M38.9219 34.7812V33.125H36.4375C36.2179 33.125 36.0072 33.2122 35.8519 33.3676C35.6966 33.5229 35.6094 33.7335 35.6094 33.9531V42.2344C35.6094 42.454 35.6966 42.6646 35.8519 42.8199C36.0072 42.9753 36.2179 43.0625 36.4375 43.0625H37.4727L38.0938 50.5819C38.1104 50.7898 38.205 50.9838 38.3585 51.1251C38.5121 51.2663 38.7133 51.3444 38.9219 51.3437H42.2344V49.6875H39.6837L39.0627 42.1681C39.046 41.9602 38.9514 41.7662 38.7979 41.6249C38.6443 41.4837 38.4432 41.4056 38.2345 41.4062H37.2656V34.7812H38.9219Z" fill="#E8E8E8"/>
</svg>
