<svg width="53" height="53" viewBox="0 0 53 53" fill="none" xmlns="http://www.w3.org/2000/svg">
<path fill-rule="evenodd" clip-rule="evenodd" d="M44.7852 35.4972H4.71V5.37104H44.7852V9.21634C44.4773 9.25857 44.1824 9.36827 43.9217 9.53759C43.661 9.70692 43.4409 9.93169 43.2771 10.1959C43.1133 10.4601 43.0098 10.7572 42.974 11.066C42.9383 11.3748 42.9711 11.6876 43.0702 11.9823C41.1285 13.8317 37.8186 17.42 35.6769 18.7338C34.4 19.3849 33.4032 19.7051 32.0869 20.206C30.5892 20.7781 29.7183 22.4435 30.3038 23.9757L31.1805 26.2737C31.7665 27.8092 33.5248 28.4703 35.0267 27.895C35.1988 27.8284 35.3606 27.764 35.5144 27.7028L37.3496 30.5236C37.8145 31.2378 38.3202 31.4299 38.7439 31.4299C39.1901 31.4299 40.2183 30.9648 40.6443 30.8021C40.8309 30.7341 40.9997 30.6247 41.138 30.4821C41.2762 30.3396 41.3804 30.1675 41.4426 29.9789C41.502 29.7846 41.5167 29.5794 41.4856 29.3786C41.4545 29.1778 41.3784 28.9867 41.263 28.8195L39.7023 26.4722C40.2164 26.4538 40.8489 26.4643 41.7069 26.4923L44.7852 26.5915V35.4972ZM24.049 40.0504V43.9783C23.2272 44.1511 22.4987 44.6222 22.0039 45.3007C21.5092 45.9792 21.2835 46.8169 21.3703 47.6521C21.4571 48.4873 21.8504 49.2607 22.4741 49.823C23.0978 50.3852 23.9077 50.6964 24.7474 50.6964C25.5871 50.6964 26.397 50.3852 27.0208 49.823C27.6445 49.2607 28.0377 48.4873 28.1245 47.6521C28.2114 46.8169 27.9856 45.9792 27.4909 45.3007C26.9962 44.6222 26.2676 44.1511 25.4458 43.9783V40.0504H24.049ZM26.7455 47.301C26.7455 47.6961 26.6283 48.0824 26.4088 48.4109C26.1893 48.7395 25.8772 48.9955 25.5122 49.1468C25.1471 49.298 24.7454 49.3375 24.3579 49.2604C23.9703 49.1834 23.6143 48.9931 23.3349 48.7137C23.0555 48.4343 22.8652 48.0783 22.7882 47.6907C22.7111 47.3032 22.7506 46.9015 22.9019 46.5364C23.0531 46.1714 23.3091 45.8594 23.6377 45.6398C23.9662 45.4203 24.3525 45.3031 24.7476 45.3031C25.2773 45.3039 25.785 45.5146 26.1595 45.8891C26.534 46.2636 26.7447 46.7713 26.7455 47.301ZM50.9027 16.7588C51.1584 17.4296 51.4904 19.4158 50.5444 19.7262L48.6591 14.7846C49.5619 14.3474 50.6523 16.1023 50.9027 16.7588ZM2.47665 2.30273H47.0184C48.1176 2.30273 48.117 3.97399 47.0184 3.97399H2.47665C1.37783 3.97399 1.37732 2.30273 2.47665 2.30273ZM47.0184 38.5661H2.47665C1.37825 38.5661 1.37721 36.8943 2.47665 36.8943H47.0184C48.1176 36.8943 48.1168 38.5661 47.0184 38.5661ZM41.7519 25.0966L48.1472 25.3021L43.6068 13.4002C41.5946 15.3171 39.0489 18.07 36.8415 19.6399L38.9338 25.125C39.6236 25.0534 40.4658 25.0545 41.7519 25.0966ZM34.523 26.5928C35.5064 26.208 36.5599 25.7232 37.5484 25.4136L35.6156 20.3476C34.6512 20.7901 33.5834 21.1314 32.5849 21.5114C31.8072 21.8082 31.3013 22.6694 31.6092 23.4782L32.4857 25.7762C32.7943 26.5837 33.7455 26.8906 34.523 26.594V26.5928ZM38.1668 26.6859C37.7135 26.8213 37.2681 26.982 36.8329 27.1674L38.521 29.7619C38.5806 29.8689 38.662 29.9621 38.7599 30.0356C38.9273 30.0107 39.8914 29.5942 40.058 29.5307L38.1668 26.6859ZM49.9546 26.1197C50.2872 26.994 51.6325 26.4988 51.2934 25.6097L45.7405 11.0535C45.4065 10.1791 44.0626 10.6748 44.4019 11.5643L49.9546 26.1198V26.1197ZM27.5655 18.6375C29.086 17.2344 30.022 15.3318 30.3155 13.0748L31.1747 13.934C31.8232 14.5815 32.817 13.6012 32.1629 12.9453C31.619 12.4016 30.6506 11.5454 30.207 10.9908C29.9421 10.7376 29.4739 10.7127 29.2236 10.995L27.2726 12.9453C26.6226 13.5961 27.6109 14.5834 28.2603 13.934L28.8688 13.3256C28.5679 15.0707 27.8144 16.5071 26.6183 17.6111C24.9166 19.181 22.3856 19.9568 19.6733 19.7377C16.5095 19.4837 13.5735 20.3744 11.6198 22.1813C9.78082 23.8819 8.81222 26.3723 8.81843 29.3814C8.82081 30.3065 10.2182 30.3033 10.2159 29.379C10.2102 26.7324 11.0017 24.6561 12.5686 23.2064C14.2364 21.664 16.7855 20.9074 19.5615 21.1307C22.6616 21.381 25.5786 20.4717 27.5657 18.6376L27.5655 18.6375ZM9.51706 13.6947L10.7028 14.8805C11.3513 15.5281 12.3453 14.5474 11.6909 13.8926L10.505 12.7068L11.6909 11.5205C12.3408 10.871 11.3528 9.88339 10.7028 10.5331L9.51706 11.7191L8.33139 10.5332C7.68307 9.88432 6.69315 10.8696 7.34334 11.5212L8.52973 12.7069L7.34334 13.8927C6.6885 14.5483 7.68494 15.5282 8.33139 14.8806L9.51706 13.6947ZM27.8147 28.1945C28.4648 27.5446 27.4762 26.5567 26.8267 27.2065L25.6412 28.3921L24.4553 27.2065C23.8052 26.5567 22.8176 27.5448 23.4672 28.1945L24.6528 29.3808L23.4672 30.5658C22.8119 31.2212 23.8088 32.2023 24.4553 31.5537L25.6412 30.368L26.8267 31.5537C27.4724 32.2023 28.4705 31.2212 27.8147 30.5658L26.6289 29.3808L27.8147 28.1945Z" fill="#E8E8E8"/>
</svg>
