<svg width="59" height="59" viewBox="0 0 59 59" fill="none" xmlns="http://www.w3.org/2000/svg">
<path fill-rule="evenodd" clip-rule="evenodd" d="M37.1127 12.4942C37.3851 12.4942 37.6514 12.575 37.8778 12.7264C38.1043 12.8777 38.2809 13.0928 38.3851 13.3445C38.4893 13.5961 38.5166 13.8731 38.4635 14.1402C38.4103 14.4074 38.2792 14.6528 38.0866 14.8454C37.8939 15.038 37.6485 15.1692 37.3814 15.2223C37.1142 15.2755 36.8373 15.2482 36.5856 15.144C36.3339 15.0397 36.1188 14.8632 35.9675 14.6367C35.8162 14.4102 35.7354 14.1439 35.7354 13.8715C35.7354 13.5063 35.8805 13.1559 36.1388 12.8976C36.3971 12.6394 36.7474 12.4942 37.1127 12.4942ZM43.4621 12.4942C43.7345 12.4942 44.0008 12.575 44.2273 12.7264C44.4537 12.8777 44.6303 13.0928 44.7345 13.3445C44.8388 13.5961 44.866 13.8731 44.8129 14.1402C44.7598 14.4074 44.6286 14.6528 44.436 14.8454C44.2434 15.038 43.9979 15.1692 43.7308 15.2223C43.4636 15.2755 43.1867 15.2482 42.935 15.144C42.6834 15.0397 42.4683 14.8632 42.3169 14.6367C42.1656 14.4102 42.0848 14.1439 42.0848 13.8715C42.0848 13.5063 42.2299 13.1559 42.4882 12.8976C42.7465 12.6394 43.0968 12.4942 43.4621 12.4942ZM49.8115 12.4942C50.0839 12.4942 50.3502 12.575 50.5767 12.7264C50.8032 12.8777 50.9797 13.0928 51.0839 13.3445C51.1882 13.5961 51.2155 13.8731 51.1623 14.1402C51.1092 14.4074 50.978 14.6528 50.7854 14.8454C50.5928 15.038 50.3474 15.1692 50.0802 15.2223C49.813 15.2755 49.5361 15.2482 49.2844 15.144C49.0328 15.0397 48.8177 14.8632 48.6663 14.6367C48.515 14.4102 48.4342 14.1439 48.4342 13.8715C48.4342 13.5063 48.5793 13.1559 48.8376 12.8976C49.0959 12.6394 49.4462 12.4942 49.8115 12.4942ZM41.0537 38.5766C41.2835 38.5766 41.5081 38.6448 41.6991 38.7724C41.8902 38.9001 42.0391 39.0815 42.127 39.2938C42.215 39.5061 42.238 39.7397 42.1931 39.9651C42.1483 40.1904 42.0377 40.3975 41.8752 40.5599C41.7127 40.7224 41.5057 40.8331 41.2803 40.8779C41.055 40.9227 40.8214 40.8997 40.6091 40.8118C40.3968 40.7238 40.2153 40.5749 40.0877 40.3839C39.96 40.1928 39.8919 39.9682 39.8919 39.7384C39.8919 39.4303 40.0143 39.1348 40.2322 38.9169C40.45 38.699 40.7456 38.5766 41.0537 38.5766ZM46.4104 38.5766C46.6401 38.5766 46.8648 38.6448 47.0558 38.7724C47.2469 38.9001 47.3958 39.0815 47.4837 39.2938C47.5716 39.5061 47.5947 39.7397 47.5498 39.9651C47.505 40.1904 47.3943 40.3975 47.2319 40.5599C47.0694 40.7224 46.8624 40.8331 46.637 40.8779C46.4116 40.9227 46.178 40.8997 45.9658 40.8118C45.7535 40.7238 45.572 40.5749 45.4444 40.3839C45.3167 40.1928 45.2486 39.9682 45.2486 39.7384C45.2486 39.4303 45.371 39.1348 45.5888 38.9169C45.8067 38.699 46.1022 38.5766 46.4104 38.5766ZM51.7669 38.5766C51.9967 38.5766 52.2213 38.6448 52.4124 38.7724C52.6034 38.9001 52.7523 39.0815 52.8403 39.2938C52.9282 39.5061 52.9512 39.7397 52.9064 39.9651C52.8615 40.1904 52.7509 40.3975 52.5884 40.5599C52.4259 40.7224 52.2189 40.8331 51.9936 40.8779C51.7682 40.9227 51.5346 40.8997 51.3223 40.8118C51.11 40.7238 50.9286 40.5749 50.8009 40.3839C50.6733 40.1928 50.6051 39.9682 50.6051 39.7384C50.6051 39.4303 50.7275 39.1348 50.9454 38.9169C51.1633 38.699 51.4588 38.5766 51.7669 38.5766ZM18.7765 13.1625C18.5685 13.1625 18.3651 13.2242 18.1922 13.3397C18.0193 13.4553 17.8845 13.6195 17.8049 13.8117C17.7253 14.0038 17.7045 14.2153 17.745 14.4193C17.7856 14.6233 17.8858 14.8107 18.0328 14.9577C18.1799 15.1048 18.3673 15.205 18.5713 15.2455C18.7753 15.2861 18.9867 15.2653 19.1789 15.1857C19.3711 15.1061 19.5353 14.9713 19.6509 14.7984C19.7664 14.6254 19.8281 14.4221 19.8281 14.2141C19.8281 13.9352 19.7172 13.6678 19.52 13.4705C19.3228 13.2733 19.0554 13.1625 18.7765 13.1625ZM13.9276 13.1625C13.7196 13.1625 13.5163 13.2242 13.3434 13.3398C13.1705 13.4553 13.0357 13.6196 12.9561 13.8118C12.8765 14.0039 12.8557 14.2154 12.8963 14.4194C12.9369 14.6233 13.0371 14.8107 13.1842 14.9578C13.3312 15.1048 13.5186 15.205 13.7226 15.2456C13.9266 15.2861 14.1381 15.2653 14.3302 15.1857C14.5224 15.1061 14.6866 14.9713 14.8021 14.7984C14.9177 14.6254 14.9794 14.4221 14.9794 14.2141C14.9794 14.076 14.9522 13.9393 14.8993 13.8117C14.8464 13.6841 14.769 13.5681 14.6713 13.4705C14.5736 13.3728 14.4577 13.2954 14.3301 13.2425C14.2025 13.1897 14.0657 13.1625 13.9276 13.1625ZM9.07891 13.1625C8.87091 13.1625 8.66759 13.2242 8.49465 13.3397C8.32171 13.4553 8.18692 13.6195 8.10733 13.8117C8.02773 14.0038 8.00691 14.2153 8.04748 14.4193C8.08806 14.6233 8.18822 14.8107 8.33529 14.9577C8.48237 15.1048 8.66975 15.205 8.87374 15.2455C9.07774 15.2861 9.28919 15.2653 9.48135 15.1857C9.67351 15.1061 9.83775 14.9713 9.9533 14.7984C10.0689 14.6254 10.1305 14.4221 10.1305 14.2141C10.1305 13.9352 10.0197 13.6677 9.82252 13.4705C9.6253 13.2733 9.35782 13.1625 9.07891 13.1625ZM5.41595 36.1322L4.5366 36.318C4.32711 36.3666 4.13024 36.4589 3.95886 36.5888C3.78749 36.7188 3.64548 36.8834 3.54213 37.072C3.29564 37.5087 3.21774 38.0206 3.32318 38.5108L4.45985 44.0409L4.46308 44.0564C4.55985 44.5397 4.83044 44.9708 5.22363 45.2681C5.39161 45.3976 5.58501 45.4902 5.7912 45.54C5.9974 45.5897 6.21177 45.5955 6.42033 45.5568L7.31363 45.3681L5.41595 36.1322ZM8.62442 45.5109L6.55735 35.458C6.56521 35.3946 6.56322 35.3303 6.55147 35.2674C6.5621 35.2184 6.58163 35.1718 6.60909 35.1299C6.66446 35.0434 6.75179 34.9824 6.852 34.9601L13.366 33.5833L15.6015 44.4563L9.06807 45.8369C8.97291 45.8524 8.8754 45.8313 8.79508 45.778C8.75912 45.7544 8.72724 45.7251 8.70071 45.6913C8.68477 45.6275 8.65887 45.5666 8.62396 45.5109H8.62442ZM16.844 44.2699C19.0466 44.1229 21.3524 44.3692 23.4623 44.8469C25.163 45.2202 26.8153 45.7872 28.3869 46.5367L24.2683 26.4997C23.1249 27.8205 21.8356 29.0076 20.425 30.0382C18.675 31.3338 16.6558 32.4955 14.5794 33.2522L16.8441 44.2699H16.844ZM11.5269 46.6001L14.2104 46.0329L15.6894 52.9858C15.7923 53.4697 15.5421 53.8492 15.1649 54.076C14.9864 54.1815 14.7917 54.2566 14.5887 54.2985C14.3835 54.3422 14.1724 54.3519 13.964 54.3271C13.5106 54.2713 13.1105 54.0192 13.0052 53.5256L11.5274 46.6001H11.5269ZM31.7314 38.0162C31.9866 37.7652 32.1925 37.4686 32.3386 37.1418C32.6263 36.4932 32.7018 35.7702 32.5542 35.076C32.4182 34.3838 32.0656 33.7527 31.5474 33.274C31.2838 33.0328 30.9766 32.8439 30.6424 32.7174L31.7314 38.0162ZM30.6988 39.2227L32.1147 46.1109C32.2582 46.8087 32.0296 47.3114 31.6602 47.5778C31.5178 47.6797 31.3557 47.7507 31.1842 47.7862C31.0128 47.8218 30.8358 47.8213 30.6646 47.7845C30.2283 47.6876 29.8285 47.322 29.6868 46.633L25.3758 25.6604C25.3305 25.4534 25.321 25.2401 25.3478 25.0299C25.3937 24.9417 25.4178 24.8439 25.4182 24.7445C25.497 24.5234 25.6406 24.3313 25.8303 24.1933C25.9727 24.0915 26.1349 24.0205 26.3063 23.9849C26.4777 23.9493 26.6547 23.9499 26.8259 23.9866C27.2623 24.0835 27.6621 24.4491 27.8037 25.1381L30.6854 39.1571C30.6887 39.1792 30.6932 39.2012 30.6988 39.2229V39.2227ZM53.0518 4.66016H33.5987C33.184 4.66183 32.7868 4.82731 32.4936 5.12055C32.2003 5.4138 32.0349 5.81104 32.0332 6.22573V21.3655C32.0349 21.7801 32.2004 22.1773 32.4936 22.4706C32.7868 22.7638 33.184 22.9292 33.5987 22.9309H38.5472C38.7141 22.9309 38.8742 22.9972 38.9922 23.1152C39.1102 23.2332 39.1765 23.3933 39.1765 23.5602V26.0946L44.4551 23.0473C44.5614 22.9715 44.6888 22.9309 44.8194 22.9311H53.0518C53.4664 22.9295 53.8637 22.764 54.1569 22.4708C54.4501 22.1776 54.6156 21.7804 54.6172 21.3657V6.22573C54.6156 5.81104 54.4501 5.4138 54.1569 5.12055C53.8637 4.82731 53.4665 4.66183 53.0518 4.66016ZM54.4996 32.0665H38.0894C37.7657 32.0678 37.4556 32.197 37.2267 32.4259C36.9978 32.6548 36.8686 32.9648 36.8672 33.2885V46.0596C36.8686 46.3833 36.9978 46.6934 37.2267 46.9223C37.4556 47.1512 37.7657 47.2804 38.0894 47.2818H42.2639C42.4308 47.2818 42.5908 47.3481 42.7089 47.4662C42.8269 47.5842 42.8932 47.7443 42.8932 47.9112V49.8777L45.5271 48.3566L45.5278 48.3577L47.1906 47.3976C47.297 47.3219 47.4244 47.2812 47.555 47.2814H54.4996C54.8232 47.2801 55.1333 47.1509 55.3622 46.9221C55.591 46.6932 55.7203 46.3833 55.7217 46.0596V33.2885C55.7204 32.9648 55.5911 32.6548 55.3622 32.4259C55.1333 32.197 54.8233 32.0678 54.4996 32.0665ZM21.4597 7.32933C21.7369 7.33054 22.0024 7.44119 22.1984 7.63719C22.3944 7.83319 22.5051 8.09869 22.5064 8.37589V19.9365C22.5051 20.2137 22.3944 20.4792 22.1984 20.6752C22.0024 20.8712 21.7369 20.9819 21.4597 20.9831H17.681C17.5141 20.9831 17.3541 21.0494 17.2361 21.1674C17.118 21.2854 17.0517 21.4455 17.0517 21.6124V23.2893L14.757 21.9641V21.9651L13.2559 21.0998C13.1495 21.0241 13.0221 20.9835 12.8916 20.9837H6.60529C6.32808 20.9825 6.06258 20.8719 5.86656 20.6758C5.67055 20.4798 5.55991 20.2143 5.55873 19.9371V8.37566C5.56003 8.09852 5.67072 7.8331 5.86671 7.63715C6.0627 7.4412 6.32814 7.33057 6.60529 7.32933H21.4597Z" fill="#E8E8E8"/>
</svg>
