<svg width="54" height="54" viewBox="0 0 54 54" fill="none" xmlns="http://www.w3.org/2000/svg">
<g clip-path="url(#clip0_3749_415)">
<path fill-rule="evenodd" clip-rule="evenodd" d="M48.7498 11.9612C46.8302 11.9612 45.7798 14.1782 46.9463 15.6653L45.4338 18.2429H44.4593C44.7346 18.7914 44.9856 19.3546 45.2092 19.9304H45.9127C46.2491 19.9304 46.5402 19.7332 46.6752 19.4474L48.3954 16.5164C49.7834 16.7316 51.0405 15.66 51.0405 14.253C51.0405 12.9864 50.0143 11.9612 48.7498 11.9612ZM14.7424 36.5449H39.2586C39.6784 36.5449 40.0222 36.2011 40.0222 35.7813V18.2187C40.0222 17.7989 39.6784 17.4551 39.2586 17.4551H14.7424C14.3227 17.4551 13.9788 17.7989 13.9788 18.2187V35.7813C13.9788 36.2011 14.3216 36.5449 14.7424 36.5449ZM28.5198 24.9729H31.2377C31.397 24.9729 31.5267 25.1026 31.5267 25.2619V34.0516C31.5267 34.2109 31.397 34.3406 31.2377 34.3406H28.5198C28.3605 34.3406 28.2308 34.2109 28.2308 34.0516V25.2619C28.2298 25.1026 28.3595 24.9729 28.5198 24.9729ZM34.2752 19.6583H36.9932C37.1524 19.6583 37.2821 19.788 37.2821 19.9473V34.0516C37.2821 34.2109 37.1524 34.3406 36.9932 34.3406H34.2752C34.116 34.3406 33.9862 34.2109 33.9862 34.0516V19.9484C33.9862 19.788 34.116 19.6583 34.2752 19.6583ZM17.0068 28.6H19.7237C19.883 28.6 20.0127 28.7297 20.0127 28.8889V34.0516C20.0127 34.2109 19.883 34.3406 19.7237 34.3406H17.0068C16.8476 34.3406 16.7179 34.2109 16.7179 34.0516V28.8889C16.7179 28.7297 16.8476 28.6 17.0068 28.6ZM22.7633 22.237H25.4802C25.6395 22.237 25.7692 22.3668 25.7692 22.526V34.0516C25.7692 34.2109 25.6395 34.3406 25.4802 34.3406H22.7633C22.6041 34.3406 22.4743 34.2109 22.4743 34.0516V22.526C22.4733 22.3668 22.6041 22.237 22.7633 22.237ZM12.5729 16.5027H12.9959C13.4409 16.0502 14.06 15.7676 14.7414 15.7676H18.2851C19.1067 13.5949 20.2595 11.4982 21.7877 9.93305C18.0615 11.07 14.8363 13.3977 12.5729 16.5027ZM26.1562 15.7676H20.0918C21.3616 12.6868 23.4489 9.76852 26.1562 9.24117V15.7676ZM33.9082 15.7676C32.6384 12.6868 30.5511 9.76852 27.8438 9.24117V15.7676H33.9082ZM41.0031 16.5027C40.558 16.0502 39.9389 15.7676 39.2576 15.7676H35.7138C34.8922 13.596 33.7395 11.4982 32.2112 9.93305C35.9374 11.07 39.1637 13.3977 41.426 16.5027H41.0031ZM42.5166 18.1902C43.8645 20.5601 44.6861 23.2685 44.82 26.1562H41.7087V18.2187C41.7087 18.2092 41.7087 18.1997 41.7087 18.1902H42.5166ZM12.2913 18.1902H11.4834C10.1345 20.5601 9.31394 23.2685 9.17895 26.1562H12.2903V18.2187C12.2913 18.2092 12.2913 18.1997 12.2913 18.1902ZM11.4834 35.8098H12.2913C12.2913 35.8003 12.2913 35.7908 12.2913 35.7813V27.8438H9.18C9.31395 30.7315 10.1345 33.4399 11.4834 35.8098ZM41.7087 35.8098H42.5166C43.8645 33.4399 44.6861 30.7315 44.82 27.8438H41.7087V35.7813V35.8098ZM41.4271 37.4973H41.0041C40.5591 37.9498 39.94 38.2324 39.2586 38.2324H35.7149C34.8933 40.404 33.7405 42.5018 32.2123 44.067C35.9385 42.93 39.1648 40.6023 41.4271 37.4973ZM27.8438 38.2324H33.9082C32.6384 41.3132 30.5511 44.2315 27.8438 44.7588V38.2324ZM20.0918 38.2324C21.3616 41.3132 23.4489 44.2315 26.1562 44.7588V38.2324H20.0918ZM12.9969 37.4973C13.442 37.9498 14.0611 38.2324 14.7424 38.2324H18.2862C19.1078 40.404 20.2605 42.5018 21.7888 44.067C18.0626 42.9311 14.8363 40.6023 12.574 37.4973H12.9969ZM46.5096 26.1562H48.6295C48.966 25.3083 49.7929 24.7092 50.76 24.7092C52.0256 24.7092 53.0508 25.7354 53.0508 27C53.0508 28.2656 52.0246 29.2908 50.76 29.2908C49.7929 29.2908 48.966 28.6917 48.6295 27.8438H46.5096V26.1562ZM34.0696 8.79187V8.0884C34.0696 7.75195 34.2668 7.46086 34.5526 7.32586L37.4836 5.60566C37.2684 4.2177 38.34 2.96051 39.747 2.96051C41.0126 2.96051 42.0377 3.98566 42.0377 5.25129C42.0377 7.17082 39.8208 8.22129 38.3337 7.0548L35.756 8.56723V9.54176C35.2097 9.26543 34.6465 9.01547 34.0696 8.79187ZM26.1562 7.49039V5.37047C25.3083 5.03402 24.7092 4.20715 24.7092 3.24C24.7092 1.97543 25.7344 0.949219 27 0.949219C28.2656 0.949219 29.2908 1.97543 29.2908 3.24C29.2908 4.20715 28.6917 5.03402 27.8438 5.37047V7.49039H26.1562ZM18.2429 9.54176V8.56723L15.6653 7.0548C14.1782 8.22129 11.9612 7.17082 11.9612 5.25129C11.9612 3.98566 12.9874 2.96051 14.252 2.96051C15.66 2.96051 16.7305 4.21664 16.5154 5.60566L19.4463 7.32586C19.7321 7.46086 19.9294 7.75195 19.9294 8.0884V8.79293C19.3535 9.01547 18.7903 9.26543 18.2429 9.54176ZM8.79187 19.9304H8.0884C7.75195 19.9304 7.46086 19.7332 7.32586 19.4474L5.60566 16.5164C4.2177 16.7316 2.96051 15.66 2.96051 14.253C2.96051 12.9874 3.98566 11.9623 5.25129 11.9623C7.17082 11.9623 8.22129 14.1792 7.0548 15.6663L8.56723 18.244H9.54176C9.26543 18.7903 9.01547 19.3535 8.79187 19.9304ZM7.49039 27.8438H5.37047C5.03402 28.6917 4.20715 29.2908 3.24 29.2908C1.97543 29.2908 0.949219 28.2656 0.949219 27C0.949219 25.7344 1.97543 24.7092 3.24 24.7092C4.20715 24.7092 5.03402 25.3083 5.37047 26.1562H7.49039V27.8438ZM9.54176 35.7571H8.56723L7.0548 38.3347C8.22129 39.8218 7.17082 42.0388 5.25129 42.0388C3.98566 42.0388 2.96051 41.0126 2.96051 39.748C2.96051 38.34 4.21664 37.2695 5.60566 37.4846L7.32586 34.5537C7.46086 34.2679 7.75195 34.0706 8.0884 34.0706H8.79293C9.01547 34.6465 9.26543 35.2097 9.54176 35.7571ZM19.9304 45.2081V45.9116C19.9304 46.248 19.7332 46.5391 19.4474 46.6741L16.5164 48.3943C16.7316 49.7834 15.66 51.0395 14.253 51.0395C12.9874 51.0395 11.9623 50.0143 11.9623 48.7487C11.9623 46.8292 14.1792 45.7787 15.6663 46.9452L18.244 45.4328V44.4582C18.7903 44.7346 19.3535 44.9845 19.9304 45.2081ZM27.8438 46.5096V48.6295C28.6917 48.966 29.2908 49.7929 29.2908 50.76C29.2908 52.0256 28.2646 53.0508 27 53.0508C25.7344 53.0508 24.7092 52.0246 24.7092 50.76C24.7092 49.7929 25.3083 48.966 26.1562 48.6295V46.5096H27.8438ZM35.7571 44.4582V45.4328L38.3347 46.9452C39.8218 45.7787 42.0388 46.8292 42.0388 48.7487C42.0388 50.0143 41.0126 51.0395 39.748 51.0395C38.34 51.0395 37.2695 49.7834 37.4846 48.3943L34.5537 46.6741C34.2679 46.5391 34.0706 46.248 34.0706 45.9116V45.2081C34.6465 44.9845 35.2097 44.7346 35.7571 44.4582ZM45.2081 34.0696H45.9116C46.248 34.0696 46.5391 34.2668 46.6741 34.5526L48.3943 37.4836C49.7823 37.2684 51.0395 38.34 51.0395 39.747C51.0395 41.0126 50.0143 42.0377 48.7487 42.0377C46.8292 42.0377 45.7787 39.8208 46.9452 38.3337L45.4328 35.756H44.4582C44.7346 35.2086 44.9845 34.6465 45.2081 34.0696Z" fill="#E8E8E8"/>
</g>
<defs>
<clipPath id="clip0_3749_415">
<rect width="54" height="54" fill="white"/>
</clipPath>
</defs>
</svg>
