<svg width="53" height="53" viewBox="0 0 53 53" fill="none" xmlns="http://www.w3.org/2000/svg">
<path d="M17.391 23.1875C15.4577 23.1879 13.5552 23.6717 11.8566 24.5949C10.158 25.5182 8.71721 26.8516 7.6654 28.4737C6.61359 30.0959 5.98414 31.9553 5.83432 33.8828C5.6845 35.8103 6.01907 37.7446 6.80758 39.5098L5.68133 40.6361C5.60371 40.7131 5.5421 40.8047 5.50006 40.9056C5.45802 41.0065 5.43637 41.1147 5.43637 41.2241C5.43637 41.3334 5.45802 41.4416 5.50006 41.5425C5.5421 41.6435 5.60371 41.735 5.68133 41.812L6.26102 42.3917L0.994141 47.6669L4.50539 51.1781L9.78055 45.9113L10.3602 46.4909C10.4372 46.5686 10.5288 46.6302 10.6297 46.6722C10.7306 46.7143 10.8389 46.7359 10.9482 46.7359C11.0575 46.7359 11.1658 46.7143 11.2667 46.6722C11.3676 46.6302 11.4592 46.5686 11.5362 46.4909L12.6624 45.3647C14.24 46.0702 15.9553 46.4142 17.6829 46.3714C19.4105 46.3287 21.1067 45.9002 22.6474 45.1175C24.188 44.3347 25.5343 43.2174 26.5875 41.8473C27.6408 40.4773 28.3744 38.8891 28.7348 37.1989C29.0951 35.5088 29.0731 33.7594 28.6703 32.0789C28.2675 30.3984 27.4941 28.8291 26.4067 27.486C25.3193 26.1429 23.9454 25.0598 22.3855 24.3161C20.8256 23.5724 19.1191 23.1868 17.391 23.1875ZM17.391 43.0625C15.7531 43.0625 14.152 42.5768 12.7902 41.6669C11.4284 40.7569 10.3669 39.4636 9.74014 37.9503C9.11335 36.4371 8.94935 34.7721 9.26889 33.1657C9.58842 31.5593 10.3771 30.0837 11.5353 28.9255C12.6934 27.7674 14.169 26.9787 15.7754 26.6591C17.3818 26.3396 19.0469 26.5036 20.5601 27.1304C22.0733 27.7572 23.3667 28.8186 24.2766 30.1804C25.1866 31.5423 25.6723 33.1434 25.6723 34.7813C25.6723 36.9776 24.7998 39.0839 23.2467 40.637C21.6937 42.19 19.5873 43.0625 17.391 43.0625Z" fill="#E8E8E8"/>
<path d="M19.0883 33.9535H15.7344C15.1853 33.9535 14.6587 34.1717 14.2704 34.5599C13.8822 34.9482 13.6641 35.4748 13.6641 36.0239V40.2307C14.7714 40.9964 16.0857 41.4066 17.432 41.4066C18.7783 41.4066 20.0927 40.9964 21.2 40.2307V36.0239C21.2001 35.7485 21.1452 35.4758 21.0385 35.2219C20.9319 34.968 20.7757 34.7379 20.5791 34.5451C20.3824 34.3523 20.1493 34.2007 19.8933 34.0991C19.6373 33.9975 19.3636 33.948 19.0883 33.9535Z" fill="#E8E8E8"/>
<path d="M17.3906 33.9531C18.6484 33.9531 19.668 32.9335 19.668 31.6758C19.668 30.418 18.6484 29.3984 17.3906 29.3984C16.1329 29.3984 15.1133 30.418 15.1133 31.6758C15.1133 32.9335 16.1329 33.9531 17.3906 33.9531Z" fill="#E8E8E8"/>
<path d="M43.8906 40.5781V1.65625H15.7344V21.6472C16.2836 21.575 16.8367 21.5363 17.3906 21.5312C20.0797 21.5368 22.7034 22.3604 24.9132 23.8926C27.123 25.4248 28.8143 27.5931 29.7624 30.1094C30.7105 32.6258 30.8706 35.371 30.2213 37.9805C29.572 40.59 28.1441 42.9401 26.1273 44.7188H48.0312C46.9331 44.7188 45.8799 44.2825 45.1034 43.506C44.3269 42.7295 43.8906 41.6763 43.8906 40.5781ZM21.5312 18.2188V6.625H38.0938V18.2188H21.5312ZM39.75 37.2656H34.7812V35.6094H39.75V37.2656ZM39.75 32.2969H33.9531V30.6406H39.75V32.2969ZM39.75 27.3281H32.2969V25.6719H39.75V27.3281Z" fill="#E8E8E8"/>
<path d="M45.5469 39.75C45.5469 40.6285 45.8959 41.4711 46.5171 42.0923C47.1383 42.7135 47.9808 43.0625 48.8594 43.0625C49.7379 43.0625 50.5805 42.7135 51.2017 42.0923C51.8229 41.4711 52.1719 40.6285 52.1719 39.75V28.1562H45.5469V39.75Z" fill="#E8E8E8"/>
</svg>
