<svg width="60" height="61" viewBox="0 0 60 61" fill="none" xmlns="http://www.w3.org/2000/svg">
<path d="M39.9422 16.0793C39.3786 15.8915 39.0028 15.5157 39.0028 15.2339C39.0028 14.8581 39.3786 14.5763 39.9422 14.3884C40.4119 14.2945 40.6938 13.8248 40.5998 13.3551C40.318 11.8521 39.7544 10.5369 38.9089 9.22177C38.6271 8.84601 38.1574 8.65813 37.6877 8.93995C37.1241 9.22177 36.6544 9.22177 36.3725 9.03389C36.1847 8.84601 36.1847 8.28237 36.4665 7.71874C36.6544 7.24904 36.5604 6.77934 36.1847 6.49752C34.9635 5.65207 33.5544 5.08843 32.0513 4.80661C31.5816 4.71268 31.1119 4.99449 31.018 5.46419C30.8301 6.02783 30.4544 6.40358 30.1725 6.40358C29.8907 6.40358 29.515 6.02783 29.3271 5.46419C29.2332 4.99449 28.7635 4.71268 28.2938 4.80661C26.7907 5.08843 25.4756 5.65207 24.2544 6.49752C23.8786 6.77934 23.6907 7.24904 23.9725 7.71874C24.2544 8.18843 24.2544 8.75207 24.0665 9.03389C23.8786 9.22177 23.315 9.22177 22.7513 8.93995C22.2816 8.75207 21.8119 8.84601 21.5301 9.22177C20.6847 10.443 20.121 11.8521 19.8392 13.3551C19.7453 13.8248 20.0271 14.2945 20.4968 14.3884C21.0604 14.5763 21.4362 14.9521 21.4362 15.2339C21.4362 15.5157 21.0604 15.8915 20.4968 16.0793C20.0271 16.1733 19.7453 16.643 19.8392 17.1127C20.121 18.6157 20.6847 19.9309 21.5301 21.246C21.8119 21.6218 22.3756 21.7157 22.7513 21.5278C23.315 21.246 23.7847 21.246 24.0665 21.4339C24.2544 21.6218 24.2544 22.1854 23.9725 22.749C23.7847 23.1248 23.8786 23.6884 24.2544 23.9703C25.4756 24.8157 26.8847 25.3793 28.2938 25.6612C28.7635 25.7551 29.2332 25.4733 29.3271 25.0036C29.515 24.44 29.8907 24.0642 30.1725 24.0642C30.4544 24.0642 30.8301 24.44 31.018 25.0036C31.1119 25.3793 31.4877 25.6612 31.9574 25.6612H32.1453C33.6483 25.3793 34.9635 24.8157 36.2786 23.9703C36.6544 23.6884 36.8422 23.2187 36.5604 22.749C36.2786 22.1854 36.2786 21.7157 36.4665 21.4339C36.6544 21.246 37.218 21.246 37.7816 21.5278C38.1574 21.7157 38.721 21.6218 39.0028 21.246C39.8483 20.0248 40.4119 18.6157 40.6938 17.1127C40.6938 16.643 40.4119 16.2672 39.9422 16.0793ZM38.6271 17.4884C38.4392 18.2399 38.1574 18.8975 37.7816 19.4612C36.7483 19.1793 35.8089 19.3672 35.1513 20.0248C34.4938 20.6824 34.3059 21.7157 34.5877 22.6551C33.9301 23.0309 33.2725 23.3127 32.615 23.5006C32.0513 22.5612 31.2059 21.9975 30.3604 21.9975C29.421 21.9975 28.5756 22.5612 28.0119 23.5006C27.2604 23.3127 26.6028 23.0309 26.0392 22.6551C26.321 21.6218 26.1332 20.6824 25.4756 20.0248C24.818 19.3672 23.7847 19.1793 22.8453 19.4612C22.4695 18.8036 22.1877 18.146 21.9998 17.4884C22.9392 17.0187 23.5028 16.1733 23.5028 15.2339C23.5028 14.2945 22.9392 13.449 21.9998 12.9793C22.1877 12.2278 22.4695 11.5703 22.8453 11.0066C23.8786 11.2884 24.818 11.1006 25.4756 10.443C26.1332 9.7854 26.321 8.75207 26.0392 7.81268C26.6968 7.43692 27.3544 7.1551 28.0119 6.96722C28.5756 7.90661 29.421 8.47025 30.3604 8.47025C31.2998 8.47025 32.1453 7.90661 32.615 6.96722C33.3665 7.1551 34.0241 7.43692 34.5877 7.81268C34.3059 8.84601 34.4938 9.7854 35.1513 10.443C35.8089 11.1006 36.8422 11.2884 37.7816 11.0066C38.1574 11.6642 38.4392 12.3218 38.6271 12.9793C37.6877 13.543 37.1241 14.3884 37.1241 15.2339C37.1241 16.1733 37.6877 17.0187 38.6271 17.4884Z" fill="#E8E8E8"/>
<path d="M45.5786 57.3187C45.5786 58.9157 44.2635 60.1369 42.7604 60.1369H17.5847C15.9877 60.1369 14.7665 58.9157 14.7665 57.3187C14.7665 49.7096 20.3089 48.6763 26.0392 48.3006C26.321 48.3006 26.6968 48.3945 26.8847 48.6763L30.1725 53.0915L33.4604 48.6763C33.6483 48.3945 33.9301 48.3006 34.3059 48.3006C40.0362 48.6763 45.5786 49.7096 45.5786 57.3187Z" fill="#E8E8E8"/>
<path d="M59.1998 17.4884C58.3544 17.2066 57.7907 16.7369 57.7907 16.1733C57.7907 15.6096 58.3544 15.046 59.1998 14.8581C59.6695 14.6703 59.9513 14.2945 59.8574 13.8248C59.4816 11.946 58.8241 10.2551 57.6968 8.65813C57.415 8.28237 56.9453 8.09449 56.4756 8.37631C55.7241 8.75207 54.8786 8.84601 54.5028 8.37631C54.1271 8.00056 54.1271 7.24904 54.5968 6.40358C54.7847 5.93389 54.6907 5.46419 54.315 5.18237C52.718 4.0551 51.0271 3.39752 49.1483 3.02177C48.6786 2.92783 48.2089 3.20965 48.115 3.67934C47.8332 4.5248 47.2695 5.08843 46.7998 5.08843C46.2362 5.08843 45.6725 4.5248 45.4847 3.67934C45.3907 3.20965 44.921 2.92783 44.4513 3.02177C43.1362 3.20964 42.0089 3.67934 40.7877 4.24298C37.6877 1.33086 33.7422 -0.172174 29.6089 0.0157052C25.7574 0.203584 22.1877 1.89449 19.5574 4.43086C18.3362 3.77328 16.9271 3.30358 15.6119 3.02177C15.1422 2.92783 14.6725 3.20965 14.5786 3.67934C14.2968 4.5248 13.7332 5.08843 13.2635 5.08843C12.6998 5.08843 12.1362 4.5248 11.9483 3.67934C11.8544 3.20965 11.3847 2.92783 10.915 3.02177C9.03618 3.39752 7.34527 4.0551 5.7483 5.18237C5.18467 5.37025 5.09073 5.93389 5.27861 6.30965C5.65436 7.06116 5.7483 7.90662 5.37255 8.28237C4.99679 8.65813 4.24527 8.65813 3.39982 8.28237C2.93012 8.09449 2.46042 8.18843 2.17861 8.56419C1.14527 10.1612 0.393757 11.8521 0.017999 13.7309C-0.0759405 14.2006 0.205878 14.6703 0.675575 14.7642C1.52103 15.046 2.08467 15.6096 2.08467 16.0793C2.08467 16.643 1.52103 17.1127 0.675575 17.3945C0.205878 17.5824 -0.0759405 17.9581 0.017999 18.4278C0.393757 20.3066 1.05133 21.9975 2.17861 23.5945C2.46042 23.9703 2.93012 24.0642 3.39982 23.8763C4.24527 23.5006 4.99679 23.5006 5.37255 23.8763C5.7483 24.2521 5.7483 25.0036 5.27861 25.849C5.09073 26.3187 5.18467 26.7884 5.56042 27.0703C7.15739 28.1975 8.8483 28.8551 10.7271 29.2309C11.1968 29.3248 11.6665 29.043 11.7604 28.5733C12.0422 27.7278 12.6059 27.1642 13.0756 27.1642C13.6392 27.1642 14.2028 27.7278 14.3907 28.5733C14.4847 28.949 14.8604 29.2309 15.3301 29.2309H15.518C17.3968 28.8551 19.0877 28.1975 20.5907 27.1642C22.2816 29.5127 23.221 32.143 23.221 34.8672V34.9612H22.2816C21.8119 34.9612 21.3422 35.3369 21.3422 35.9006V41.5369C21.3422 41.8187 21.4362 42.1006 21.718 42.2884L26.415 46.046C26.6028 46.14 26.7907 46.2339 26.9786 46.2339H33.2725C33.4604 46.2339 33.6483 46.14 33.8362 46.046L38.5331 42.2884C38.721 42.1006 38.9089 41.8187 38.9089 41.5369V35.9006C38.9089 35.3369 38.5332 34.9612 37.9695 34.9612H37.0301V34.3975C37.0301 31.8612 37.8756 29.4187 39.4725 27.3521C40.9756 28.2915 42.5725 28.949 44.2635 29.3248C44.7332 29.4187 45.2028 29.1369 45.2968 28.6672C45.5786 27.8218 46.1422 27.2581 46.6119 27.2581C47.1756 27.2581 47.7392 27.8218 47.9271 28.6672C48.021 29.043 48.3968 29.3248 48.8665 29.3248H49.0544C50.9332 28.949 52.6241 28.2915 54.221 27.1642C54.5968 26.8824 54.6907 26.4127 54.5028 25.943C54.0331 25.1915 54.0332 24.346 54.4089 23.9703C54.7847 23.5945 55.5362 23.5945 56.3816 24.0642C56.7574 24.2521 57.321 24.1581 57.6029 23.7824C58.6362 22.1854 59.3877 20.4945 59.7635 18.6157C59.9513 18.0521 59.6695 17.5824 59.1998 17.4884ZM15.9877 27.1642C15.3301 25.943 14.2968 25.1915 13.1695 25.1915C12.0422 25.1915 11.0089 25.943 10.3513 27.1642C9.318 26.8824 8.28467 26.5066 7.34527 25.849C7.72103 24.5339 7.53315 23.3127 6.6877 22.4672C5.84224 21.6218 4.62103 21.4339 3.30588 21.8096C2.74224 20.8703 2.27254 19.8369 2.08467 18.8036C3.30588 18.146 4.05739 17.1127 4.05739 15.9854C4.05739 14.8581 3.30588 13.7309 2.08467 13.1672C2.36648 12.2278 2.74224 11.1945 3.30588 10.2551C4.62103 10.6309 5.84224 10.443 6.6877 9.59752C7.53315 8.84601 7.72103 7.53086 7.34527 6.21571C8.28467 5.65207 9.318 5.18237 10.3513 4.90055C11.0089 6.12177 12.0422 6.87328 13.1695 6.87328C14.2968 6.87328 15.3301 6.12177 15.9877 4.90055C16.7392 5.08843 17.4907 5.46419 18.2422 5.74601C17.115 7.1551 16.2695 8.75207 15.7059 10.443C14.8604 10.0672 14.015 9.87934 13.1695 9.87934C9.7877 9.87934 7.06345 12.6036 7.06345 16.0793C7.06345 19.4612 9.7877 22.1854 13.1695 22.1854C14.2968 22.1854 15.4241 21.8096 16.3635 21.246C17.115 22.749 18.0544 24.2521 19.2756 25.4733L19.3695 25.5672C18.3362 26.4127 17.2089 26.8824 15.9877 27.1642ZM35.1513 34.3036V34.8672H25.1938V34.7733C25.1938 30.9218 23.5968 27.1642 20.6847 24.1581C18.2422 21.6218 16.8332 18.3339 16.9271 14.7642C17.021 8.00056 22.7513 2.17631 29.6089 1.89449C33.2725 1.70661 36.7483 3.11571 39.4725 5.65207C42.1028 8.18843 43.5119 11.4763 43.5119 15.1399C43.5119 18.7096 42.1028 21.9975 39.5665 24.44C36.7483 27.1642 35.1513 30.7339 35.1513 34.3036ZM56.6635 21.9975C55.3483 21.6218 54.1271 21.8096 53.2816 22.6551C52.4362 23.5006 52.2483 24.7218 52.6241 26.0369C51.6847 26.6006 50.6513 27.0703 49.618 27.3521C48.9604 26.1309 47.9271 25.3793 46.7998 25.3793C45.6725 25.3793 44.6392 26.1309 43.9816 27.3521C42.8544 27.0703 41.821 26.6006 40.7877 26.0369L40.8816 25.943C42.1028 24.7218 43.1362 23.2187 43.8877 21.7157C44.7332 22.1854 45.7665 22.4672 46.7998 22.4672C50.1816 22.4672 52.9059 19.743 52.9059 16.3612C52.9059 12.9793 50.1816 10.1612 46.7998 10.1612C46.0483 10.1612 45.2968 10.349 44.6392 10.5369C44.0756 8.84601 43.2301 7.24904 42.1029 5.83995C42.7604 5.55813 43.3241 5.27631 43.9816 5.18237C44.6392 6.40358 45.6725 7.1551 46.7998 7.1551C47.9271 7.1551 48.9604 6.40358 49.618 5.18237C50.6513 5.27631 51.6847 5.65207 52.6241 6.21571C52.2483 7.53086 52.4362 8.75207 53.2816 9.59752C54.1271 10.443 55.3483 10.6309 56.6635 10.2551C57.2271 11.1945 57.6968 12.2278 57.8847 13.2612C56.6635 13.8248 55.9119 14.9521 55.9119 16.0793C55.9119 17.2066 56.6635 18.24 57.8847 18.8975C57.6029 20.0248 57.2271 20.9642 56.6635 21.9975Z" fill="#E8E8E8"/>
<path d="M35.5271 15.2339C35.5271 18.146 33.1786 20.4945 30.2665 20.4945C27.3544 20.4945 25.0059 18.146 25.0059 15.2339C25.0059 12.3218 27.3544 9.97328 30.2665 9.97328C33.0847 9.97328 35.5271 12.3218 35.5271 15.2339Z" fill="#E8E8E8"/>
</svg>
