<svg width="66" height="55" viewBox="0 0 66 55" fill="none" xmlns="http://www.w3.org/2000/svg">
<path d="M18.1049 24.157C18.1049 20.6456 15.2406 17.7839 11.7318 17.7839C8.22035 17.7839 5.35863 20.6456 5.35863 24.157C5.35863 27.6684 8.22035 30.5302 11.7318 30.5302C15.2406 30.5289 18.1049 27.6684 18.1049 24.157ZM8.21004 33.0722H15.2548C16.4136 33.0722 17.5171 33.3171 18.5174 33.7515C16.0978 36.1956 14.5999 39.5536 14.5999 43.2442V49.4923H1.2491C0.562035 49.4923 3.3739e-07 48.9289 3.3739e-07 48.2432V41.2822C-0.00128903 36.7666 3.69316 33.0722 8.21004 33.0722ZM50.7427 33.0722H57.7874C62.3043 33.0722 65.9987 36.7666 65.9987 41.2835V48.2445C65.9987 48.9315 65.4354 49.4936 64.7496 49.4936H51.3936V43.2455C51.3936 39.5549 49.8996 36.1969 47.48 33.7528C48.4804 33.3171 49.5838 33.0722 50.7427 33.0722ZM54.2657 30.5289C50.7543 30.5289 47.8925 27.6671 47.8925 24.1557C47.8925 20.6443 50.7543 17.7826 54.2657 17.7826C57.7732 17.7826 60.6388 20.6443 60.6388 24.1557C60.6375 27.6684 57.7732 30.5289 54.2657 30.5289ZM28.1132 31.8592H31.3693L30.3793 42.4553C30.3677 42.5945 30.3935 42.7221 30.4631 42.842L32.4186 46.3057C32.5398 46.521 32.7512 46.646 33 46.646C33.2449 46.646 33.4563 46.5223 33.5775 46.3057L35.533 42.842C35.6026 42.7208 35.6323 42.5932 35.6168 42.4553L34.6307 31.8592H37.883C44.1465 31.8592 49.2693 36.9819 49.2693 43.2455V52.8954C49.2693 53.8454 48.4868 54.6279 47.5342 54.6279H42.0827V48.6943C42.0827 48.1065 41.6045 47.6309 41.0154 47.6309C40.4263 47.6309 39.9519 48.1065 39.9519 48.6943V54.6279H26.052V48.6943C26.052 48.1065 25.5737 47.6309 24.9846 47.6309C24.3994 47.6309 23.9211 48.1065 23.9211 48.6943V54.6279H18.4658C17.5119 54.6279 16.7333 53.8454 16.7333 52.8954V43.2455C16.7307 36.9819 21.8535 31.8592 28.1132 31.8592ZM32.9987 10.6631C37.8662 10.6631 41.8339 14.6309 41.8339 19.4984C41.8339 24.3659 37.8662 28.3336 32.9987 28.3336C28.1312 28.3336 24.1635 24.3659 24.1635 19.4984C24.1635 14.6309 28.1312 10.6631 32.9987 10.6631ZM32.9987 5.8575C32.4109 5.8575 31.9314 5.37926 31.9314 4.79016V1.06734C31.9314 0.479531 32.4096 0 32.9987 0C33.5878 0 34.0622 0.478242 34.0622 1.06734V4.79145C34.0622 5.37926 33.5865 5.8575 32.9987 5.8575ZM27.0097 7.45852C26.5018 7.755 25.8509 7.57969 25.5595 7.0718L23.6955 3.84527C23.3991 3.33738 23.5744 2.69027 24.0823 2.39508C24.5902 2.10246 25.2373 2.27391 25.5325 2.7818L27.3964 6.00832C27.6891 6.51492 27.5176 7.1659 27.0097 7.45852ZM21.1703 12.2332L17.9437 10.3692C17.4359 10.0727 17.2644 9.42691 17.557 8.91902C17.8535 8.41113 18.4993 8.23582 19.0072 8.5323L22.2337 10.3963C22.7416 10.6889 22.917 11.3386 22.6205 11.8465C22.3291 12.3544 21.6782 12.5258 21.1703 12.2332ZM40.4379 7.07051C40.1453 7.5784 39.4956 7.75371 38.9877 7.45723C38.4798 7.16461 38.3084 6.51492 38.601 6.00703L40.465 2.78051C40.7576 2.27262 41.4073 2.10117 41.9152 2.39379C42.423 2.69027 42.5945 3.33609 42.3019 3.84398L40.4379 7.07051ZM48.0537 10.3705L44.8271 12.2345C44.3193 12.5271 43.6683 12.3557 43.3731 11.8478C43.0805 11.3399 43.2519 10.6889 43.7598 10.3976L46.9863 8.53359C47.4942 8.23711 48.1452 8.41242 48.4404 8.92031C48.733 9.42691 48.5616 10.074 48.0537 10.3705Z" fill="#E8E8E8"/>
</svg>
