<svg width="86" height="86" viewBox="0 0 86 86" fill="none" xmlns="http://www.w3.org/2000/svg">
<path fill-rule="evenodd" clip-rule="evenodd" d="M20.8575 35.9576C20.8575 34.3303 22.1698 33.018 23.7971 33.018H25.1794C25.7043 33.9804 26.7892 34.6453 28.049 34.6453C29.8162 34.6453 31.251 33.3504 31.251 31.7582C31.251 30.1659 29.8162 28.8711 28.049 28.8711C26.7892 28.8711 25.6868 29.536 25.1794 30.4984H23.7971C20.7875 30.4984 18.3379 32.948 18.3379 35.9576V53.6125H20.8575V35.9576Z" fill="url(#paint0_linear_3758_443)"/>
<path fill-rule="evenodd" clip-rule="evenodd" d="M57.952 34.6453C59.2119 34.6453 60.3142 33.9804 60.8216 33.018H62.2039C63.8312 33.018 65.1435 34.3303 65.1435 35.9576V53.6125H67.6631V35.9576C67.6631 32.948 65.2135 30.4984 62.2039 30.4984H60.8216C60.2967 29.536 59.2119 28.8711 57.952 28.8711C56.1848 28.8711 54.75 30.1659 54.75 31.7582C54.75 33.3504 56.1848 34.6453 57.952 34.6453Z" fill="url(#paint1_linear_3758_443)"/>
<path fill-rule="evenodd" clip-rule="evenodd" d="M14.9961 55.293V79.7894H71.023V55.293H14.9961ZM43.0095 78.2321C37.0429 78.2321 32.3186 73.3853 32.3186 67.5412C32.3186 61.697 37.0429 56.8502 43.0095 56.8502C48.9762 56.8502 53.7005 61.697 53.7005 67.5412C53.7005 73.4378 48.9062 78.2321 43.0095 78.2321Z" fill="url(#paint2_linear_3758_443)"/>
<path fill-rule="evenodd" clip-rule="evenodd" d="M45.9668 76.044C47.5241 75.5016 48.8889 74.5392 49.9212 73.2969H47.0516C46.7717 74.3292 46.4042 75.2741 45.9668 76.044Z" fill="url(#paint3_linear_3758_443)"/>
<path fill-rule="evenodd" clip-rule="evenodd" d="M39.9297 68.3809C39.9647 69.5707 40.0872 70.673 40.2796 71.6354H45.7388C45.9138 70.673 46.0363 69.5882 46.0888 68.3809H39.9297Z" fill="url(#paint4_linear_3758_443)"/>
<path fill-rule="evenodd" clip-rule="evenodd" d="M38.2501 68.3809H34.0332C34.1382 69.5357 34.4706 70.638 34.9781 71.6354H38.5825C38.3901 70.568 38.2851 69.4832 38.2501 68.3809Z" fill="url(#paint5_linear_3758_443)"/>
<path fill-rule="evenodd" clip-rule="evenodd" d="M38.5825 63.4453H34.9781C34.4706 64.4427 34.1382 65.5275 34.0332 66.6998H38.2501C38.2851 65.5975 38.3901 64.4952 38.5825 63.4453Z" fill="url(#paint6_linear_3758_443)"/>
<path fill-rule="evenodd" clip-rule="evenodd" d="M46.0712 66.6999C46.0362 65.5101 45.9137 64.4078 45.7213 63.4629H40.2621C40.0871 64.4253 39.9646 65.5101 39.9121 66.7174L46.0712 66.6999Z" fill="url(#paint7_linear_3758_443)"/>
<path fill-rule="evenodd" clip-rule="evenodd" d="M40.0345 59.0195C38.4772 59.562 37.1124 60.5243 36.0801 61.7666H38.9497C39.2296 60.7343 39.5971 59.7894 40.0345 59.0195Z" fill="url(#paint8_linear_3758_443)"/>
<path fill-rule="evenodd" clip-rule="evenodd" d="M43.0088 58.5293C42.2564 58.5293 41.329 59.7016 40.6816 61.7663H45.3185C44.6886 59.6841 43.7612 58.5293 43.0088 58.5293Z" fill="url(#paint9_linear_3758_443)"/>
<path fill-rule="evenodd" clip-rule="evenodd" d="M49.9212 61.7666C48.8889 60.5243 47.5241 59.562 45.9668 59.0195C46.4042 59.7894 46.7717 60.7343 47.0516 61.7666H49.9212Z" fill="url(#paint10_linear_3758_443)"/>
<path fill-rule="evenodd" clip-rule="evenodd" d="M47.7504 66.6999H51.9673C51.8623 65.5451 51.5299 64.4427 51.0224 63.4629H47.418C47.6104 64.4952 47.7154 65.5976 47.7504 66.6999Z" fill="url(#paint11_linear_3758_443)"/>
<path fill-rule="evenodd" clip-rule="evenodd" d="M47.418 71.6178H51.0224C51.5299 70.6204 51.8623 69.5356 51.9673 68.3633H47.7504C47.7154 69.4831 47.6104 70.568 47.418 71.6178Z" fill="url(#paint12_linear_3758_443)"/>
<path fill-rule="evenodd" clip-rule="evenodd" d="M43.0088 76.5514C43.7612 76.5514 44.6886 75.3791 45.3185 73.2969H40.6816C41.329 75.3791 42.2564 76.5514 43.0088 76.5514Z" fill="url(#paint13_linear_3758_443)"/>
<path fill-rule="evenodd" clip-rule="evenodd" d="M36.0801 73.2969C37.1124 74.5392 38.4772 75.5016 40.0345 76.044C39.5971 75.2741 39.2296 74.3292 38.9497 73.2969H36.0801Z" fill="url(#paint14_linear_3758_443)"/>
<path fill-rule="evenodd" clip-rule="evenodd" d="M24.6367 53.6128H41.5743L31.9157 36.5703C26.7714 38.95 24.6717 42.152 24.6367 53.6128Z" fill="url(#paint15_linear_3758_443)"/>
<path fill-rule="evenodd" clip-rule="evenodd" d="M61.3634 53.6128C61.3284 42.152 59.2287 38.95 54.0845 36.5703L44.4434 53.6128H61.3634Z" fill="url(#paint16_linear_3758_443)"/>
<path fill-rule="evenodd" clip-rule="evenodd" d="M45.0398 49.1501L43.78 42.7285H42.2227L40.9629 49.1501L43.0101 52.7371L45.0398 49.1501Z" fill="url(#paint17_linear_3758_443)"/>
<path fill-rule="evenodd" clip-rule="evenodd" d="M41.4004 39.4745L42.0828 41.0493H43.9375L44.6199 39.4745L43.0102 38.1797L41.4004 39.4745Z" fill="url(#paint18_linear_3758_443)"/>
<path fill-rule="evenodd" clip-rule="evenodd" d="M41.3815 37.3407L35.8698 34.9785C35.1699 35.2235 34.5225 35.4684 33.8926 35.7134L38.5994 39.5629L41.3815 37.3407Z" fill="url(#paint19_linear_3758_443)"/>
<path fill-rule="evenodd" clip-rule="evenodd" d="M47.4183 33.9987C47.0859 33.8763 46.8759 33.5613 46.8759 33.2113V31.1816C45.6511 31.8815 44.2863 32.214 43.009 32.214C41.7142 32.214 40.3669 31.8815 39.142 31.1816V33.2113C39.142 33.5613 38.9146 33.8763 38.5821 33.9987C38.4421 34.0512 38.3197 34.1037 38.1797 34.1387L43.009 36.1859L47.8383 34.1387C47.6983 34.1037 47.5583 34.0512 47.4183 33.9987Z" fill="url(#paint20_linear_3758_443)"/>
<path fill-rule="evenodd" clip-rule="evenodd" d="M50.1308 34.9785L44.6191 37.3407L47.4187 39.5803L52.1255 35.7309C51.4956 35.4859 50.8307 35.241 50.1308 34.9785Z" fill="url(#paint21_linear_3758_443)"/>
<path fill-rule="evenodd" clip-rule="evenodd" d="M50.7951 38.9844L47.9431 41.3115C47.6456 41.5565 47.1907 41.5565 46.8757 41.3115L45.9483 40.5766L45.3359 41.9939L46.2983 46.9107L50.7951 38.9844Z" fill="url(#paint22_linear_3758_443)"/>
<path fill-rule="evenodd" clip-rule="evenodd" d="M38.0572 41.3115L35.2227 38.9844L39.702 46.9107L40.6644 41.9939L40.052 40.5766L39.1246 41.3115C38.8096 41.5565 38.3547 41.5565 38.0572 41.3115Z" fill="url(#paint23_linear_3758_443)"/>
<path fill-rule="evenodd" clip-rule="evenodd" d="M35.5903 18.6521C34.1905 18.6521 33.5605 19.6845 33.5605 20.7168C33.5605 21.7492 34.1905 22.7815 35.5903 22.7815C36.0277 22.7815 36.3951 23.114 36.4301 23.5514C36.7276 27.2259 39.0722 30.5329 43.0092 30.5329C46.9461 30.5329 49.2908 27.2434 49.5882 23.5514C49.6232 23.114 49.9907 22.7815 50.4281 22.7815C51.8279 22.7815 52.4578 21.7492 52.4578 20.7168C52.4578 19.6845 51.8279 18.6521 50.4281 18.6521C49.9732 18.6521 49.5882 18.2847 49.5882 17.8122V16.22C49.5882 15.1876 48.5909 14.4702 47.611 14.8202L44.059 16.0625C43.3591 16.3074 42.6592 16.3074 41.9768 16.0625L38.4073 14.8202C37.445 14.4877 36.4301 15.1876 36.4301 16.22V17.8122C36.4301 18.2672 36.0452 18.6521 35.5903 18.6521Z" fill="url(#paint24_linear_3758_443)"/>
<path fill-rule="evenodd" clip-rule="evenodd" d="M34.751 17.0604V16.238C34.751 14.0508 36.8857 12.5285 38.9504 13.2459L42.5198 14.4883C42.8523 14.6107 43.1672 14.6107 43.4997 14.4883L47.0692 13.2459C49.1339 12.5285 51.2686 14.0508 51.2686 16.238V17.0604C51.5135 17.1129 51.7585 17.1829 51.986 17.2703C53.5607 13.5784 53.0708 10.5688 50.5162 8.50412C46.7367 5.45956 39.3178 5.45956 35.5208 8.50412C32.9662 10.5688 32.4588 13.5784 34.0511 17.2703C34.261 17.1829 34.4885 17.0954 34.751 17.0604Z" fill="url(#paint25_linear_3758_443)"/>
<defs>
<linearGradient id="paint0_linear_3758_443" x1="24.7945" y1="28.8711" x2="24.7945" y2="53.6125" gradientUnits="userSpaceOnUse">
<stop stop-color="#0D1B73"/>
<stop offset="1" stop-color="#6A0DAD"/>
</linearGradient>
<linearGradient id="paint1_linear_3758_443" x1="61.2066" y1="28.8711" x2="61.2066" y2="53.6125" gradientUnits="userSpaceOnUse">
<stop stop-color="#0D1B73"/>
<stop offset="1" stop-color="#6A0DAD"/>
</linearGradient>
<linearGradient id="paint2_linear_3758_443" x1="43.0095" y1="55.293" x2="43.0095" y2="79.7894" gradientUnits="userSpaceOnUse">
<stop stop-color="#0D1B73"/>
<stop offset="1" stop-color="#6A0DAD"/>
</linearGradient>
<linearGradient id="paint3_linear_3758_443" x1="47.944" y1="73.2969" x2="47.944" y2="76.044" gradientUnits="userSpaceOnUse">
<stop stop-color="#0D1B73"/>
<stop offset="1" stop-color="#6A0DAD"/>
</linearGradient>
<linearGradient id="paint4_linear_3758_443" x1="43.0092" y1="68.3809" x2="43.0092" y2="71.6354" gradientUnits="userSpaceOnUse">
<stop stop-color="#0D1B73"/>
<stop offset="1" stop-color="#6A0DAD"/>
</linearGradient>
<linearGradient id="paint5_linear_3758_443" x1="36.3079" y1="68.3809" x2="36.3079" y2="71.6354" gradientUnits="userSpaceOnUse">
<stop stop-color="#0D1B73"/>
<stop offset="1" stop-color="#6A0DAD"/>
</linearGradient>
<linearGradient id="paint6_linear_3758_443" x1="36.3079" y1="63.4453" x2="36.3079" y2="66.6998" gradientUnits="userSpaceOnUse">
<stop stop-color="#0D1B73"/>
<stop offset="1" stop-color="#6A0DAD"/>
</linearGradient>
<linearGradient id="paint7_linear_3758_443" x1="42.9917" y1="63.4629" x2="42.9917" y2="66.7174" gradientUnits="userSpaceOnUse">
<stop stop-color="#0D1B73"/>
<stop offset="1" stop-color="#6A0DAD"/>
</linearGradient>
<linearGradient id="paint8_linear_3758_443" x1="38.0573" y1="59.0195" x2="38.0573" y2="61.7666" gradientUnits="userSpaceOnUse">
<stop stop-color="#0D1B73"/>
<stop offset="1" stop-color="#6A0DAD"/>
</linearGradient>
<linearGradient id="paint9_linear_3758_443" x1="43.0001" y1="58.5293" x2="43.0001" y2="61.7663" gradientUnits="userSpaceOnUse">
<stop stop-color="#0D1B73"/>
<stop offset="1" stop-color="#6A0DAD"/>
</linearGradient>
<linearGradient id="paint10_linear_3758_443" x1="47.944" y1="59.0195" x2="47.944" y2="61.7666" gradientUnits="userSpaceOnUse">
<stop stop-color="#0D1B73"/>
<stop offset="1" stop-color="#6A0DAD"/>
</linearGradient>
<linearGradient id="paint11_linear_3758_443" x1="49.6926" y1="63.4629" x2="49.6926" y2="66.6999" gradientUnits="userSpaceOnUse">
<stop stop-color="#0D1B73"/>
<stop offset="1" stop-color="#6A0DAD"/>
</linearGradient>
<linearGradient id="paint12_linear_3758_443" x1="49.6926" y1="68.3633" x2="49.6926" y2="71.6178" gradientUnits="userSpaceOnUse">
<stop stop-color="#0D1B73"/>
<stop offset="1" stop-color="#6A0DAD"/>
</linearGradient>
<linearGradient id="paint13_linear_3758_443" x1="43.0001" y1="73.2969" x2="43.0001" y2="76.5514" gradientUnits="userSpaceOnUse">
<stop stop-color="#0D1B73"/>
<stop offset="1" stop-color="#6A0DAD"/>
</linearGradient>
<linearGradient id="paint14_linear_3758_443" x1="38.0573" y1="73.2969" x2="38.0573" y2="76.044" gradientUnits="userSpaceOnUse">
<stop stop-color="#0D1B73"/>
<stop offset="1" stop-color="#6A0DAD"/>
</linearGradient>
<linearGradient id="paint15_linear_3758_443" x1="33.1055" y1="36.5703" x2="33.1055" y2="53.6128" gradientUnits="userSpaceOnUse">
<stop stop-color="#0D1B73"/>
<stop offset="1" stop-color="#6A0DAD"/>
</linearGradient>
<linearGradient id="paint16_linear_3758_443" x1="52.9034" y1="36.5703" x2="52.9034" y2="53.6128" gradientUnits="userSpaceOnUse">
<stop stop-color="#0D1B73"/>
<stop offset="1" stop-color="#6A0DAD"/>
</linearGradient>
<linearGradient id="paint17_linear_3758_443" x1="43.0013" y1="42.7285" x2="43.0013" y2="52.7371" gradientUnits="userSpaceOnUse">
<stop stop-color="#0D1B73"/>
<stop offset="1" stop-color="#6A0DAD"/>
</linearGradient>
<linearGradient id="paint18_linear_3758_443" x1="43.0102" y1="38.1797" x2="43.0102" y2="41.0493" gradientUnits="userSpaceOnUse">
<stop stop-color="#0D1B73"/>
<stop offset="1" stop-color="#6A0DAD"/>
</linearGradient>
<linearGradient id="paint19_linear_3758_443" x1="37.637" y1="34.9785" x2="37.637" y2="39.5629" gradientUnits="userSpaceOnUse">
<stop stop-color="#0D1B73"/>
<stop offset="1" stop-color="#6A0DAD"/>
</linearGradient>
<linearGradient id="paint20_linear_3758_443" x1="43.009" y1="31.1816" x2="43.009" y2="36.1859" gradientUnits="userSpaceOnUse">
<stop stop-color="#0D1B73"/>
<stop offset="1" stop-color="#6A0DAD"/>
</linearGradient>
<linearGradient id="paint21_linear_3758_443" x1="48.3723" y1="34.9785" x2="48.3723" y2="39.5803" gradientUnits="userSpaceOnUse">
<stop stop-color="#0D1B73"/>
<stop offset="1" stop-color="#6A0DAD"/>
</linearGradient>
<linearGradient id="paint22_linear_3758_443" x1="48.0655" y1="38.9844" x2="48.0655" y2="46.9107" gradientUnits="userSpaceOnUse">
<stop stop-color="#0D1B73"/>
<stop offset="1" stop-color="#6A0DAD"/>
</linearGradient>
<linearGradient id="paint23_linear_3758_443" x1="37.9435" y1="38.9844" x2="37.9435" y2="46.9107" gradientUnits="userSpaceOnUse">
<stop stop-color="#0D1B73"/>
<stop offset="1" stop-color="#6A0DAD"/>
</linearGradient>
<linearGradient id="paint24_linear_3758_443" x1="43.0092" y1="14.7305" x2="43.0092" y2="30.5329" gradientUnits="userSpaceOnUse">
<stop stop-color="#0D1B73"/>
<stop offset="1" stop-color="#6A0DAD"/>
</linearGradient>
<linearGradient id="paint25_linear_3758_443" x1="43.0147" y1="6.2207" x2="43.0147" y2="17.2703" gradientUnits="userSpaceOnUse">
<stop stop-color="#0D1B73"/>
<stop offset="1" stop-color="#6A0DAD"/>
</linearGradient>
</defs>
</svg>
