<svg width="86" height="86" viewBox="0 0 86 86" fill="none" xmlns="http://www.w3.org/2000/svg">
<path d="M30.4316 35.6097C30.4746 35.6527 30.5136 35.6997 30.5566 35.7441C30.6977 35.8785 30.8469 36.0128 30.9947 36.1472C31.203 36.3353 31.4126 36.5208 31.6316 36.6955C31.7915 36.8218 31.9555 36.9414 32.1194 37.0596C32.3398 37.2195 32.5642 37.3754 32.7913 37.5205C32.9633 37.6307 33.1393 37.7355 33.3167 37.8377C33.5518 37.972 33.7897 38.1064 34.0329 38.2206C34.2143 38.3107 34.3957 38.3993 34.5798 38.4813C34.7639 38.5633 34.9829 38.6493 35.1925 38.7286C34.2888 37.0757 33.6311 35.2998 33.2401 33.457C32.2147 34.0499 31.2706 34.7736 30.4316 35.6097Z" fill="url(#paint0_linear_3739_270)"/>
<path d="M45.0645 38.7208C45.27 38.6415 45.4756 38.5635 45.6772 38.4735C45.8788 38.3835 46.0427 38.3042 46.2241 38.2142C46.4673 38.0919 46.7065 37.9642 46.943 37.8285C47.1222 37.7282 47.2955 37.6234 47.463 37.5141C47.6942 37.3676 47.9199 37.2104 48.1349 37.0491C48.2975 36.9309 48.4601 36.814 48.6187 36.689C48.8404 36.513 49.0527 36.3235 49.265 36.134C49.4075 35.9997 49.5539 35.8787 49.6923 35.7417C49.7367 35.6987 49.7756 35.6503 49.8267 35.6073C48.9873 34.7695 48.0428 34.0441 47.0169 33.4492C46.626 35.292 45.9683 37.0679 45.0645 38.7208Z" fill="url(#paint1_linear_3739_270)"/>
<path d="M35.7441 32.3086C36.709 36.9633 38.6292 39.6616 40.1288 39.6616C41.6284 39.6616 43.5486 36.9633 44.5135 32.3072C41.672 31.3299 38.5856 31.3312 35.7441 32.3086Z" fill="url(#paint2_linear_3739_270)"/>
<path d="M32.5179 69.5117H24.3613V79.0792L27.5742 76.3716C27.8166 76.1673 28.1233 76.0553 28.4403 76.0553C28.7572 76.0553 29.064 76.1673 29.3063 76.3716L32.5179 79.0792V72.8012C32.5179 72.7918 32.5179 72.7824 32.5179 72.773C32.5179 72.7636 32.5179 72.7542 32.5179 72.7434V69.5117Z" fill="url(#paint3_linear_3739_270)"/>
<path d="M19.0054 71.4292H21.6714V69.5117H15.7227C16.0489 70.0953 16.5254 70.5808 17.1026 70.918C17.6799 71.2552 18.3369 71.4317 19.0054 71.4292Z" fill="url(#paint4_linear_3739_270)"/>
<path d="M59.0761 69.5105H35.207V71.428H67.0002C67.9995 71.4287 68.9583 71.033 69.6662 70.3276C70.3741 69.6222 70.7732 68.6649 70.7761 67.6655V13.7449C70.7724 12.8543 70.4528 11.9939 69.8744 11.3168C69.2959 10.6397 68.496 10.1897 67.6169 10.0469C67.6843 10.4714 67.7198 10.9003 67.7231 11.3302V60.8715C67.7192 63.1629 66.8066 65.3592 65.1856 66.9787C63.5646 68.5982 61.3675 69.5087 59.0761 69.5105Z" fill="url(#paint5_linear_3739_270)"/>
<path d="M35.3284 29.6221C38.4539 28.6403 41.8053 28.6403 44.9308 29.6221C45.1942 27.2038 45.1942 24.764 44.9308 22.3457C41.8056 23.3294 38.4536 23.3294 35.3284 22.3457C35.065 24.764 35.065 27.2038 35.3284 29.6221Z" fill="url(#paint6_linear_3739_270)"/>
<path d="M47.8153 25.9862C47.8166 27.5511 47.7166 29.1145 47.5156 30.6665C48.99 31.4091 50.3434 32.3709 51.5294 33.5192C53.013 31.287 53.8044 28.6664 53.8044 25.9862C53.8044 23.3059 53.013 20.6853 51.5294 18.4531C50.3433 19.601 48.99 20.5624 47.5156 21.3046C47.7165 22.857 47.8166 24.4208 47.8153 25.9862Z" fill="url(#paint7_linear_3739_270)"/>
<path d="M35.1943 13.25C33.4096 13.9395 31.7902 14.9971 30.4414 16.3541C31.2763 17.1966 32.2172 17.927 33.2404 18.5269C33.6308 16.682 34.2891 14.9042 35.1943 13.25Z" fill="url(#paint8_linear_3739_270)"/>
<path d="M59.0751 5.375H15.2285V66.8233H59.0751C60.6544 66.823 62.1691 66.1962 63.2868 65.0805C64.4046 63.9647 65.0341 62.4512 65.0373 60.8719V11.3305C65.0355 9.75039 64.4066 8.2356 63.2886 7.11892C62.1707 6.00224 60.6552 5.375 59.0751 5.375ZM27.5735 15.4921C30.3564 12.162 34.3481 10.0738 38.6706 9.68689C42.993 9.29994 47.2922 10.6459 50.6222 13.4288C53.9523 16.2116 56.0405 20.2033 56.4274 24.5258C56.8144 28.8482 55.4684 33.1474 52.6855 36.4774C49.9027 39.8075 45.911 41.8957 41.5885 42.2826C37.2661 42.6696 32.9669 41.3236 29.6369 38.5408C26.3068 35.7579 24.2186 31.7662 23.8317 27.4438C23.4447 23.1213 24.7907 18.8222 27.5735 15.4921ZM50.8365 56.9266H29.4279C29.0715 56.9266 28.7297 56.785 28.4777 56.5331C28.2257 56.281 28.0842 55.9393 28.0842 55.5829C28.0842 55.2265 28.2257 54.8847 28.4777 54.6327C28.7297 54.3807 29.0715 54.2391 29.4279 54.2391H50.8365C51.1929 54.2391 51.5347 54.3807 51.7867 54.6327C52.0387 54.8847 52.1803 55.2265 52.1803 55.5829C52.1803 55.9393 52.0387 56.281 51.7867 56.5331C51.5347 56.785 51.1929 56.9266 50.8365 56.9266ZM57.0353 51.1485H23.2238C22.8674 51.1485 22.5257 51.0069 22.2737 50.7549C22.0217 50.5029 21.8801 50.1611 21.8801 49.8047C21.8801 49.4484 22.0217 49.1066 22.2737 48.8546C22.5257 48.6026 22.8674 48.461 23.2238 48.461H57.0353C57.3916 48.461 57.7334 48.6026 57.9854 48.8546C58.2374 49.1066 58.379 49.4484 58.379 49.8047C58.379 50.1611 58.2374 50.5029 57.9854 50.7549C57.7334 51.0069 57.3916 51.1485 57.0353 51.1485Z" fill="url(#paint9_linear_3739_270)"/>
<path d="M32.7425 30.6665C32.343 27.5586 32.343 24.4124 32.7425 21.3046C31.2681 20.5624 29.9148 19.601 28.7287 18.4531C27.246 20.6857 26.4551 23.3061 26.4551 25.9862C26.4551 28.6662 27.246 31.2867 28.7287 33.5192C29.9148 32.3709 31.2681 31.4091 32.7425 30.6665Z" fill="url(#paint10_linear_3739_270)"/>
<path d="M49.8173 16.3541C48.4685 14.9971 46.8491 13.9395 45.0645 13.25C45.9696 14.9042 46.6279 16.682 47.0183 18.5269C48.0415 17.927 48.9824 17.1966 49.8173 16.3541Z" fill="url(#paint11_linear_3739_270)"/>
<path d="M44.5169 19.6743C43.5521 15.0115 41.6305 12.3105 40.1295 12.3105C38.6286 12.3105 36.707 15.0115 35.7422 19.6743C38.588 20.6364 41.6711 20.6364 44.5169 19.6743Z" fill="url(#paint12_linear_3739_270)"/>
<defs>
<linearGradient id="paint0_linear_3739_270" x1="32.8121" y1="33.457" x2="32.8121" y2="38.7286" gradientUnits="userSpaceOnUse">
<stop stop-color="#0D1B73"/>
<stop offset="1" stop-color="#6A0DAD"/>
</linearGradient>
<linearGradient id="paint1_linear_3739_270" x1="47.4456" y1="33.4492" x2="47.4456" y2="38.7208" gradientUnits="userSpaceOnUse">
<stop stop-color="#0D1B73"/>
<stop offset="1" stop-color="#6A0DAD"/>
</linearGradient>
<linearGradient id="paint2_linear_3739_270" x1="40.1288" y1="31.5742" x2="40.1288" y2="39.6616" gradientUnits="userSpaceOnUse">
<stop stop-color="#0D1B73"/>
<stop offset="1" stop-color="#6A0DAD"/>
</linearGradient>
<linearGradient id="paint3_linear_3739_270" x1="28.4396" y1="69.5117" x2="28.4396" y2="79.0792" gradientUnits="userSpaceOnUse">
<stop stop-color="#0D1B73"/>
<stop offset="1" stop-color="#6A0DAD"/>
</linearGradient>
<linearGradient id="paint4_linear_3739_270" x1="18.697" y1="69.5117" x2="18.697" y2="71.4293" gradientUnits="userSpaceOnUse">
<stop stop-color="#0D1B73"/>
<stop offset="1" stop-color="#6A0DAD"/>
</linearGradient>
<linearGradient id="paint5_linear_3739_270" x1="52.9916" y1="10.0469" x2="52.9916" y2="71.428" gradientUnits="userSpaceOnUse">
<stop stop-color="#0D1B73"/>
<stop offset="1" stop-color="#6A0DAD"/>
</linearGradient>
<linearGradient id="paint6_linear_3739_270" x1="40.1296" y1="22.3457" x2="40.1296" y2="29.6221" gradientUnits="userSpaceOnUse">
<stop stop-color="#0D1B73"/>
<stop offset="1" stop-color="#6A0DAD"/>
</linearGradient>
<linearGradient id="paint7_linear_3739_270" x1="50.66" y1="18.4531" x2="50.66" y2="33.5192" gradientUnits="userSpaceOnUse">
<stop stop-color="#0D1B73"/>
<stop offset="1" stop-color="#6A0DAD"/>
</linearGradient>
<linearGradient id="paint8_linear_3739_270" x1="32.8178" y1="13.25" x2="32.8178" y2="18.5269" gradientUnits="userSpaceOnUse">
<stop stop-color="#0D1B73"/>
<stop offset="1" stop-color="#6A0DAD"/>
</linearGradient>
<linearGradient id="paint9_linear_3739_270" x1="40.1329" y1="5.375" x2="40.1329" y2="66.8233" gradientUnits="userSpaceOnUse">
<stop stop-color="#0D1B73"/>
<stop offset="1" stop-color="#6A0DAD"/>
</linearGradient>
<linearGradient id="paint10_linear_3739_270" x1="29.5988" y1="18.4531" x2="29.5988" y2="33.5192" gradientUnits="userSpaceOnUse">
<stop stop-color="#0D1B73"/>
<stop offset="1" stop-color="#6A0DAD"/>
</linearGradient>
<linearGradient id="paint11_linear_3739_270" x1="47.4409" y1="13.25" x2="47.4409" y2="18.5269" gradientUnits="userSpaceOnUse">
<stop stop-color="#0D1B73"/>
<stop offset="1" stop-color="#6A0DAD"/>
</linearGradient>
<linearGradient id="paint12_linear_3739_270" x1="40.1295" y1="12.3105" x2="40.1295" y2="20.3959" gradientUnits="userSpaceOnUse">
<stop stop-color="#0D1B73"/>
<stop offset="1" stop-color="#6A0DAD"/>
</linearGradient>
</defs>
</svg>
