<svg width="88" height="88" viewBox="0 0 88 88" fill="none" xmlns="http://www.w3.org/2000/svg">
<path d="M35.75 49.5V48.125H16.5V53.625H20.8203C21.1242 52.4478 21.8096 51.4045 22.7694 50.6582C23.7292 49.9118 24.9092 49.5046 26.125 49.5H35.75Z" fill="#6A0DAD"/>
<path d="M64.625 55C64.625 54.2707 64.3353 53.5712 63.8195 53.0555C63.3038 52.5397 62.6043 52.25 61.875 52.25H26.125C25.3957 52.25 24.6962 52.5397 24.1805 53.0555C23.6647 53.5712 23.375 54.2707 23.375 55V56.7875L39.1215 62.4112C39.3882 62.5061 39.6619 62.5831 39.9355 62.6629C40.0731 61.6828 40.5602 60.7855 41.3071 60.1362C42.054 59.4868 43.0103 59.1292 44 59.1292C44.9897 59.1292 45.946 59.4868 46.6929 60.1362C47.4398 60.7855 47.9269 61.6828 48.0645 62.6629C48.3395 62.5831 48.6145 62.5061 48.8771 62.4112L64.625 56.7875V55Z" fill="#6A0DAD"/>
<path d="M26.125 79.75H61.875C62.6043 79.75 63.3038 79.4603 63.8195 78.9446C64.3353 78.4289 64.625 77.7294 64.625 77V59.7012L49.8025 64.9949C49.2522 65.1881 48.6923 65.3528 48.125 65.4885V66C48.125 67.0941 47.6904 68.1433 46.9168 68.9169C46.1432 69.6904 45.094 70.125 44 70.125C42.906 70.125 41.8568 69.6904 41.0832 68.9169C40.3096 68.1433 39.875 67.0941 39.875 66V65.4899C39.3074 65.3533 38.7471 65.1881 38.1961 64.9949L23.375 59.7012V77C23.375 77.7294 23.6647 78.4289 24.1805 78.9446C24.6962 79.4603 25.3957 79.75 26.125 79.75Z" fill="#6A0DAD"/>
<path d="M38.5 49.5H49.5V48.125C49.5 47.3957 49.2103 46.6962 48.6945 46.1805C48.1788 45.6647 47.4793 45.375 46.75 45.375H41.25C40.5207 45.375 39.8212 45.6647 39.3055 46.1805C38.7897 46.6962 38.5 47.3957 38.5 48.125V49.5Z" fill="#6A0DAD"/>
<path d="M45.375 66V63.25C45.375 62.8853 45.2301 62.5356 44.9723 62.2777C44.7144 62.0199 44.3647 61.875 44 61.875C43.6353 61.875 43.2856 62.0199 43.0277 62.2777C42.7699 62.5356 42.625 62.8853 42.625 63.25V66C42.625 66.3647 42.7699 66.7144 43.0277 66.9723C43.2856 67.2301 43.6353 67.375 44 67.375C44.3647 67.375 44.7144 67.2301 44.9723 66.9723C45.2301 66.7144 45.375 66.3647 45.375 66Z" fill="#6A0DAD"/>
<path d="M72.875 31.625C72.5103 31.625 72.1606 31.7699 71.9027 32.0277C71.6449 32.2856 71.5 32.6353 71.5 33V39.875C71.5 40.1123 71.4385 40.3455 71.3217 40.552C71.2048 40.7585 71.0365 40.9312 70.8331 41.0534L67.4946 43.0554C66.6215 43.5832 65.8989 44.3268 65.3964 45.2146C64.8938 46.1025 64.6282 47.1048 64.625 48.125H61.875C61.8797 46.6306 62.269 45.1625 63.0054 43.8621C63.7418 42.5617 64.8006 41.4727 66.0797 40.7L68.75 39.0968V23.375C68.75 23.0103 68.6051 22.6606 68.3473 22.4027C68.0894 22.1449 67.7397 22 67.375 22C67.0103 22 66.6606 22.1449 66.4027 22.4027C66.1449 22.6606 66 23.0103 66 23.375V37.125H63.25V20.625C63.25 20.2603 63.1051 19.9106 62.8473 19.6527C62.5894 19.3949 62.2397 19.25 61.875 19.25C61.5103 19.25 61.1606 19.3949 60.9027 19.6527C60.6449 19.9106 60.5 20.2603 60.5 20.625V37.125H57.75V23.375C57.75 23.0103 57.6051 22.6606 57.3473 22.4027C57.0894 22.1449 56.7397 22 56.375 22C56.0103 22 55.6606 22.1449 55.4027 22.4027C55.1449 22.6606 55 23.0103 55 23.375V37.125H52.25V27.5C52.25 27.1353 52.1051 26.7856 51.8473 26.5277C51.5894 26.2699 51.2397 26.125 50.875 26.125C50.5103 26.125 50.1606 26.2699 49.9027 26.5277C49.6449 26.7856 49.5 27.1353 49.5 27.5V43.3895C50.3333 43.8685 51.026 44.5581 51.5086 45.3893C51.9913 46.2204 52.247 47.1639 52.25 48.125V49.5H61.875C63.3337 49.5 64.7326 50.0795 65.7641 51.1109C66.7955 52.1424 67.375 53.5413 67.375 55V60.5H70.125V56.375C70.1251 56.0104 70.27 55.6607 70.5279 55.4029C71.7117 54.2257 72.6502 52.8254 73.2891 51.283C73.9281 49.7406 74.2546 48.0867 74.25 46.4172V33C74.25 32.6353 74.1051 32.2856 73.8473 32.0277C73.5894 31.7699 73.2397 31.625 72.875 31.625Z" fill="#6A0DAD"/>
<path d="M17.875 39.875V45.375H34.375V41.25C34.3751 40.8854 34.52 40.5357 34.7779 40.2779C35.9617 39.1007 36.9003 37.7004 37.5392 36.158C38.1781 34.6156 38.5047 32.9617 38.5 31.2922V17.875C38.5 17.5103 38.3552 17.1606 38.0973 16.9027C37.8395 16.6449 37.4897 16.5 37.125 16.5C36.7604 16.5 36.4106 16.6449 36.1528 16.9027C35.8949 17.1606 35.75 17.5103 35.75 17.875V24.75C35.75 24.9873 35.6886 25.2205 35.5717 25.427C35.4549 25.6335 35.2866 25.8062 35.0832 25.9284L34.1028 26.5169C32.5121 27.4777 31.1956 28.8318 30.28 30.4489C29.3644 32.0661 28.8805 33.8917 28.875 35.75H26.125C26.1317 33.4172 26.7389 31.1254 27.8881 29.0952C29.0373 27.0651 30.6898 25.365 32.6865 24.1587L33 23.9718V8.25C33 7.88533 32.8552 7.53559 32.5973 7.27773C32.3395 7.01987 31.9897 6.875 31.625 6.875C31.2604 6.875 30.9106 7.01987 30.6528 7.27773C30.3949 7.53559 30.25 7.88533 30.25 8.25V22H27.5V5.5C27.5 5.13533 27.3552 4.78559 27.0973 4.52773C26.8395 4.26987 26.4897 4.125 26.125 4.125C25.7604 4.125 25.4106 4.26987 25.1528 4.52773C24.8949 4.78559 24.75 5.13533 24.75 5.5V22H22V8.25C22 7.88533 21.8552 7.53559 21.5973 7.27773C21.3395 7.01987 20.9897 6.875 20.625 6.875C20.2604 6.875 19.9106 7.01987 19.6528 7.27773C19.3949 7.53559 19.25 7.88533 19.25 8.25V22H16.5V12.375C16.5 12.0103 16.3552 11.6606 16.0973 11.4027C15.8395 11.1449 15.4897 11 15.125 11C14.7604 11 14.4106 11.1449 14.1528 11.4027C13.8949 11.6606 13.75 12.0103 13.75 12.375V29.9172C13.7454 31.5867 14.072 33.2406 14.7109 34.783C15.3498 36.3254 16.2884 37.7257 17.4722 38.9029C17.7301 39.1607 17.875 39.5104 17.875 39.875Z" fill="#6A0DAD"/>
<path d="M71.5 63.25H67.375V68.75H71.5V63.25Z" fill="#6A0DAD"/>
<path d="M67.375 77C67.375 78.4587 66.7955 79.8576 65.7641 80.8891C64.7326 81.9205 63.3337 82.5 61.875 82.5H49.5V85.25H74.25V71.5H67.375V77Z" fill="#6A0DAD"/>
<path d="M20.625 77V56.375H13.75V85.25H38.5V82.5H26.125C24.6663 82.5 23.2674 81.9205 22.2359 80.8891C21.2045 79.8576 20.625 78.4587 20.625 77Z" fill="#6A0DAD"/>
</svg>
