<svg width="88" height="88" viewBox="0 0 88 88" fill="none" xmlns="http://www.w3.org/2000/svg">
<path fill-rule="evenodd" clip-rule="evenodd" d="M79.92 6.66602L71.774 14.8122L73.1187 19.8255L78.137 21.1702L86.283 13.024L81.2647 11.6793L79.92 6.66602ZM5.88431 81.335H41.5575V71.7516H5.88431V81.335ZM37.504 69.6909C42.5807 51.9614 31.3067 31.1383 7.45319 38.047L1.71875 34.9046V63.9566H6.776L15.8965 53.4378L11.1999 69.691H37.5042L37.504 69.6909ZM46.1178 48.288C45.7184 48.6874 45.0655 48.6874 44.661 48.288C44.2566 47.8835 44.2566 47.2308 44.661 46.8263L71.126 20.3614L71.4378 21.511L72.5876 21.818L46.1178 48.2878V48.288ZM45.3918 37.2479C47.1116 37.2479 48.7291 37.6718 50.1567 38.4172L43.2044 45.3695C41.9961 46.5778 41.9961 48.5363 43.2044 49.7446C44.4079 50.9529 46.3712 50.9529 47.5795 49.7446L54.5318 42.7873C55.2772 44.2149 55.7011 45.8372 55.7011 47.557C55.7011 53.2524 51.0825 57.8662 45.3918 57.8662C43.594 57.8662 41.9083 57.4082 40.437 56.5995C39.8037 52.161 38.23 47.8785 35.6235 44.2489C37.0023 40.1758 40.8561 37.2477 45.392 37.2477L45.3918 37.2479ZM45.3918 28.9848C49.4015 28.9848 53.114 30.2564 56.1493 32.4196L51.672 36.8969C45.3772 33.1796 37.2118 35.7277 34.1473 42.3878C32.6954 40.7361 31.0827 39.3477 29.3288 38.2271C32.5492 32.7022 38.537 28.9848 45.3918 28.9848ZM40.6854 59.0016C48.734 62.3147 57.7619 56.4292 57.7619 47.5571C57.7619 45.2624 57.1383 43.1138 56.0469 41.2722L60.5242 36.7948C62.6875 39.8302 63.959 43.5475 63.959 47.5571C63.959 59.8737 52.2271 68.6873 40.4757 65.4717C40.7535 63.3329 40.8265 61.1598 40.6852 59.0016H40.6854ZM37.7183 20.5417C35.6039 21.1408 33.5918 21.9839 31.7111 23.0313L27.3993 20.5417C26.3519 19.9375 25.0704 20.1032 24.2129 20.9607L18.7952 26.3833C17.9377 27.2408 17.7672 28.5173 18.3762 29.5697L20.8658 33.8816C20.6757 34.2226 20.4906 34.5685 20.3153 34.9144C22.8293 35.2798 25.2605 36.0204 27.5454 37.1945C33.7281 26.5685 47.7644 23.6648 57.6254 30.9435L67.0869 21.4868L66.5657 20.9605C65.7082 20.103 64.4268 19.9373 63.3793 20.5415L59.0674 23.0311C57.1868 21.9837 55.1746 21.1406 53.0602 20.5415L51.7691 15.7328C51.4573 14.5635 50.4341 13.7791 49.2211 13.7791H41.5573C40.3442 13.7791 39.321 14.5635 39.0093 15.7328L37.7181 20.5415L37.7183 20.5417ZM39.6428 69.6909H43.6184V81.335H49.2212C50.4343 81.335 51.4575 80.5506 51.7693 79.3813L53.0604 74.5726C55.1748 73.9733 57.1869 73.1306 59.0676 72.083L63.3794 74.5726C64.4268 75.1768 65.7083 75.0111 66.5658 74.1536L71.9835 68.7309C72.841 67.8783 73.0115 66.5969 72.4025 65.5495L69.9129 61.2329C70.9653 59.3522 71.8082 57.3401 72.4073 55.2257L77.2112 53.9395C78.3853 53.6278 79.1698 52.5998 79.1698 51.3915V43.723C79.1698 42.5147 78.3853 41.4915 77.2112 41.1749L72.4025 39.8888C71.8032 37.7744 70.9653 35.762 69.9129 33.8816L72.4025 29.5697C73.0115 28.5173 72.841 27.2408 71.9835 26.3833L71.4622 25.862L62.0006 35.3188C64.5293 38.7439 66.0249 42.9777 66.0249 47.5573C66.0249 61.1454 53.153 70.9285 40.1447 67.518C40.0034 68.2488 39.8329 68.9747 39.6428 69.6909Z" fill="url(#paint0_linear_3739_265)"/>
<defs>
<linearGradient id="paint0_linear_3739_265" x1="44.0009" y1="6.66602" x2="44.0009" y2="81.335" gradientUnits="userSpaceOnUse">
<stop stop-color="#0D1B73"/>
<stop offset="1" stop-color="#6A0DAD"/>
</linearGradient>
</defs>
</svg>
