<svg width="88" height="88" viewBox="0 0 88 88" fill="none" xmlns="http://www.w3.org/2000/svg">
<g clip-path="url(#clip0_3739_260)">
<path d="M62.199 3.05273C72.2021 5.01555 80.5329 11.6327 84.8401 20.5634H72.2554C71.4132 17.0605 70.2634 13.8895 68.8695 11.179C67.0321 7.59883 64.7617 4.79727 62.199 3.05273ZM70.9973 34.444C70.9973 30.551 70.6364 26.8282 69.9746 23.3993H57.4243V45.4887H69.9746C70.6364 42.0632 70.9973 38.3404 70.9973 34.444ZM45.4137 61.4387C44.5371 62.2087 43.6056 62.8996 42.6276 63.5149C44.8929 64.5582 47.2992 65.3471 49.8137 65.8387C48.2256 64.7576 46.7492 63.2657 45.4137 61.4387ZM38.8653 25.137C38.9529 24.5474 39.0509 23.9734 39.1574 23.3976H25.9729C25.8406 23.7482 25.7203 24.0988 25.6034 24.4546C29.8968 23.3099 34.5357 23.4766 38.8653 25.137ZM43.1432 11.179C44.9806 7.59883 47.251 4.79727 49.8137 3.05273C39.8106 5.01555 31.4849 11.6327 27.1778 20.5634H39.7573C40.6012 17.0605 41.751 13.8877 43.1432 11.179ZM86.0415 23.3976H72.8535C73.4912 26.8574 73.8384 30.5734 73.8384 34.4423C73.8384 38.3163 73.4929 42.0323 72.8535 45.487H86.0415C87.3082 42.0477 88.0009 38.3249 88.0009 34.4423C88.0009 30.5596 87.3082 26.8437 86.0415 23.3976ZM68.8678 57.7124C67.0304 61.2926 64.7599 64.0941 62.1973 65.8335C72.2004 63.8741 80.5312 57.2535 84.8384 48.328H72.2537C71.4115 51.8274 70.2617 54.9985 68.8678 57.7124ZM66.3549 56.4268C67.5581 54.079 68.5721 51.3445 69.337 48.3298H57.4243V64.8796C60.8343 64.1973 63.9573 61.0932 66.3549 56.4268ZM66.3549 12.4663C63.9573 7.7982 60.8343 4.69586 57.4243 4.01352V20.5634H69.337C68.5704 17.547 67.5581 14.8141 66.3549 12.4663ZM49.8326 56.0418C49.1314 57.2604 48.327 58.3844 47.4349 59.4088C49.5146 62.3995 51.9656 64.3537 54.5867 64.8796V48.3298H52.5018C52.1237 50.9749 51.2454 53.5909 49.8326 56.0418ZM45.6578 12.4663C44.4546 14.8141 43.4406 17.5487 42.6757 20.5634H54.5884V4.0118C51.1784 4.69414 48.0554 7.7982 45.6578 12.4663ZM41.5499 26.3796C41.6823 26.4535 41.8129 26.5257 41.9453 26.603C48.9079 30.6232 52.7803 37.9691 52.7132 45.487H54.5884V23.3976H42.0381C41.8524 24.3721 41.6874 25.3673 41.5499 26.3796ZM13.6735 57.8482L12.2453 59.7148C11.8792 60.1874 11.972 60.8698 12.4446 61.2307L14.0139 62.4338L0.650571 79.8654C-0.40646 81.2438 -0.143491 83.241 1.23495 84.2998C2.61338 85.3568 4.61057 85.0938 5.66932 83.7154L19.0378 66.2873L20.6121 67.4904C21.0796 67.8513 21.762 67.7637 22.1281 67.291L23.5564 65.4296C22.4804 65.0205 21.4217 64.5238 20.3939 63.9291C17.6576 62.3548 15.4026 60.2596 13.6735 57.8482ZM21.8135 61.473C12.864 56.3048 9.79432 44.8596 14.9643 35.9101C20.1343 26.9605 31.5778 23.896 40.5273 29.0591C49.4768 34.2291 52.5414 45.6726 47.3731 54.6221C42.2082 63.5734 30.7631 66.643 21.8135 61.473ZM43.1879 52.2073C47.0224 45.5712 44.7468 37.0788 38.1056 33.2495C31.4695 29.4149 22.9823 31.6905 19.1478 38.3266C15.3184 44.9679 17.5889 53.4551 24.2301 57.2879C30.8662 61.1173 39.3534 58.8434 43.1879 52.2073ZM38.7157 49.6824H37.2926V43.4262C37.2926 42.6424 36.6584 42.003 35.8746 42.003C35.0909 42.003 34.4567 42.6407 34.4567 43.4262V49.6824H32.5849V39.4318C32.5849 38.648 31.9507 38.0138 31.167 38.0138C30.3832 38.0138 29.749 38.648 29.749 39.4318V49.6824H27.8824V43.4262C27.8824 42.6424 27.2448 42.003 26.4593 42.003C25.6739 42.003 25.0414 42.6407 25.0414 43.4262V49.6824H23.6234C22.8396 49.6824 22.2003 50.3201 22.2003 51.1055C22.2003 51.8859 22.8379 52.5235 23.6234 52.5235H26.4542H26.4593H26.4696H31.1567H31.167H31.1773H35.8643H35.8746H35.8849H38.7157C39.4995 52.5235 40.1337 51.8859 40.1337 51.1055C40.1337 50.3218 39.4995 49.6824 38.7157 49.6824Z" fill="url(#paint0_linear_3739_260)"/>
</g>
<defs>
<linearGradient id="paint0_linear_3739_260" x1="44.0014" y1="3.05273" x2="44.0014" y2="84.9484" gradientUnits="userSpaceOnUse">
<stop stop-color="#0D1B73"/>
<stop offset="1" stop-color="#6A0DAD"/>
</linearGradient>
<clipPath id="clip0_3739_260">
<rect width="88" height="88" fill="white"/>
</clipPath>
</defs>
</svg>
