<svg width="88" height="88" viewBox="0 0 88 88" fill="none" xmlns="http://www.w3.org/2000/svg">
<path d="M66.9125 84.2227C67.2735 85.0907 67.1858 86.0067 66.6599 86.7853C66.1391 87.5691 65.3296 87.9988 64.3894 87.9988H35.9304C34.6482 87.9988 33.5722 87.1566 33.2697 85.9139L31.7452 79.6285C21.7094 81.6703 14.5852 81.3283 18.6157 71.8717C16.1647 71.033 15.3655 68.515 18.1086 67.3996C16.7199 66.9957 14.415 65.1239 16.89 62.991C14.4924 62.9222 9.36707 62.8844 12.7633 57.3827C19.6813 48.5105 17.8989 46.1042 18.3269 41.3347C19.4664 28.75 29.913 20.5757 41.64 18.1883C41.616 18.5682 41.6005 18.9532 41.6005 19.3382V25.5205C41.4063 25.603 41.2052 25.6907 41.0161 25.7835L40.2994 25.4225C38.9055 24.711 37.2246 24.9791 36.1143 26.0842L34.38 27.8185C33.2749 28.9236 33.0068 30.6046 33.7183 32.0036L34.0844 32.7152C33.861 33.1827 33.6599 33.6605 33.4897 34.1469L32.73 34.391C31.2399 34.8774 30.2396 36.2524 30.2396 37.8216V40.2777C30.2396 41.8417 31.2382 43.2202 32.73 43.7032L33.4897 43.9524C33.665 44.4388 33.8593 44.9166 34.0844 45.3806L33.7183 46.0974C33.0068 47.4913 33.2749 49.1756 34.38 50.2825L36.1143 52.0167C37.2246 53.1219 38.9055 53.39 40.2994 52.6785L41.0161 52.3124C41.4785 52.5358 41.9563 52.7369 42.4444 52.9071L42.6936 53.6667C43.1766 55.1569 44.555 56.1572 46.1191 56.1572H48.5752C50.1444 56.1572 51.5177 55.1586 52.0058 53.6667L52.2499 52.9071C52.7363 52.7369 53.2141 52.5375 53.6816 52.3124L54.3932 52.6785C55.7922 53.39 57.4732 53.1219 58.5783 52.0167L60.3125 50.2825C61.4194 49.1756 61.6858 47.4913 60.976 46.0974L60.615 45.3806C60.835 44.9183 61.0344 44.4405 61.2046 43.9524L61.9694 43.7032C63.4561 43.2202 64.4582 41.8417 64.4582 40.2777V37.8216C64.4582 36.2524 63.4544 34.8791 61.9694 34.391L61.2046 34.1469C61.0344 33.6605 60.835 33.1827 60.615 32.7152L60.976 32.0036C61.6875 30.6046 61.4194 28.9236 60.3125 27.8185L58.5783 26.0842C57.4732 24.9774 55.7922 24.711 54.3932 25.4225L53.6816 25.7835C53.4874 25.6907 53.2914 25.603 53.0972 25.5205V19.3364C53.0972 18.7916 53.1711 18.2605 53.3069 17.7535C65.0202 19.3072 75.3877 27.1069 76.3657 42.5567C75.8432 61.9717 57.578 61.6314 66.9125 84.2227ZM33.9383 14.6597C34.2013 14.9227 34.576 14.9966 34.918 14.8539C35.2635 14.713 35.4783 14.395 35.4783 14.0203V11.2789C35.4783 11.016 35.5763 10.7874 35.7757 10.6121C35.975 10.4316 36.2139 10.3594 36.4769 10.3886C38.9124 10.6619 41.0608 11.9132 42.5183 13.7402C43.1714 11.8066 44.146 10.0225 45.3886 8.44987C42.9618 6.23784 39.801 4.82503 36.3274 4.62565C35.8496 4.59643 35.48 4.20112 35.48 3.72503V0.906277C35.48 0.531589 35.2652 0.213621 34.9197 0.072683C34.5794 -0.0682545 34.203 0.00393303 33.94 0.266902L27.3796 6.82565C27.0289 7.17628 27.0289 7.75206 27.3796 8.10268L33.9383 14.6597ZM44.4811 22.3339C44.9778 22.0813 45.533 21.9386 46.1174 21.9386H48.5735C49.1578 21.9386 49.7182 22.0796 50.2097 22.3339V19.3364C50.2097 14.7182 53.7314 10.8888 58.2191 10.3869C58.4821 10.3577 58.721 10.4316 58.9152 10.6103C59.1146 10.7857 59.2177 11.0142 59.2177 11.2772V14.0203C59.2177 14.395 59.4325 14.713 59.7729 14.8539C60.1183 14.9949 60.4947 14.9227 60.7577 14.6597L67.3147 8.10268C67.6653 7.75206 67.6653 7.17628 67.3147 6.82565L60.7594 0.268621C60.4964 0.00565178 60.1218 -0.0682545 59.7746 0.0744018C59.4343 0.215339 59.2194 0.531589 59.2194 0.907996V3.72331C59.2194 4.20112 58.8499 4.59471 58.3721 4.62393C50.6446 5.06737 44.4811 11.5024 44.4811 19.3382V22.3339ZM57.5385 32.4041C57.4216 32.6327 57.4319 32.8819 57.5574 33.1002C58.0885 34.006 58.5027 34.996 58.776 36.0324C58.8396 36.2816 59.0097 36.4603 59.2538 36.5394L61.0757 37.1341C61.3782 37.2321 61.5775 37.5002 61.5775 37.8216V40.2777C61.5775 40.5939 61.3782 40.8672 61.0757 40.9652L59.2538 41.5599C59.0097 41.6372 58.8396 41.8177 58.776 42.0617C58.5027 43.105 58.0885 44.0882 57.5574 44.9991C57.4302 45.2191 57.4216 45.4666 57.5385 45.6917L58.4099 47.4019C58.5508 47.6889 58.5027 48.0155 58.2741 48.2441L56.5399 49.9783C56.3164 50.2017 55.9847 50.2567 55.7011 50.1106L53.991 49.2392C53.7624 49.1275 53.5132 49.1327 53.2949 49.2582C52.3891 49.7892 51.4043 50.2035 50.3627 50.4767C50.1135 50.5455 49.9347 50.7156 49.8557 50.9546L49.261 52.7764C49.163 53.0841 48.8949 53.2783 48.5735 53.2783H46.1174C45.8011 53.2783 45.5279 53.0841 45.4299 52.7764L44.8352 50.9546C44.7579 50.7156 44.5774 50.5455 44.3333 50.4767C43.29 50.2035 42.3069 49.7892 41.396 49.2582C41.176 49.131 40.9285 49.1258 40.7033 49.2392L38.9932 50.1106C38.7113 50.2567 38.3796 50.2035 38.151 49.9783L36.4168 48.2441C36.1933 48.0155 36.1383 47.6889 36.2844 47.4019L37.1558 45.6917C37.2675 45.4683 37.2624 45.2191 37.1369 44.9991C36.6058 44.0882 36.1916 43.1033 35.9183 42.0617C35.8496 41.8177 35.6794 41.6372 35.4405 41.5599L33.6186 40.9652C33.311 40.8672 33.1168 40.5956 33.1168 40.2777V37.8216C33.1168 37.5002 33.311 37.2321 33.6186 37.1341L35.4405 36.5394C35.6794 36.4621 35.8496 36.2816 35.9183 36.0324C36.1916 34.9942 36.6058 34.006 37.1369 33.1002C37.2641 32.8802 37.2693 32.6327 37.1558 32.4041L36.2844 30.6939C36.1383 30.4121 36.1916 30.0803 36.4168 29.8552L38.151 28.121C38.3796 27.8924 38.7113 27.8425 38.9932 27.9852L40.7033 28.8566C40.9268 28.9735 41.176 28.9632 41.396 28.8377C42.3069 28.3066 43.2918 27.8924 44.3333 27.6191C44.5774 27.5555 44.7579 27.3853 44.8352 27.1413L45.4299 25.3194C45.5279 25.0169 45.7994 24.8175 46.1174 24.8175H48.5735C48.8949 24.8175 49.163 25.0169 49.261 25.3194L49.8557 27.1413C49.933 27.3853 50.1135 27.5555 50.3627 27.6191C51.406 27.8924 52.3891 28.3066 53.2949 28.8377C53.5149 28.9649 53.7624 28.9735 53.991 28.8566L55.7011 27.9852C55.983 27.8442 56.3147 27.8924 56.5399 28.121L58.2741 29.8552C58.5027 30.0786 58.5525 30.4103 58.4099 30.6939L57.5385 32.4041ZM54.2746 39.0488C54.2746 37.1341 53.4994 35.3999 52.2482 34.1469C50.9969 32.8939 49.261 32.1205 47.3463 32.1205C45.4368 32.1205 43.7025 32.8956 42.4496 34.1469C41.1932 35.3999 40.418 37.1341 40.418 39.0488C40.418 40.9583 41.1932 42.6925 42.4496 43.9455C43.7025 45.2019 45.4368 45.9771 47.3463 45.9771C49.261 45.9771 50.9952 45.2019 52.2482 43.9455C53.4994 42.6942 54.2746 40.9583 54.2746 39.0488ZM47.3463 35.0011C46.2308 35.0011 45.2168 35.4549 44.4863 36.1853C43.7507 36.9158 43.2969 37.9299 43.2969 39.0505C43.2969 40.166 43.7507 41.18 44.4863 41.9105C45.2168 42.6461 46.2308 43.0999 47.3463 43.0999C48.4669 43.0999 49.481 42.6461 50.2114 41.9105C50.9419 41.18 51.3957 40.166 51.3957 39.0505C51.3957 37.9299 50.9419 36.9158 50.2114 36.1853C49.481 35.4549 48.4669 35.0011 47.3463 35.0011Z" fill="url(#paint0_linear_3746_343)"/>
<defs>
<linearGradient id="paint0_linear_3746_343" x1="44.0002" y1="0.00195312" x2="44.0002" y2="87.9988" gradientUnits="userSpaceOnUse">
<stop stop-color="#0D1B73"/>
<stop offset="1" stop-color="#6A0DAD"/>
</linearGradient>
</defs>
</svg>
